<svg xmlns="http://www.w3.org/2000/svg" width="46.08" height="46.328"><path fill="#FFF" d="M18.148 46.328c10.006 0 18.147-8.142 18.147-18.149 0-4.729-1.82-9.042-4.795-12.275l3.416-3.416c.121.17.31.293.534.317l7.15.785a.762.762 0 00.842-.673.764.764 0 00-.676-.84l-6.702-.736 1.966-1.964c.031.007.062.016.097.02l7.15.786a.758.758 0 00.838-.675.76.76 0 00-.674-.839L39.4 8.005l3.669-3.67a.761.761 0 00-1.076-1.076l-3.764 3.763-1.985-5.125a.76.76 0 10-1.42.549l2.202 5.687c.009.021.023.038.032.057L35.44 9.811l-1.99-5.299a.76.76 0 10-1.425.535l2.202 5.865c.01.026.028.047.041.072l-3.844 3.844a18.07 18.07 0 00-12.275-4.797C8.142 10.03 0 18.172 0 28.179c0 10.008 8.142 18.149 18.148 18.149zm0-34.775c4.311 0 8.243 1.649 11.2 4.351l-3.593 3.591a11.503 11.503 0 00-7.606-2.869c-6.37 0-11.554 5.183-11.554 11.552 0 6.37 5.184 11.553 11.554 11.553 6.369 0 11.552-5.183 11.552-11.553 0-2.911-1.084-5.573-2.87-7.606l3.592-3.593a16.56 16.56 0 014.35 11.2c0 9.168-7.458 16.626-16.625 16.626-9.168 0-16.625-7.458-16.625-16.626 0-9.167 7.456-16.626 16.625-16.626zm-.539 17.164a.756.756 0 00.539.223c.195 0 .39-.074.538-.223l2.344-2.345a3.38 3.38 0 01.524 1.806 3.41 3.41 0 01-3.406 3.406 3.41 3.41 0 01-3.406-3.406 3.41 3.41 0 013.406-3.406c.664 0 1.281.194 1.806.523l-2.345 2.344a.763.763 0 000 1.078zm3.439-4.515a4.903 4.903 0 00-2.9-.951 4.934 4.934 0 00-4.93 4.928 4.935 4.935 0 004.93 4.93 4.936 4.936 0 004.93-4.93 4.891 4.891 0 00-.953-2.9l3.627-3.627a9.983 9.983 0 012.425 6.527c0 5.531-4.501 10.03-10.03 10.03-5.53 0-10.03-4.499-10.03-10.03 0-5.53 4.5-10.029 10.03-10.029 2.492 0 4.772.915 6.528 2.424l-3.627 3.628z"/></svg>