<?xml version="1.0" encoding="utf-8"?>
<!-- Generator: Adobe Illustrator 16.0.0, SVG Export Plug-In . SVG Version: 6.00 Build 0)  -->
<!DOCTYPE svg PUBLIC "-//W3C//DTD SVG 1.1//EN" "http://www.w3.org/Graphics/SVG/1.1/DTD/svg11.dtd">
<svg version="1.1" id="Layer_1" xmlns="http://www.w3.org/2000/svg" xmlns:xlink="http://www.w3.org/1999/xlink" x="0px" y="0px"
	 width="46.08px" height="46.328px" viewBox="0 0 46.08 46.328" enable-background="new 0 0 46.08 46.328" xml:space="preserve">
<g id="Layer_2">
	<g id="XMLID_37335_">
		<path id="XMLID_37336_" fill="#FFFFFF" d="M18.148,46.328c10.006,0,18.147-8.142,18.147-18.149c0-4.729-1.82-9.042-4.795-12.275
			l3.416-3.416c0.121,0.17,0.31,0.293,0.534,0.317L42.6,13.59c0.029,0.003,0.057,0.005,0.085,0.005c0.384,0,0.714-0.289,0.757-0.678
			c0.045-0.418-0.258-0.794-0.676-0.84l-6.702-0.736l1.966-1.964c0.031,0.007,0.062,0.016,0.097,0.02l7.15,0.786
			c0.028,0.002,0.055,0.003,0.083,0.003c0.384,0,0.714-0.288,0.755-0.678c0.046-0.418-0.254-0.793-0.674-0.839l-6.041-0.664
			l3.669-3.67c0.299-0.297,0.299-0.779,0-1.076c-0.297-0.297-0.778-0.297-1.076,0l-3.764,3.763l-1.985-5.125
			c-0.151-0.392-0.592-0.587-0.985-0.435c-0.392,0.152-0.587,0.593-0.435,0.984l2.202,5.687c0.009,0.021,0.023,0.038,0.032,0.057
			L35.44,9.811l-1.99-5.299c-0.148-0.394-0.587-0.593-0.98-0.445c-0.393,0.148-0.593,0.586-0.445,0.98l2.202,5.865
			c0.01,0.026,0.028,0.047,0.041,0.072l-3.844,3.844c-3.234-2.976-7.543-4.797-12.275-4.797C8.142,10.03,0,18.172,0,28.179
			C0,38.187,8.142,46.328,18.148,46.328z M18.148,11.553c4.311,0,8.243,1.649,11.2,4.351l-3.593,3.591
			c-2.034-1.783-4.694-2.869-7.606-2.869c-6.37,0-11.554,5.183-11.554,11.552c0,6.37,5.184,11.553,11.554,11.553
			c6.369,0,11.552-5.183,11.552-11.553c0-2.911-1.084-5.573-2.87-7.606l3.592-3.593c2.701,2.958,4.35,6.89,4.35,11.2
			c0,9.168-7.458,16.626-16.625,16.626c-9.168,0-16.625-7.458-16.625-16.626C1.523,19.012,8.979,11.553,18.148,11.553z
			 M17.609,28.717c0.149,0.149,0.342,0.223,0.539,0.223c0.195,0,0.39-0.074,0.538-0.223l2.344-2.345
			c0.33,0.525,0.524,1.142,0.524,1.806c0,1.878-1.527,3.406-3.406,3.406c-1.878,0-3.406-1.528-3.406-3.406
			c0-1.877,1.528-3.406,3.406-3.406c0.664,0,1.281,0.194,1.806,0.523l-2.345,2.344C17.312,27.938,17.312,28.42,17.609,28.717z
			 M21.048,24.202c-0.815-0.595-1.816-0.951-2.9-0.951c-2.719,0-4.93,2.211-4.93,4.928c0,2.718,2.211,4.93,4.93,4.93
			c2.718,0,4.93-2.212,4.93-4.93c0-1.084-0.356-2.085-0.953-2.9l3.627-3.627c1.509,1.755,2.425,4.036,2.425,6.527
			c0,5.531-4.501,10.03-10.03,10.03c-5.53,0-10.03-4.499-10.03-10.03c0-5.53,4.5-10.029,10.03-10.029
			c2.492,0,4.772,0.915,6.528,2.424L21.048,24.202z"/>
	</g>
</g>
</svg>
