<?xml version="1.0" encoding="UTF-8" standalone="no"?>
<svg width="41px" height="37px" viewBox="0 0 41 37" version="1.1" xmlns="http://www.w3.org/2000/svg" xmlns:xlink="http://www.w3.org/1999/xlink">
    <!-- Generator: Sketch 46.2 (44496) - http://www.bohemiancoding.com/sketch -->
    <title>desktop_mac - material</title>
    <desc>Created with Sketch.</desc>
    <defs></defs>
    <g id="Symbols" stroke="none" stroke-width="1" fill="none" fill-rule="evenodd">
        <g id="_Settings/Elements/Icon/Web" transform="translate(0.000000, -2.000000)" fill="#FFFFFF">
            <path d="M37.248366,24.2355769 L37.248366,5.64663462 L3.75163399,5.64663462 L3.75163399,24.2355769 L37.248366,24.2355769 Z M37.248366,2 C38.2607168,2 39.1390667,2.35576567 39.8834423,3.06730769 C40.6278178,3.77884971 41,4.63861675 41,5.64663462 L41,27.8822115 C41,28.8902294 40.6278178,29.76482 39.8834423,30.5060096 C39.1390667,31.2471992 38.2607168,31.6177885 37.248366,31.6177885 L24.251634,31.6177885 L27.9139434,37.1766827 L27.9139434,39 L13.0860566,39 L13.0860566,37.1766827 L16.748366,31.6177885 L3.75163399,31.6177885 C2.73928325,31.6177885 1.86093328,31.2471992 1.11655773,30.5060096 C0.37218219,29.76482 0,28.8902294 0,27.8822115 L0,5.64663462 C0,4.63861675 0.37218219,3.77884971 1.11655773,3.06730769 C1.86093328,2.35576567 2.73928325,2 3.75163399,2 L37.248366,2 Z" id="desktop_mac---material"></path>
        </g>
    </g>
</svg>