<svg width="25" height="41" xmlns="http://www.w3.org/2000/svg"><path d="M14.863 36.9a2.57 2.57 0 00-2.563-2.563A2.57 2.57 0 009.737 36.9a2.57 2.57 0 002.563 2.563 2.57 2.57 0 002.563-2.563zm6.662-5.125V9.225c0-.545-.48-1.025-1.025-1.025H4.1c-.545 0-1.025.48-1.025 1.025v22.55c0 .545.48 1.025 1.025 1.025h16.4c.545 0 1.025-.48 1.025-1.025zm-6.15-27.162a.506.506 0 00-.512-.513H9.738a.506.506 0 00-.513.513c0 .288.224.512.513.512h5.125a.506.506 0 00.512-.513zM24.6 4.1v32.8c0 2.242-1.858 4.1-4.1 4.1H4.1C1.858 41 0 39.142 0 36.9V4.1C0 1.858 1.858 0 4.1 0h16.4c2.242 0 4.1 1.858 4.1 4.1z" fill="#FFF" fill-rule="evenodd"/></svg>