<?xml version="1.0" encoding="UTF-8" standalone="no"?>
<svg width="25px" height="41px" viewBox="0 0 25 41" version="1.1" xmlns="http://www.w3.org/2000/svg" xmlns:xlink="http://www.w3.org/1999/xlink">
    <!-- Generator: Sketch 46.2 (44496) - http://www.bohemiancoding.com/sketch -->
    <title>mobile - FontAwesome</title>
    <desc>Created with Sketch.</desc>
    <defs></defs>
    <g id="Symbols" stroke="none" stroke-width="1" fill="none" fill-rule="evenodd">
        <g id="_Settings/Elements/Icon/Route/Drink-Copy-2" transform="translate(-8.000000, 0.000000)" fill="#FFFFFF">
            <path d="M22.8625,36.9 C22.8625,35.490625 21.709375,34.3375 20.3,34.3375 C18.890625,34.3375 17.7375,35.490625 17.7375,36.9 C17.7375,38.309375 18.890625,39.4625 20.3,39.4625 C21.709375,39.4625 22.8625,38.309375 22.8625,36.9 Z M29.525,31.775 L29.525,9.225 C29.525,8.68046875 29.0445313,8.2 28.5,8.2 L12.1,8.2 C11.5554687,8.2 11.075,8.68046875 11.075,9.225 L11.075,31.775 C11.075,32.3195312 11.5554687,32.8 12.1,32.8 L28.5,32.8 C29.0445313,32.8 29.525,32.3195312 29.525,31.775 Z M23.375,4.6125 C23.375,4.32421875 23.1507813,4.1 22.8625,4.1 L17.7375,4.1 C17.4492188,4.1 17.225,4.32421875 17.225,4.6125 C17.225,4.90078125 17.4492188,5.125 17.7375,5.125 L22.8625,5.125 C23.1507813,5.125 23.375,4.90078125 23.375,4.6125 Z M32.6,4.1 L32.6,36.9 C32.6,39.1421875 30.7421875,41 28.5,41 L12.1,41 C9.8578125,41 8,39.1421875 8,36.9 L8,4.1 C8,1.8578125 9.8578125,0 12.1,0 L28.5,0 C30.7421875,0 32.6,1.8578125 32.6,4.1 Z" id="mobile---FontAwesome"></path>
        </g>
    </g>
</svg>