<svg xmlns="http://www.w3.org/2000/svg" width="11.17" height="11.893"><path fill-rule="evenodd" clip-rule="evenodd" fill="#7C7A82" d="M8.548 11.893v-1.127l.992-.001-.992-.986v-.627l1.56 1.55.013-.02.027-.158V4.218l-.016-.119-.004-.013-1.58 1.728V1.678c.955.686 1.853 1.38 2.191 1.649.261.209.431.539.431.993v6.308c0 .663-.509 1.265-1.354 1.265H8.548zm0-10.215v4.136l-1.602 1.75 1.602 1.588v.627L6.793 8.038l-.152-.139-.982-.009-.865-.005-1.983 1.899V9.17L4.49 7.562l-1.679-1.78v-4.14C4.039.81 5.33 0 5.673 0c.415 0 1.653.806 2.818 1.639l.057.039zm0 9.088v1.127l-5.737-.001v-1.118l2.849-.005 2.888-.003zm-7.194 1.127zm1.457-10.25v4.14l-1.64-1.738-.038.173.026 6.457.028.051L2.811 9.17v.614H2.81l-1.028.989h1.029v1.118H1.354C.519 11.893 0 11.309 0 10.628V4.32c0-.319.069-.625.313-.886.075-.08 1.254-.948 2.498-1.791z"/></svg>