<?xml version="1.0" encoding="utf-8"?>
<!-- Generator: Adobe Illustrator 16.0.0, SVG Export Plug-In . SVG Version: 6.00 Build 0)  -->
<!DOCTYPE svg PUBLIC "-//W3C//DTD SVG 1.1//EN" "http://www.w3.org/Graphics/SVG/1.1/DTD/svg11.dtd">
<svg version="1.1" id="Layer_1" xmlns="http://www.w3.org/2000/svg" xmlns:xlink="http://www.w3.org/1999/xlink" x="0px" y="0px"
	 width="42.337px" height="46.328px" viewBox="0 0 42.337 46.328" enable-background="new 0 0 42.337 46.328" xml:space="preserve">
<g id="XMLID_38379_">
	<path id="XMLID_38398_" fill="#FFFFFF" d="M25.641,15.34l-4.285,3.155l-4.286-3.155c-0.194-0.195-0.51-0.195-0.704,0
		c-0.196,0.195-0.196,0.512,0,0.707l4.479,3.388v3.349c0,0.276,0.225,0.499,0.5,0.499c0.275,0,0.5-0.223,0.5-0.499v-3.333l4.5-3.403
		c0.197-0.195,0.197-0.512,0-0.707C26.15,15.145,25.834,15.145,25.641,15.34z"/>
	<path id="XMLID_38395_" fill="#FFFFFF" d="M3.38,1.873C2.24,3.015,1.611,4.531,1.611,6.143c0.002,3.328,2.711,6.036,6.041,6.036
		h0.003c1.607,0,3.125-0.629,4.266-1.771c1.142-1.141,1.771-2.659,1.771-4.269c-0.002-3.329-2.711-6.037-6.04-6.037
		C6.041,0.102,4.523,0.731,3.38,1.873z M12.092,6.139c0.001,1.183-0.462,2.298-1.302,3.139c-0.84,0.839-1.954,1.303-3.136,1.303
		H7.652c-2.448,0-4.441-1.991-4.441-4.438c0-1.186,0.46-2.3,1.3-3.141c0.841-0.84,1.956-1.303,3.141-1.303
		C10.099,1.699,12.09,3.691,12.092,6.139z"/>
	<path id="XMLID_38392_" fill="#FFFFFF" d="M0.798,21.424L0.798,21.424l13.704-0.003c0.432,0,0.783-0.342,0.798-0.772
		c0.006-0.215,0.137-5.315-3.07-8.253c-0.286-0.262-0.719-0.28-1.026-0.044c-0.036,0.028-3.583,2.692-6.878,0.006
		c-0.302-0.245-0.736-0.238-1.03,0.017C3.165,12.489,0.078,15.232,0,20.613c-0.003,0.214,0.08,0.421,0.23,0.574
		C0.38,21.338,0.585,21.424,0.798,21.424z M3.91,14.037c2.883,1.914,5.975,1.006,7.677-0.017c1.625,1.839,2.005,4.503,2.09,5.804
		L1.636,19.826C1.881,16.777,3.206,14.857,3.91,14.037z"/>
	<path id="XMLID_38389_" fill="#FFFFFF" d="M34.686,12.179h0.002c1.611,0,3.126-0.629,4.268-1.771
		c1.143-1.141,1.771-2.659,1.77-4.269c-0.001-3.329-2.71-6.037-6.039-6.037c-1.611,0.001-3.127,0.63-4.269,1.771
		c-1.142,1.143-1.771,2.659-1.771,4.271C28.647,9.471,31.356,12.179,34.686,12.179z M31.546,3.002
		c0.839-0.84,1.956-1.303,3.139-1.303c2.448,0,4.44,1.992,4.441,4.44c0.002,1.183-0.462,2.298-1.302,3.139
		c-0.839,0.84-1.954,1.303-3.137,1.303h-0.002c-2.447,0-4.44-1.991-4.441-4.438C30.244,4.958,30.708,3.843,31.546,3.002z"/>
	<path id="XMLID_38386_" fill="#FFFFFF" d="M42.334,20.649c0.009-0.215,0.138-5.315-3.068-8.253c-0.288-0.262-0.72-0.28-1.026-0.044
		c-0.036,0.028-3.583,2.692-6.88,0.006c-0.301-0.245-0.736-0.238-1.028,0.017c-0.131,0.114-3.219,2.857-3.296,8.238
		c-0.003,0.213,0.081,0.42,0.23,0.573c0.15,0.152,0.355,0.238,0.569,0.238h0l13.702-0.003C41.967,21.421,42.321,21.08,42.334,20.649
		z M28.671,19.826c0.245-3.048,1.569-4.968,2.272-5.789c2.883,1.914,5.978,1.006,7.677-0.017c1.625,1.839,2.005,4.503,2.092,5.804
		L28.671,19.826z"/>
	<path id="XMLID_38383_" fill="#FFFFFF" d="M21.354,25.006c-1.612,0-3.129,0.628-4.27,1.771c-1.142,1.143-1.77,2.659-1.77,4.271
		c0.001,3.328,2.71,6.036,6.04,6.036h0.002c1.61,0,3.126-0.63,4.268-1.772c1.142-1.142,1.771-2.657,1.77-4.269
		C27.392,27.713,24.682,25.006,21.354,25.006z M24.493,34.182c-0.84,0.84-1.954,1.302-3.137,1.302h-0.002
		c-2.448,0-4.441-1.99-4.441-4.437c0-1.186,0.461-2.3,1.301-3.141c0.841-0.84,1.955-1.303,3.14-1.303
		c2.448,0,4.44,1.991,4.441,4.439C25.796,32.227,25.334,33.341,24.493,34.182z"/>
	<path id="XMLID_38380_" fill="#FFFFFF" d="M14.502,46.328L14.502,46.328l13.702-0.003c0.432,0,0.785-0.341,0.799-0.772
		c0.006-0.217,0.138-5.315-3.071-8.252c-0.286-0.264-0.718-0.282-1.025-0.046c-0.036,0.027-3.583,2.692-6.879,0.008
		c-0.301-0.247-0.735-0.239-1.029,0.017c-0.129,0.114-3.218,2.858-3.295,8.239c-0.003,0.213,0.079,0.418,0.229,0.572
		C14.083,46.241,14.288,46.328,14.502,46.328z M17.613,38.939c2.883,1.914,5.977,1.007,7.678-0.016
		c1.624,1.839,2.004,4.502,2.091,5.805L15.339,44.73C15.583,41.681,16.91,39.761,17.613,38.939z"/>
</g>
</svg>
