<svg xmlns="http://www.w3.org/2000/svg" width="42.337" height="46.328"><g fill="#FFF"><path d="M25.641 15.34l-4.285 3.155-4.286-3.155a.499.499 0 10-.704.707l4.479 3.388v3.349a.5.5 0 001 0v-3.333l4.5-3.403a.497.497 0 000-.707.496.496 0 00-.704-.001zM3.38 1.873a6.006 6.006 0 00-1.769 4.27 6.047 6.047 0 006.041 6.036h.003a5.997 5.997 0 004.266-1.771 5.999 5.999 0 001.771-4.269A6.047 6.047 0 007.652.102 6.008 6.008 0 003.38 1.873zm8.712 4.266a4.41 4.41 0 01-1.302 3.139 4.413 4.413 0 01-3.136 1.303h-.002a4.445 4.445 0 01-4.441-4.438c0-1.186.46-2.3 1.3-3.141a4.417 4.417 0 013.141-1.303 4.447 4.447 0 014.44 4.44z"/><path d="M.798 21.424l13.704-.003a.798.798 0 00.798-.772c.006-.215.137-5.315-3.07-8.253a.799.799 0 00-1.026-.044c-.036.028-3.583 2.692-6.878.006a.801.801 0 00-1.03.017C3.165 12.489.078 15.232 0 20.613a.805.805 0 00.23.574c.15.151.355.237.568.237zm3.112-7.387c2.883 1.914 5.975 1.006 7.677-.017 1.625 1.839 2.005 4.503 2.09 5.804l-12.041.002c.245-3.049 1.57-4.969 2.274-5.789zm30.776-1.858h.002a5.997 5.997 0 004.268-1.771 5.99 5.99 0 001.77-4.269A6.046 6.046 0 0034.687.102a6.007 6.007 0 00-4.269 1.771 6.004 6.004 0 00-1.771 4.271 6.044 6.044 0 006.039 6.035zm-3.14-9.177a4.412 4.412 0 013.139-1.303 4.447 4.447 0 014.441 4.44 4.406 4.406 0 01-1.302 3.139 4.407 4.407 0 01-3.137 1.303h-.002a4.446 4.446 0 01-4.441-4.438c0-1.185.464-2.3 1.302-3.141z"/><path d="M42.334 20.649c.009-.215.138-5.315-3.068-8.253a.799.799 0 00-1.026-.044c-.036.028-3.583 2.692-6.88.006a.798.798 0 00-1.028.017c-.131.114-3.219 2.857-3.296 8.238a.8.8 0 00.799.811l13.702-.003c.43 0 .784-.341.797-.772zm-13.663-.823c.245-3.048 1.569-4.968 2.272-5.789 2.883 1.914 5.978 1.006 7.677-.017 1.625 1.839 2.005 4.503 2.092 5.804l-12.041.002zm-7.317 5.18a5.994 5.994 0 00-4.27 1.771 6.003 6.003 0 00-1.77 4.271 6.046 6.046 0 006.04 6.036h.002a6 6 0 004.268-1.772 5.992 5.992 0 001.77-4.269 6.047 6.047 0 00-6.04-6.037zm3.139 9.176a4.408 4.408 0 01-3.137 1.302h-.002a4.444 4.444 0 01-4.441-4.437c0-1.186.461-2.3 1.301-3.141a4.414 4.414 0 013.14-1.303 4.446 4.446 0 014.441 4.439 4.405 4.405 0 01-1.302 3.14z"/><path d="M14.502 46.328l13.702-.003a.798.798 0 00.799-.772c.006-.217.138-5.315-3.071-8.252a.795.795 0 00-1.025-.046c-.036.027-3.583 2.692-6.879.008a.796.796 0 00-1.029.017c-.129.114-3.218 2.858-3.295 8.239a.802.802 0 00.229.572c.15.15.355.237.569.237zm3.111-7.389c2.883 1.914 5.977 1.007 7.678-.016 1.624 1.839 2.004 4.502 2.091 5.805l-12.043.002c.244-3.049 1.571-4.969 2.274-5.791z"/></g></svg>