<?xml version="1.0" encoding="utf-8"?>
<!-- Generator: Adobe Illustrator 16.0.0, SVG Export Plug-In . SVG Version: 6.00 Build 0)  -->
<!DOCTYPE svg PUBLIC "-//W3C//DTD SVG 1.1//EN" "http://www.w3.org/Graphics/SVG/1.1/DTD/svg11.dtd">
<svg version="1.1" id="Layer_1" xmlns="http://www.w3.org/2000/svg" xmlns:xlink="http://www.w3.org/1999/xlink" x="0px" y="0px"
	 width="46.08px" height="46.328px" viewBox="0 0 46.08 46.328" enable-background="new 0 0 46.08 46.328" xml:space="preserve">
<g id="XMLID_38346_">
	<path id="XMLID_38350_" fill="#FFFFFF" d="M36.566,17.214c0.263-1.079,0.395-2.187,0.395-3.292C36.961,6.246,30.716,0,23.039,0
		c-7.675,0-13.92,6.246-13.92,13.922c0,1.105,0.133,2.213,0.395,3.292c0.371,2.258,0.882,4.079,1.519,5.415
		c1.368,2.874,7.125,12.36,9.769,16.681c-3.573,0.456-5.232,1.991-5.232,3.44c0,1.723,2.338,3.578,7.471,3.578
		c5.135,0,7.472-1.855,7.472-3.578c0-1.449-1.659-2.984-5.231-3.44c2.643-4.32,8.4-13.807,9.768-16.681
		C35.684,21.294,36.194,19.472,36.566,17.214z M28.357,42.75c-0.145,0.406-1.942,1.428-5.318,1.428
		c-3.414,0-5.214-1.045-5.321-1.414c0.096-0.357,1.563-1.234,4.337-1.409c0.033,0.052,0.058,0.093,0.07,0.113
		c0.195,0.317,0.542,0.511,0.914,0.511c0.374,0,0.721-0.193,0.916-0.511c0.014-0.021,0.038-0.062,0.07-0.114
		C26.762,41.527,28.228,42.385,28.357,42.75z M34.469,16.742c-0.007,0.027-0.012,0.055-0.017,0.082
		c-0.336,2.049-0.801,3.736-1.345,4.881c-1.383,2.9-7.686,13.254-10.068,17.145c-2.382-3.891-8.684-14.244-10.065-17.145
		c-0.545-1.145-1.01-2.832-1.346-4.88c-0.005-0.028-0.011-0.056-0.017-0.083c-0.228-0.924-0.344-1.873-0.344-2.82
		c0-6.49,5.281-11.771,11.771-11.771c6.492,0,11.772,5.281,11.772,11.771C34.812,14.869,34.697,15.818,34.469,16.742z"/>
	<path id="XMLID_38347_" fill="#FFFFFF" d="M23.039,6.094c-4.118,0-7.471,3.352-7.471,7.472c0,4.119,3.353,7.471,7.471,7.471
		c4.121,0,7.472-3.352,7.472-7.471C30.511,9.445,27.16,6.094,23.039,6.094z M23.039,18.887c-2.934,0-5.32-2.387-5.32-5.321
		s2.387-5.321,5.32-5.321c2.936,0,5.322,2.387,5.322,5.321S25.975,18.887,23.039,18.887z"/>
</g>
</svg>
