<svg xmlns="http://www.w3.org/2000/svg" width="46.08" height="46.328"><g fill="#FFF"><path d="M36.566 17.214c.263-1.079.395-2.187.395-3.292C36.961 6.246 30.716 0 23.039 0c-7.675 0-13.92 6.246-13.92 13.922 0 1.105.133 2.213.395 3.292.371 2.258.882 4.079 1.519 5.415 1.368 2.874 7.125 12.36 9.769 16.681-3.573.456-5.232 1.991-5.232 3.44 0 1.723 2.338 3.578 7.471 3.578 5.135 0 7.472-1.855 7.472-3.578 0-1.449-1.659-2.984-5.231-3.44 2.643-4.32 8.4-13.807 9.768-16.681.634-1.335 1.144-3.157 1.516-5.415zM28.357 42.75c-.145.406-1.942 1.428-5.318 1.428-3.414 0-5.214-1.045-5.321-1.414.096-.357 1.563-1.234 4.337-1.409l.07.113a1.075 1.075 0 001.83 0l.07-.114c2.737.173 4.203 1.031 4.332 1.396zm6.112-26.008c-.007.027-.012.055-.017.082-.336 2.049-.801 3.736-1.345 4.881-1.383 2.9-7.686 13.254-10.068 17.145-2.382-3.891-8.684-14.244-10.065-17.145-.545-1.145-1.01-2.832-1.346-4.88a2.027 2.027 0 00-.017-.083 11.785 11.785 0 01-.344-2.82c0-6.49 5.281-11.771 11.771-11.771 6.492 0 11.772 5.281 11.772 11.771.002.947-.113 1.896-.341 2.82z"/><path d="M23.039 6.094c-4.118 0-7.471 3.352-7.471 7.472 0 4.119 3.353 7.471 7.471 7.471 4.121 0 7.472-3.352 7.472-7.471 0-4.121-3.351-7.472-7.472-7.472zm0 12.793c-2.934 0-5.32-2.387-5.32-5.321s2.387-5.321 5.32-5.321c2.936 0 5.322 2.387 5.322 5.321s-2.386 5.321-5.322 5.321z"/></g></svg>