<svg xmlns="http://www.w3.org/2000/svg" viewBox="0 0 19 25"><path d="M9.4 0c4.9 0 8.9 3.9 8.9 8.8 0 6.6-8.9 16.2-8.9 16.2S.5 15.3.5 8.8C.5 3.9 4.5 0 9.4 0zm0 14c2.9 0 5.3-2.3 5.3-5.2s-2.4-5.2-5.3-5.2S4 5.8 4 8.7 6.4 14 9.4 14zm0-1.8c-2 0-3.5-1.6-3.5-3.5s1.6-3.5 3.5-3.5 3.5 1.6 3.5 3.5-1.6 3.5-3.5 3.5z" fill="#fff"/><path d="M9.4 0c4.9 0 8.9 3.9 8.9 8.8 0 6.6-8.9 16.2-8.9 16.2S.5 15.3.5 8.8C.5 3.9 4.5 0 9.4 0zm0 14c2.9 0 5.3-2.3 5.3-5.2s-2.4-5.2-5.3-5.2S4 5.8 4 8.7 6.4 14 9.4 14zm0-1.8c-2 0-3.5-1.6-3.5-3.5s1.6-3.5 3.5-3.5 3.5 1.6 3.5 3.5-1.6 3.5-3.5 3.5z" fill="#8e8e93"/></svg>