<?xml version="1.0" encoding="utf-8"?>
<!-- Generator: Adobe Illustrator 21.1.0, SVG Export Plug-In . SVG Version: 6.00 Build 0)  -->
<svg version="1.1" id="Layer_1" xmlns="http://www.w3.org/2000/svg" xmlns:xlink="http://www.w3.org/1999/xlink" x="0px" y="0px"
	 viewBox="0 0 19 25" style="enable-background:new 0 0 19 25;" xml:space="preserve">
<style type="text/css">
	.st0{fill:#FFFFFF;}
	.st1{fill:#8E8E93;}
</style>
<g>
	<path id="path-1" class="st0" d="M9.4,0c4.9,0,8.9,3.9,8.9,8.8c0,6.6-8.9,16.2-8.9,16.2S0.5,15.3,0.5,8.8C0.5,3.9,4.5,0,9.4,0z
		 M9.4,14c2.9,0,5.3-2.3,5.3-5.2s-2.4-5.2-5.3-5.2S4,5.8,4,8.7S6.4,14,9.4,14z M9.4,12.2c-2,0-3.5-1.6-3.5-3.5s1.6-3.5,3.5-3.5
		s3.5,1.6,3.5,3.5S11.3,12.2,9.4,12.2z"/>
</g>
<title>icon-map-vector</title>
<desc>Created with Sketch.</desc>
<g id="Symbols">
	<g id="_x5F_Settings_x2F_Elements_x2F_Icon_x2F_Map_x2F_Map-View---Default" transform="translate(-3.000000, 0.000000)">
		<g id="icon-map-vector">
			<path id="path-1_1_" class="st1" d="M12.4,0c4.9,0,8.9,3.9,8.9,8.8c0,6.6-8.9,16.2-8.9,16.2S3.5,15.3,3.5,8.8
				C3.5,3.9,7.5,0,12.4,0z M12.4,14c2.9,0,5.3-2.3,5.3-5.2s-2.4-5.2-5.3-5.2S7,5.8,7,8.7S9.4,14,12.4,14z M12.4,12.2
				c-2,0-3.5-1.6-3.5-3.5s1.6-3.5,3.5-3.5s3.5,1.6,3.5,3.5S14.3,12.2,12.4,12.2z"/>
		</g>
	</g>
</g>
</svg>
