<?xml version="1.0" encoding="UTF-8"?>
<svg width="30px" height="43px" viewBox="0 0 30 43" version="1.1" xmlns="http://www.w3.org/2000/svg" xmlns:xlink="http://www.w3.org/1999/xlink">
    <!-- Generator: Sketch 46.2 (44496) - http://www.bohemiancoding.com/sketch -->
    <title>icon-marker</title>
    <desc>Created with Sketch.</desc>
    <defs>
        <path d="M15,0 C23.2821429,0 30,6.74025 30,15.05 C30,26.3375 15,43 15,43 C15,43 0,26.3375 0,15.05 C0,6.74025 6.71785714,0 15,0 Z M15,24 C19.9705627,24 24,19.9705627 24,15 C24,10.0294373 19.9705627,6 15,6 C10.0294373,6 6,10.0294373 6,15 C6,19.9705627 10.0294373,24 15,24 Z M15,21 C11.6862915,21 9,18.3137085 9,15 C9,11.6862915 11.6862915,9 15,9 C18.3137085,9 21,11.6862915 21,15 C21,18.3137085 18.3137085,21 15,21 Z" id="path-1"></path>
    </defs>
    <g id="Symbols" stroke="none" stroke-width="1" fill="none" fill-rule="evenodd">
        <g id="icon-marker-pink">
            <mask id="mask-2" fill="white">
                <use xlink:href="#path-1"></use>
            </mask>
            <use id="icon-marker" fill="#80C342" xlink:href="#path-1"></use>
        </g>
    </g>
</svg>