<?xml version="1.0" encoding="UTF-8"?>
<svg width="25px" height="19px" viewBox="0 0 25 19" version="1.1" xmlns="http://www.w3.org/2000/svg" xmlns:xlink="http://www.w3.org/1999/xlink">
    <!-- Generator: Sketch 46.2 (44496) - http://www.bohemiancoding.com/sketch -->
    <title>icon-menu</title>
    <desc>Created with Sketch.</desc>
    <defs>
        <path d="M1.5625,3.5 L23.4375,3.5 L23.4375,3.5 C24.3004449,3.5 25,4.19955508 25,5.0625 L25,5.0625 L25,5.0625 C25,5.92544492 24.3004449,6.625 23.4375,6.625 L1.5625,6.625 L1.5625,6.625 C0.699555078,6.625 1.05680274e-16,5.92544492 0,5.0625 L0,5.0625 L0,5.0625 C-1.05680274e-16,4.19955508 0.699555078,3.5 1.5625,3.5 Z M0,12.3541667 L0,12.3541667 L0,12.3541667 C-1.05680274e-16,11.4912217 0.699555078,10.7916667 1.5625,10.7916667 L23.4375,10.7916667 L23.4375,10.7916667 C24.3004449,10.7916667 25,11.4912217 25,12.3541667 L25,12.3541667 L25,12.3541667 C25,13.2171116 24.3004449,13.9166667 23.4375,13.9166667 L1.5625,13.9166667 L1.5625,13.9166667 C0.699555078,13.9166667 1.05680274e-16,13.2171116 0,12.3541667 Z M0,19.6458333 L0,19.6458333 L0,19.6458333 C-1.05680274e-16,18.7828884 0.699555078,18.0833333 1.5625,18.0833333 L23.4375,18.0833333 L23.4375,18.0833333 C24.3004449,18.0833333 25,18.7828884 25,19.6458333 L25,19.6458333 L25,19.6458333 C25,20.5087783 24.3004449,21.2083333 23.4375,21.2083333 L1.5625,21.2083333 L1.5625,21.2083333 C0.699555078,21.2083333 1.05680274e-16,20.5087783 0,19.6458333 Z" id="path-1"></path>
    </defs>
    <g id="Symbols" stroke="none" stroke-width="1" fill="none" fill-rule="evenodd">
        <g id="_Settings/Elements/Icon/Map/Menu" transform="translate(0.000000, -3.000000)">
            <mask id="mask-2" fill="white">
                <use xlink:href="#path-1"></use>
            </mask>
            <use id="icon-menu" fill="#EE2E62" xlink:href="#path-1"></use>
        </g>
    </g>
</svg>