<svg width="25" height="19" xmlns="http://www.w3.org/2000/svg" xmlns:xlink="http://www.w3.org/1999/xlink"><defs><path d="M1.563 3.5h21.875a1.563 1.563 0 010 3.125H1.563a1.563 1.563 0 110-3.125zM0 12.354c0-.863.7-1.562 1.563-1.562h21.875a1.563 1.563 0 010 3.125H1.563C.7 13.917 0 13.217 0 12.354zm0 7.292c0-.863.7-1.563 1.563-1.563h21.875a1.562 1.562 0 010 3.125H1.563C.7 21.208 0 20.508 0 19.646z" id="a"/></defs><use fill="#EE2E62" xlink:href="#a" transform="translate(0 -3)" fill-rule="evenodd"/></svg>