<?xml version="1.0" encoding="utf-8"?>
<!-- Generator: Adobe Illustrator 16.0.0, SVG Export Plug-In . SVG Version: 6.00 Build 0)  -->
<!DOCTYPE svg PUBLIC "-//W3C//DTD SVG 1.1//EN" "http://www.w3.org/Graphics/SVG/1.1/DTD/svg11.dtd">
<svg version="1.1" id="Layer_1" xmlns="http://www.w3.org/2000/svg" xmlns:xlink="http://www.w3.org/1999/xlink" x="0px" y="0px"
	 width="8.237px" height="13.905px" viewBox="0 0 8.237 13.905" enable-background="new 0 0 8.237 13.905" xml:space="preserve">
<path fill-rule="evenodd" clip-rule="evenodd" fill="#7C7A82" d="M4.772,13.905v-2.049h2.563c0.184,0,0.335-0.141,0.335-0.335V1.968
	c0-0.15-0.151-0.303-0.335-0.303H4.772V1.228c0.058,0,0.104-0.046,0.104-0.104S4.83,1.019,4.772,1.019V0.961
	c0.058,0,0.104-0.048,0.104-0.105S4.83,0.75,4.772,0.75V0.692c0.058,0,0.104-0.048,0.104-0.105S4.83,0.482,4.772,0.482V0h1.565
	c1.047,0,1.899,0.81,1.899,1.857v10.148c0,1.046-0.853,1.899-1.899,1.899H4.772z M4.772,0v0.482c-0.059,0-0.107,0.047-0.107,0.104
	s0.049,0.105,0.107,0.105V0.75c-0.059,0-0.107,0.048-0.107,0.105s0.049,0.105,0.107,0.105v0.058c-0.059,0-0.107,0.048-0.107,0.105
	s0.049,0.104,0.107,0.104v0.438H4.466V1.228c0.059,0,0.105-0.046,0.105-0.104S4.524,1.019,4.466,1.019V0.961
	C4.524,0.96,4.571,0.913,4.571,0.855S4.524,0.751,4.466,0.75V0.692c0.059,0,0.105-0.048,0.105-0.105S4.524,0.482,4.466,0.482V0
	H4.772L4.772,0z M4.772,11.856v2.049H4.466v-0.689h0.092l0.053-0.077v-0.701c0-0.041-0.053-0.074-0.053-0.074H4.466v-0.507H4.772z
	 M4.466,0v0.482l0,0c-0.059,0-0.104,0.047-0.104,0.104s0.046,0.105,0.104,0.105l0,0V0.75l0,0c-0.059,0-0.104,0.048-0.104,0.105
	s0.046,0.105,0.104,0.105l0,0v0.058l0,0c-0.059,0-0.104,0.048-0.104,0.105s0.046,0.104,0.104,0.104l0,0v0.438H4.159V1.228
	c0.059,0,0.105-0.046,0.105-0.104S4.218,1.019,4.159,1.019V0.961c0.059,0,0.105-0.048,0.105-0.105S4.218,0.75,4.159,0.75V0.692
	c0.059,0,0.105-0.048,0.105-0.105S4.218,0.482,4.159,0.482V0H4.466L4.466,0z M4.466,11.856v0.507H4.159v-0.507H4.466L4.466,11.856z
	 M4.466,13.216v0.689H4.159v-0.689H4.466z M4.159,0v0.482c-0.059,0-0.106,0.047-0.106,0.104s0.048,0.105,0.106,0.105V0.75
	c-0.059,0-0.106,0.048-0.106,0.105s0.048,0.105,0.106,0.105v0.058c-0.059,0-0.106,0.048-0.106,0.105s0.048,0.104,0.106,0.104v0.438
	H3.852V1.228c0.059,0,0.106-0.046,0.106-0.104S3.91,1.019,3.852,1.019V0.961c0.059,0,0.106-0.048,0.106-0.105S3.91,0.75,3.852,0.75
	V0.692c0.059,0,0.106-0.048,0.106-0.105S3.91,0.482,3.852,0.482V0H4.159L4.159,0z M4.159,11.856v0.507H3.852v-0.507H4.159
	L4.159,11.856z M4.159,13.216v0.689H3.852v-0.689H4.159z M3.852,0v0.482c-0.058,0-0.104,0.047-0.104,0.104s0.047,0.105,0.104,0.105
	V0.75c-0.058,0-0.104,0.048-0.104,0.105s0.047,0.105,0.104,0.105v0.058c-0.058,0-0.104,0.048-0.104,0.105s0.047,0.104,0.104,0.104
	v0.438H3.548V1.228c0.056,0,0.104-0.046,0.104-0.104S3.604,1.019,3.548,1.019V0.961c0.056,0,0.104-0.048,0.104-0.105
	S3.604,0.75,3.548,0.75V0.692c0.056,0,0.104-0.048,0.104-0.105S3.604,0.482,3.548,0.482V0H3.852L3.852,0z M3.852,11.856v0.507H3.759
	c0,0-0.033,0.033-0.033,0.074v0.701l0.055,0.077h0.071v0.689H3.548v-2.049H3.852z M3.24,1.019c0.058,0,0.104,0.048,0.104,0.105
	S3.298,1.228,3.24,1.228v0.438h0.308V1.228c-0.061,0-0.107-0.046-0.107-0.104s0.047-0.105,0.107-0.105V0.961
	c-0.061,0-0.107-0.048-0.107-0.105S3.487,0.75,3.548,0.75V0.692c-0.061,0-0.107-0.048-0.107-0.105s0.047-0.104,0.107-0.104V0H3.24
	v0.482c0.058,0,0.104,0.047,0.104,0.104S3.298,0.692,3.24,0.692V0.75c0.058,0,0.104,0.048,0.104,0.105S3.298,0.961,3.24,0.961V1.019
	L3.24,1.019z M3.548,11.856v2.049H3.24v-2.049H3.548z M3.24,1.228c-0.061,0-0.106-0.046-0.106-0.104S3.18,1.019,3.24,1.019V0.961
	c-0.061,0-0.106-0.048-0.106-0.105S3.18,0.75,3.24,0.75V0.692c-0.061,0-0.106-0.048-0.106-0.105S3.18,0.482,3.24,0.482V0H1.899
	C0.853,0,0,0.81,0,1.857v10.148c0,1.046,0.853,1.899,1.899,1.899H3.24v-2.049H0.901c-0.184,0-0.334-0.141-0.334-0.335V1.968
	c0-0.15,0.15-0.303,0.334-0.303H3.24V1.228z"/>
</svg>
