<svg xmlns="http://www.w3.org/2000/svg" width="8.237" height="13.905"><path fill-rule="evenodd" clip-rule="evenodd" fill="#7C7A82" d="M4.772 13.905v-2.049h2.563a.33.33 0 00.335-.335V1.968c0-.15-.151-.303-.335-.303H4.772v-.437c.058 0 .104-.046.104-.104s-.046-.105-.104-.105V.961a.106.106 0 000-.211V.692c.058 0 .104-.048.104-.105S4.83.482 4.772.482V0h1.565c1.047 0 1.899.81 1.899 1.857v10.148a1.903 1.903 0 01-1.899 1.899H4.772zM4.772 0v.482c-.059 0-.107.047-.107.104s.049.105.107.105V.75c-.059 0-.107.048-.107.105s.049.105.107.105v.058c-.059 0-.107.048-.107.105s.049.104.107.104v.438h-.306v-.437c.059 0 .105-.046.105-.104s-.047-.105-.105-.105V.961c.058-.001.105-.048.105-.106S4.524.751 4.466.75V.692a.105.105 0 100-.21V0h.306zm0 11.856v2.049h-.306v-.689h.092l.053-.077v-.701c0-.041-.053-.074-.053-.074h-.092v-.507h.306zM4.466 0v.482c-.059 0-.104.047-.104.104s.046.105.104.105V.75c-.059 0-.104.048-.104.105s.046.105.104.105v.058c-.059 0-.104.048-.104.105s.046.104.104.104v.438h-.307v-.437c.059 0 .105-.046.105-.104s-.046-.105-.105-.105V.961c.059 0 .105-.048.105-.105S4.218.75 4.159.75V.692a.105.105 0 100-.21V0h.307zm0 11.856v.507h-.307v-.507h.307zm0 1.36v.689h-.307v-.689h.307zM4.159 0v.482c-.059 0-.106.047-.106.104s.048.105.106.105V.75c-.059 0-.106.048-.106.105s.048.105.106.105v.058c-.059 0-.106.048-.106.105s.048.104.106.104v.438h-.307v-.437a.104.104 0 100-.209V.961c.059 0 .106-.048.106-.105S3.91.75 3.852.75V.692c.059 0 .106-.048.106-.105S3.91.482 3.852.482V0h.307zm0 11.856v.507h-.307v-.507h.307zm0 1.36v.689h-.307v-.689h.307zM3.852 0v.482c-.058 0-.104.047-.104.104s.047.105.104.105V.75a.105.105 0 000 .21v.058a.105.105 0 000 .209v.438h-.304v-.437a.105.105 0 000-.209V.961c.056 0 .104-.048.104-.105S3.604.75 3.548.75V.692c.056 0 .104-.048.104-.105S3.604.482 3.548.482V0h.304zm0 11.856v.507h-.093s-.033.033-.033.074v.701l.055.077h.071v.689h-.304v-2.049h.304zM3.24 1.019c.058 0 .104.048.104.105s-.046.104-.104.104v.438h.308v-.438c-.061 0-.107-.046-.107-.104s.047-.105.107-.105V.961a.105.105 0 110-.211V.692c-.061 0-.107-.048-.107-.105s.047-.104.107-.104V0H3.24v.482c.058 0 .104.047.104.104s-.046.106-.104.106V.75a.106.106 0 010 .211v.058zm.308 10.837v2.049H3.24v-2.049h.308zM3.24 1.228a.105.105 0 110-.209V.961c-.061 0-.106-.048-.106-.105S3.18.75 3.24.75V.692a.105.105 0 110-.21V0H1.899C.853 0 0 .81 0 1.857v10.148c0 1.046.853 1.899 1.899 1.899H3.24v-2.049H.901a.33.33 0 01-.334-.335V1.968c0-.15.15-.303.334-.303H3.24v-.437z"/></svg>