<svg xmlns="http://www.w3.org/2000/svg" width="17.5" height="16.813" viewBox="0 2.844 17.5 16.813"><g fill="#656069"><path d="M9.037 11.657c.002 0-1.292 1.068.195 1.206 0 0 .647.168 1.52.134 1.135-.046 2.645-.445 3.559-2.024 0 0 .881-1.206 2.32-1.752 0 0-4.473-.563-7.594 2.436zm-5.37-3.876c-1.651.022-1.948-.109-2.708-.411.199.567.967 2.499 2.522 3.353 1.831 1.002 3.64 1.913 3.529.319.001 0-.083-3.304-3.343-3.261z"/><path d="M8.671 10.323s-4.163 4.381 1.237 8.566c0 .001-2.741-4.885-1.237-8.566zm.014-.395s1.405-1.375-.123-3.157c-1.131-1.326-1.101-1.956-1.01-2.193-.299.55-1.354 2.924 1.133 5.35zm-1.133-5.35c.042-.077.069-.12.069-.12s-.037.037-.069.12zm2.261 3.573s2.984.337 3.266-2.447c-.001 0-3.657.64-3.266 2.447z"/><path d="M9.428 6.579c1.699.191.859-2.978.859-2.978-.109.749-2.555 2.784-.859 2.978z"/></g><path fill="#FFF" d="M7.016 12.365s-.604-1.924-3.815-3.732c-.001 0 3.607.898 3.815 3.732zm1.501.333s2.314-1.385 5.483-2.77c0 0-4.338.772-5.483 2.77z"/></svg>