<?xml version="1.0" encoding="utf-8"?>
<!-- Generator: Adobe Illustrator 16.0.0, SVG Export Plug-In . SVG Version: 6.00 Build 0)  -->
<!DOCTYPE svg PUBLIC "-//W3C//DTD SVG 1.1//EN" "http://www.w3.org/Graphics/SVG/1.1/DTD/svg11.dtd">
<svg version="1.1" id="Layer_1" xmlns="http://www.w3.org/2000/svg" xmlns:xlink="http://www.w3.org/1999/xlink" x="0px" y="0px"
	 width="17.5px" height="16.813px" viewBox="0 2.844 17.5 16.813" enable-background="new 0 2.844 17.5 16.813"
	 xml:space="preserve">
<circle display="none" cx="6.243" cy="12.269" r="10.126"/>
<g>
	<path fill="#656069" d="M9.037,11.657c0.002,0-1.292,1.068,0.195,1.206c0,0,0.647,0.168,1.52,0.134
		c1.135-0.046,2.645-0.445,3.559-2.024c0,0,0.881-1.206,2.32-1.752C16.631,9.221,12.158,8.658,9.037,11.657z"/>
	<path fill="#656069" d="M3.667,7.781C2.016,7.803,1.719,7.672,0.959,7.37c0.199,0.567,0.967,2.499,2.522,3.353
		c1.831,1.002,3.64,1.913,3.529,0.319C7.011,11.042,6.927,7.738,3.667,7.781z"/>
	<path fill="#656069" d="M8.671,10.323c0,0-4.163,4.381,1.237,8.566C9.908,18.89,7.167,14.004,8.671,10.323z"/>
	<path fill="#656069" d="M8.685,9.928c0,0,1.405-1.375-0.123-3.157c-1.131-1.326-1.101-1.956-1.01-2.193
		C7.253,5.128,6.198,7.502,8.685,9.928z"/>
	<path fill="#656069" d="M7.552,4.578c0.042-0.077,0.069-0.12,0.069-0.12S7.584,4.495,7.552,4.578z"/>
	<path fill="#656069" d="M9.813,8.151c0,0,2.984,0.337,3.266-2.447C13.078,5.704,9.422,6.344,9.813,8.151z"/>
	<path fill="#656069" d="M9.428,6.579c1.699,0.191,0.859-2.978,0.859-2.978C10.178,4.35,7.732,6.385,9.428,6.579z"/>
</g>
<path fill="#FFFFFF" d="M7.016,12.365c0,0-0.604-1.924-3.815-3.732C3.2,8.633,6.808,9.531,7.016,12.365z"/>
<path fill="#FFFFFF" d="M8.517,12.698c0,0,2.314-1.385,5.483-2.77C14,9.928,9.662,10.7,8.517,12.698z"/>
</svg>
