<?xml version="1.0" encoding="UTF-8"?>
<svg width="12px" height="12px" viewBox="0 0 12 12" version="1.1" xmlns="http://www.w3.org/2000/svg" xmlns:xlink="http://www.w3.org/1999/xlink">
    <!-- Generator: Sketch 46.2 (44496) - http://www.bohemiancoding.com/sketch -->
    <title>Close</title>
    <desc>Created with Sketch.</desc>
    <defs></defs>
    <g id="Symbols" stroke="none" stroke-width="1" fill="none" fill-rule="evenodd">
        <g id="Search-Bar" transform="translate(-303.000000, -20.000000)" fill="#D1D3D5">
            <path d="M307.317075,26 L303.348545,29.9685294 C302.883818,30.4332564 302.883818,31.1867277 303.348545,31.6514547 C303.813272,32.1161818 304.566744,32.1161818 305.031471,31.6514547 L309,27.6829254 L312.968529,31.6514547 C313.433256,32.1161818 314.186728,32.1161818 314.651455,31.6514547 C315.116182,31.1867277 315.116182,30.4332564 314.651455,29.9685294 L310.682925,26 L314.651455,22.0314706 C315.116182,21.5667436 315.116182,20.8132723 314.651455,20.3485453 C314.186728,19.8838182 313.433256,19.8838182 312.968529,20.3485453 L309,24.3170746 L305.031471,20.3485453 C304.566744,19.8838182 303.813272,19.8838182 303.348545,20.3485453 C302.883818,20.8132723 302.883818,21.5667436 303.348545,22.0314706 L307.317075,26 Z" id="Close"></path>
        </g>
    </g>
</svg>