<svg width="25" height="25" xmlns="http://www.w3.org/2000/svg" xmlns:xlink="http://www.w3.org/1999/xlink"><defs><path d="M9.328 15.74c1.166 0 2.24-.29 3.223-.874a6.471 6.471 0 002.332-2.349 6.3 6.3 0 00.858-3.223 6.3 6.3 0 00-.858-3.224 6.338 6.338 0 00-2.332-2.332 6.3 6.3 0 00-3.223-.857 6.3 6.3 0 00-3.224.857A6.471 6.471 0 003.755 6.07a6.205 6.205 0 00-.874 3.224c0 1.166.291 2.24.874 3.223a6.608 6.608 0 002.35 2.35 6.205 6.205 0 003.223.874zm8.573 0L25 22.84 22.84 25l-7.1-7.133v-1.132l-.41-.377a8.48 8.48 0 01-2.761 1.629 9.433 9.433 0 01-3.241.566c-1.692 0-3.252-.412-4.681-1.235a9.157 9.157 0 01-3.378-3.326A9.114 9.114 0 010 9.294C0 7.602.417 6.04 1.252 4.612a9.167 9.167 0 013.395-3.377C6.076.412 7.636 0 9.327 0c1.693 0 3.259.423 4.7 1.269a9.064 9.064 0 013.308 3.36c.812 1.418 1.218 2.973 1.218 4.665a9.532 9.532 0 01-.566 3.275 8.48 8.48 0 01-1.629 2.76l.377.412h1.166z" id="a"/></defs><use fill="#D1D3D5" xlink:href="#a" fill-rule="evenodd"/></svg>