<svg xmlns="http://www.w3.org/2000/svg" width="17.5" height="20.563"><path fill="#656069" d="M13.614 15.799c.138-.034.647.316.751.721.104.405-.146.964-.314 1.006-.17.043-.652-.331-.754-.735-.104-.407.158-.952.317-.992zm-.789 3.694c.035-.136.589-.417.993-.313.405.105.773.593.73.76-.045.17-.604.413-1.008.309-.405-.105-.757-.596-.715-.756zm-1.698-3.118c-.064-.125.158-.704.53-.896.37-.192.972-.077 1.052.076.08.155-.173.711-.543.903-.371.193-.963.063-1.039-.083zm4.061-4.414c.128-.058.692.202.86.584.17.382.018.975-.142 1.045-.159.071-.698-.216-.866-.599-.169-.382-.004-.964.148-1.03zm.997 4.569c-.132-.047-.367-.62-.228-1.016.137-.396.653-.724.816-.666.166.059.361.636.225 1.03-.139.395-.658.705-.813.652zm-3.525-3.473c-.042-.135.28-.666.68-.79.398-.125.971.094 1.021.258.053.168-.294.67-.693.795-.399.124-.957-.107-1.008-.263z"/><path fill="none" stroke="#656069" stroke-width=".5" stroke-miterlimit="10" d="M.959 8.477a2 2 0 01-.115-2.824l4.218-4.568A1.998 1.998 0 017.887.97l6.445 5.947a1.998 1.998 0 01.112 2.825l-4.217 4.569a1.997 1.997 0 01-2.824.113L.959 8.477z"/><path fill="none" stroke="#656069" stroke-width=".5" stroke-miterlimit="10" d="M8.184 15.054l-.278-2.756 4.313-4.674 2.801.022"/><path fill="#656069" d="M6.254 6.99c.545 2.092-.793 3.903-.793 3.903.114-.76-.197-1.438-.197-1.438-.465-.785-.269-1.54-.012-2.045.197-.388.43-.628.43-.628.422-.615.572.209.572.208zm1.764-2.191c.885-.553 2.165-.265 2.165-.265s-.048-.364-.779 1.092c-.732 1.455-2.387.632-2.387.632-.722-.341.116-.907 1.001-1.459z"/><path fill="#656069" d="M6.924 7.156C5.688 5.603 2.892 5.604 2.892 5.604c3.139-1.33 4.032 1.552 4.032 1.552zm2.811.976s-.086-.383-1.237-.155c-1.15.229-1.407-.718-1.407-.718 1.901-.56 2.644.873 2.644.873zm-1.874 2.072c-1.145-.803-.27-2.02-.27-2.02.884.271.27 2.02.27 2.02z"/><path fill="#656069" d="M8.37 8.401c-.497.693 1.089 1.1 1.089 1.1-.3-.23-.59-1.792-1.089-1.1z"/></svg>