<?xml version="1.0" encoding="UTF-8"?>
<svg width="15px" height="17px" viewBox="0 0 15 17" version="1.1" xmlns="http://www.w3.org/2000/svg" xmlns:xlink="http://www.w3.org/1999/xlink">
    <!-- Generator: Sketch 46.2 (44496) - http://www.bohemiancoding.com/sketch -->
    <title>icon-share</title>
    <desc>Created with Sketch.</desc>
    <defs></defs>
    <g id="Symbols" stroke="none" stroke-width="1" fill="none" fill-rule="evenodd">
        <g id="Profile/Settings/Share-Button" transform="translate(-8.000000, -9.000000)" fill="#FFFFFF">
            <path d="M20.5,21.0024096 C20.9266688,21.0024096 21.3266648,21.1150591 21.7,21.3403614 C22.0733352,21.5656638 22.3699989,21.869476 22.59,22.2518072 C22.8100011,22.6341385 22.92,23.0437729 22.92,23.4807229 C22.92,23.9176729 22.8100011,24.3307209 22.59,24.7198795 C22.3699989,25.1090381 22.0733352,25.4196776 21.7,25.6518072 C21.3266648,25.8839369 20.9266688,26 20.5,26 C20.0733312,26 19.6733352,25.8839369 19.3,25.6518072 C18.9266648,25.4196776 18.6300011,25.1090381 18.41,24.7198795 C18.1899989,24.3307209 18.08,23.9176729 18.08,23.4807229 C18.08,23.2076292 18.0933332,23.0232937 18.12,22.9277108 L12.22,19.4048193 C11.7399976,19.8554239 11.16667,20.0807229 10.5,20.0807229 C10.0599978,20.0807229 9.6466686,19.9646598 9.26,19.7325301 C8.8733314,19.5004004 8.5666678,19.1863474 8.34,18.7903614 C8.1133322,18.3943755 8,17.9710866 8,17.5204819 C8,17.0698773 8.1133322,16.6465883 8.34,16.2506024 C8.5666678,15.8546165 8.8733314,15.5405634 9.26,15.3084337 C9.6466686,15.0763041 10.0599978,14.960241 10.5,14.960241 C11.16667,14.960241 11.7399976,15.1855399 12.22,15.6361446 L18.08,12.1542169 C18.0266664,11.8811231 18,11.6831331 18,11.560241 C18,11.1096363 18.1133322,10.6863474 18.34,10.2903614 C18.5666678,9.89437553 18.8733314,9.58032245 19.26,9.34819277 C19.6466686,9.1160631 20.0599978,9 20.5,9 C20.9400022,9 21.3533314,9.1160631 21.74,9.34819277 C22.1266686,9.58032245 22.4333322,9.89437553 22.66,10.2903614 C22.8866678,10.6863474 23,11.1096363 23,11.560241 C23,12.0108456 22.8866678,12.4341346 22.66,12.8301205 C22.4333322,13.2261064 22.1266686,13.5401595 21.74,13.7722892 C21.3533314,14.0044188 20.9400022,14.1204819 20.5,14.1204819 C19.8866636,14.1204819 19.313336,13.8815285 18.78,13.4036145 L12.92,16.926506 C12.9733336,17.1722904 13,17.3634531 13,17.5 C13,17.6365469 12.9733336,17.8413641 12.92,18.1144578 L18.86,21.6373494 C19.3400024,21.2140541 19.8866636,21.0024096 20.5,21.0024096 Z" id="icon-share"></path>
        </g>
    </g>
</svg>