<svg width="15" height="17" xmlns="http://www.w3.org/2000/svg"><path d="M12.5 12.002c.427 0 .827.113 1.2.338.373.226.67.53.89.912a2.48 2.48 0 010 2.468c-.22.389-.517.7-.89.932a2.233 2.233 0 01-1.2.348c-.427 0-.827-.116-1.2-.348a2.565 2.565 0 01-.89-.932 2.48 2.48 0 01-.33-1.24c0-.272.013-.457.04-.552l-5.9-3.523c-.48.45-1.053.676-1.72.676a2.37 2.37 0 01-1.24-.348 2.568 2.568 0 01-.92-.943A2.515 2.515 0 010 8.52c0-.45.113-.873.34-1.27.227-.395.533-.71.92-.942A2.37 2.37 0 012.5 5.96c.667 0 1.24.226 1.72.676l5.86-3.482A3.517 3.517 0 0110 2.56c0-.45.113-.874.34-1.27.227-.396.533-.71.92-.942A2.37 2.37 0 0112.5 0c.44 0 .853.116 1.24.348.387.232.693.546.92.942.227.396.34.82.34 1.27 0 .45-.113.874-.34 1.27-.227.396-.533.71-.92.942a2.37 2.37 0 01-1.24.348c-.613 0-1.187-.238-1.72-.716L4.92 7.927c.053.245.08.436.08.573 0 .137-.027.341-.08.614l5.94 3.523c.48-.423 1.027-.635 1.64-.635z" fill="#FFF" fill-rule="evenodd"/></svg>