<svg xmlns="http://www.w3.org/2000/svg" width="1993.566" height="2624.996" viewBox="1215.711 0 1993.566 2624.996"><path d="M2893.461 783.252c94.414 78.072 353.407 292.218 311.207 442.551-19.519 67.519-97.062 89.143-154.557 110.237-132.402 48.001-268.487 85.979-406.69 113.932-111.825 22.683-350.771 72.261-306.465-125.543 17.4-76.484 79.119-141.368 128.708-198.863 101.803-119.731 205.723-246.334 328.619-344.442 10.023-7.917 22.152-10.023 32.706-8.436 20.577-8.424 45.366-7.366 66.472 10.564zm-139.262 1578.209c-82.813-66.99-141.367-171.957-192.004-263.735-49.589-88.613-127.649-205.722-140.838-308.57-26.895-211.522 279.559-84.391 367.654-53.802 117.097 41.143 430.95 86.508 396.138 269.535-29.013 149.273-208.887 331.254-359.207 354.466-1.577.529-3.694 0-5.8 0l-1.577 1.577c-4.224 2.105-8.965 4.752-13.718 6.858-17.941 9.506-35.341 5.812-50.648-6.329zm-685.189-544.353c166.686-69.096 181.979 117.097 180.921 229.981-1.577 134.508-5.8 269.535-15.823 403.514-3.695 54.33-1.577 119.744-53.272 154.027-63.825 42.2-186.722 8.965-252.664-11.601-2.105-1.06-4.224-2.106-6.329-2.636-138.721-24.26-308.042-88.084-324.395-216.264-1.589-14.765 4.223-27.953 13.188-37.977 4.224-7.918 8.436-15.295 13.189-22.153 20.576-28.483 44.307-53.802 68.048-79.649 40.083-59.601 83.343-117.096 129.226-172.485 66.46-80.177 148.214-203.615 247.911-244.757zm24.27-578.117c-243.17-199.91-480.01-509.54-602.389-795.958-93.366-217.851 144.003-350.771 327.03-410.902 246.863-81.236 344.972-10.553 369.761 236.311 20.577 212.569 30.071 426.727 28.482 640.354-.529 90.202 24.789 235.781-27.953 317.019 8.436 33.235-41.672 56.966-70.154 34.283-4.224-3.165-8.436-7.389-13.188-11.083-4.212-2.636-7.906-5.8-11.589-10.024zm-26.377 309.63c19.519 86.507-41.671 121.319-113.402 154.026-127.649 57.495-261.629 103.39-396.138 141.367-78.072 21.624-197.804 73.319-273.229 15.824-56.967-43.248-60.66-133.45-65.932-198.863-11.6-146.108 10.553-494.774 213.099-509.54 99.167-6.858 223.122 81.755 304.359 128.18 108.132 62.248 224.181 133.449 304.877 231.04 12.119 6.847 22.143 18.977 26.366 37.966z" fill="#FFF"/></svg>