<?xml version="1.0" encoding="utf-8"?>
<!-- Generator: Adobe Illustrator 16.0.0, SVG Export Plug-In . SVG Version: 6.00 Build 0)  -->
<!DOCTYPE svg PUBLIC "-//W3C//DTD SVG 1.1//EN" "http://www.w3.org/Graphics/SVG/1.1/DTD/svg11.dtd">
<svg version="1.1" id="Capa_1" xmlns="http://www.w3.org/2000/svg" xmlns:xlink="http://www.w3.org/1999/xlink" x="0px" y="0px"
	 width="1463.408px" height="1398.412px" viewBox="1533.298 560.792 1463.408 1398.412"
	 enable-background="new 1533.298 560.792 1463.408 1398.412" xml:space="preserve">
<g>
	<path fill="#FFFFFF" d="M2996.706,1959.204v-541.115c0-289.767-154.745-424.624-361.149-424.624
		c-166.701,0-241.055,91.714-282.748,155.867v3.089h-2.082c0.563-1.006,1.451-2.036,2.082-3.089v-133.711h-313.771
		c4.211,88.509,0,943.56,0,943.56h313.748v-526.983c0-28.287,2.129-56.293,10.388-76.461
		c22.742-56.432,74.237-114.713,160.922-114.713c113.59,0,158.886,86.567,158.886,213.33v504.851H2996.706z"/>
	<path fill="#FFFFFF" d="M1710.831,560.792c-107.32,0-177.533,70.447-177.533,163.004c0,90.592,68.178,163.074,173.415,163.074
		h2.036c109.426,0,177.463-72.482,177.463-163.074C1884.129,631.239,1818.174,560.792,1710.831,560.792z"/>
	<rect x="1551.945" y="1015.621" fill="#FFFFFF" width="313.631" height="943.583"/>
</g>
</svg>
