<svg width="17" height="22" xmlns="http://www.w3.org/2000/svg"><path d="M0 7.642c0 1.677.666 4.122 2.496 4.672.064.013.154.038.218.038.422 0 .665-1.177.665-1.51 0-.397-1.01-1.242-1.01-2.893 0-3.43 2.61-5.863 5.99-5.863 2.905 0 5.056 1.652 5.056 4.685 0 2.266-.909 6.516-3.853 6.516-1.062 0-1.971-.768-1.971-1.869 0-1.613 1.126-3.174 1.126-4.839 0-1.01-.576-1.83-1.651-1.83-1.46 0-2.355 1.638-2.355 2.931 0 .717.09 1.51.41 2.164-.59 2.534-1.793 6.31-1.793 8.922 0 .806.115 1.6.192 2.406l.115.128.18-.064c2.15-2.944 2.073-3.52 3.046-7.373.525.998 1.882 1.536 2.957 1.536 4.531 0 6.567-4.416 6.567-8.397C16.385 2.765 12.724 0 8.705 0 4.326 0 0 2.919 0 7.642z" fill="#FFF" fill-rule="evenodd"/></svg>