<svg width="20" height="16" xmlns="http://www.w3.org/2000/svg" xmlns:xlink="http://www.w3.org/1999/xlink"><defs><path d="M20 3.9a8.317 8.317 0 01-2.36.625A4.038 4.038 0 0019.442 2.3a8.14 8.14 0 01-2.602.975A4.118 4.118 0 0013.845 2c-2.271 0-4.099 1.813-4.099 4.037 0 .313.038.625.102.926a11.71 11.71 0 01-8.452-4.226 3.962 3.962 0 00-.558 2.038c0 1.4.723 2.637 1.827 3.362a4.176 4.176 0 01-1.853-.512v.05c0 1.962 1.409 3.587 3.287 3.962a4.37 4.37 0 01-1.079.138c-.266 0-.52-.025-.774-.063.52 1.6 2.03 2.763 3.833 2.8a8.289 8.289 0 01-5.09 1.726c-.342 0-.66-.013-.989-.05A11.711 11.711 0 006.294 18c7.538 0 11.663-6.15 11.663-11.488 0-.174 0-.35-.013-.524A8.741 8.741 0 0020 3.9z" id="a"/></defs><use fill="#FFF" xlink:href="#a" transform="translate(0 -2)" fill-rule="evenodd"/></svg>