<?xml version="1.0" encoding="UTF-8"?>
<svg width="17px" height="22px" viewBox="0 0 17 22" version="1.1" xmlns="http://www.w3.org/2000/svg" xmlns:xlink="http://www.w3.org/1999/xlink">
    <!-- Generator: Sketch 46.2 (44496) - http://www.bohemiancoding.com/sketch -->
    <title>pinterest-p - FontAwesome</title>
    <desc>Created with Sketch.</desc>
    <defs></defs>
    <g id="Mobile" stroke="none" stroke-width="1" fill="none" fill-rule="evenodd">
        <g id="Profile---Share" transform="translate(-215.000000, -310.000000)" fill="#FFFFFF">
            <g id="Group-4-Copy-4" transform="translate(205.000000, 302.000000)">
                <path d="M10,15.641887 C10,17.31875 10.665625,19.7636418 12.4960938,20.3140625 C12.5600962,20.326863 12.6496995,20.3524639 12.7137019,20.3524639 C13.1361178,20.3524639 13.3793269,19.1748197 13.3793269,18.8420072 C13.3793269,18.4451923 12.3680889,17.6003606 12.3680889,15.9490986 C12.3680889,12.5185697 14.979387,10.0864784 18.3587139,10.0864784 C21.2644231,10.0864784 23.4149038,11.7377404 23.4149038,14.7714543 C23.4149038,17.0371394 22.5060697,21.286899 19.5619591,21.286899 C18.4995192,21.286899 17.5906851,20.5188702 17.5906851,19.4180288 C17.5906851,17.8051683 18.7171274,16.2435096 18.7171274,14.5794471 C18.7171274,13.5682091 18.1411058,12.7489784 17.0658654,12.7489784 C15.6066106,12.7489784 14.7105769,14.3874399 14.7105769,15.6802885 C14.7105769,16.3971154 14.8001803,17.1907452 15.1201923,17.8435697 C14.5313702,20.3780649 13.328125,24.1542067 13.328125,26.7655048 C13.328125,27.5719351 13.4433293,28.3655649 13.5201322,29.1719952 L13.6353365,29.3 L13.8145433,29.2359976 C15.965024,26.291887 15.8882212,25.7158654 16.8610577,21.8629207 C17.3858774,22.8613582 18.7427284,23.3989784 19.8179688,23.3989784 C24.3493389,23.3989784 26.3846154,18.9828125 26.3846154,15.001863 C26.3846154,10.7649038 22.7236779,8 18.7043269,8 C14.3265625,8 10,10.9185096 10,15.641887 Z" id="pinterest-p---FontAwesome"></path>
            </g>
        </g>
    </g>
</svg>