<?xml version="1.0" encoding="utf-8"?>
<!-- Generator: Adobe Illustrator 16.0.0, SVG Export Plug-In . SVG Version: 6.00 Build 0)  -->
<!DOCTYPE svg PUBLIC "-//W3C//DTD SVG 1.1//EN" "http://www.w3.org/Graphics/SVG/1.1/DTD/svg11.dtd">
<svg version="1.1" id="Layer_1" xmlns="http://www.w3.org/2000/svg" xmlns:xlink="http://www.w3.org/1999/xlink" x="0px" y="0px"
	 width="1993.566px" height="2624.996px" viewBox="1215.711 0 1993.566 2624.996"
	 enable-background="new 1215.711 0 1993.566 2624.996" xml:space="preserve">
<g>
	<path fill="#FFFFFF" d="M2893.461,783.252c94.414,78.072,353.407,292.218,311.207,442.551
		c-19.519,67.519-97.062,89.143-154.557,110.237c-132.402,48.001-268.487,85.979-406.69,113.932
		c-111.825,22.683-350.771,72.261-306.465-125.543c17.4-76.484,79.119-141.368,128.708-198.863
		c101.803-119.731,205.723-246.334,328.619-344.442c10.023-7.917,22.152-10.023,32.706-8.436
		C2847.566,764.264,2872.355,765.322,2893.461,783.252z"/>
	<path fill="#FFFFFF" d="M2754.199,2361.461c-82.813-66.99-141.367-171.957-192.004-263.735
		c-49.589-88.613-127.649-205.722-140.838-308.57c-26.895-211.522,279.559-84.391,367.654-53.802
		c117.097,41.143,430.95,86.508,396.138,269.535c-29.013,149.273-208.887,331.254-359.207,354.466c-1.577,0.529-3.694,0-5.8,0
		c-0.53,0.529-1.06,1.059-1.577,1.577c-4.224,2.105-8.965,4.752-13.718,6.858
		C2786.906,2377.296,2769.506,2373.602,2754.199,2361.461z"/>
	<path fill="#FFFFFF" d="M2069.01,1817.108c166.686-69.096,181.979,117.097,180.921,229.981
		c-1.577,134.508-5.8,269.535-15.823,403.514c-3.695,54.33-1.577,119.744-53.272,154.027c-63.825,42.2-186.722,8.965-252.664-11.601
		c-2.105-1.06-4.224-2.106-6.329-2.636c-138.721-24.26-308.042-88.084-324.395-216.264c-1.589-14.765,4.223-27.953,13.188-37.977
		c4.224-7.918,8.436-15.295,13.189-22.153c20.576-28.483,44.307-53.802,68.048-79.649c40.083-59.601,83.343-117.096,129.226-172.485
		C1887.559,1981.688,1969.313,1858.25,2069.01,1817.108z"/>
	<path fill="#FFFFFF" d="M2093.28,1238.991c-243.17-199.91-480.01-509.54-602.389-795.958
		c-93.366-217.851,144.003-350.771,327.03-410.902c246.863-81.236,344.972-10.553,369.761,236.311
		c20.577,212.569,30.071,426.727,28.482,640.354c-0.529,90.202,24.789,235.781-27.953,317.019
		c8.436,33.235-41.672,56.966-70.154,34.283c-4.224-3.165-8.436-7.389-13.188-11.083
		C2100.657,1246.379,2096.963,1243.215,2093.28,1238.991z"/>
	<path fill="#FFFFFF" d="M2066.903,1548.621c19.519,86.507-41.671,121.319-113.402,154.026
		c-127.649,57.495-261.629,103.39-396.138,141.367c-78.072,21.624-197.804,73.319-273.229,15.824
		c-56.967-43.248-60.66-133.45-65.932-198.863c-11.6-146.108,10.553-494.774,213.099-509.54
		c99.167-6.858,223.122,81.755,304.359,128.18c108.132,62.248,224.181,133.449,304.877,231.04
		C2052.656,1517.502,2062.68,1529.632,2066.903,1548.621z"/>
</g>
</svg>
