<svg xmlns="http://www.w3.org/2000/svg" width="1463.408" height="1398.412" viewBox="1533.298 560.792 1463.408 1398.412"><path d="M2996.706 1959.204v-541.115c0-289.767-154.745-424.624-361.149-424.624-166.701 0-241.055 91.714-282.748 155.867v3.089h-2.082c.563-1.006 1.451-2.036 2.082-3.089v-133.711h-313.771c4.211 88.509 0 943.56 0 943.56h313.748v-526.983c0-28.287 2.129-56.293 10.388-76.461 22.742-56.432 74.237-114.713 160.922-114.713 113.59 0 158.886 86.567 158.886 213.33v504.851h313.724zM1710.831 560.792c-107.32 0-177.533 70.447-177.533 163.004 0 90.592 68.178 163.074 173.415 163.074h2.036c109.426 0 177.463-72.482 177.463-163.074-2.083-92.557-68.038-163.004-175.381-163.004zm-158.886 454.829h313.631v943.583h-313.631z" fill="#FFF"/></svg>