<?xml version="1.0" encoding="UTF-8"?>
<svg width="20px" height="20px" viewBox="0 0 20 20" version="1.1" xmlns="http://www.w3.org/2000/svg" xmlns:xlink="http://www.w3.org/1999/xlink">
    <!-- Generator: Sketch 46.2 (44496) - http://www.bohemiancoding.com/sketch -->
    <title>instagram - FontAwesome</title>
    <desc>Created with Sketch.</desc>
    <defs>
        <path d="M19.9991863,10 C19.9991863,11.380096 20.012206,12.7471723 19.9340874,14.1272683 C19.8559688,15.7287005 19.4914151,17.1478558 18.3196354,18.3196354 C17.1478558,19.4914151 15.7287005,19.8559688 14.1272683,19.9340874 C12.7471723,20.012206 11.380096,19.9991863 10,19.9991863 C8.61990398,19.9991863 7.25282773,20.012206 5.87273171,19.9340874 C4.27129954,19.8559688 2.85214419,19.4914151 1.68036455,18.3196354 C0.508584913,17.1478558 0.144031247,15.7287005 0.0659126048,14.1272683 C-0.0122060379,12.7471723 0.000813735861,11.380096 0.000813735861,10 C0.000813735861,8.61990398 -0.0122060379,7.25282773 0.0659126048,5.87273171 C0.144031247,4.27129954 0.508584913,2.85214419 1.68036455,1.68036455 C2.85214419,0.508584913 4.27129954,0.144031247 5.87273171,0.0659126048 C7.25282773,-0.0122060379 8.61990398,0.000813735861 10,0.000813735861 C11.380096,0.000813735861 12.7471723,-0.0122060379 14.1272683,0.0659126048 C15.7287005,0.144031247 17.1478558,0.508584913 18.3196354,1.68036455 C19.4914151,2.85214419 19.8559688,4.27129954 19.9340874,5.87273171 C20.012206,7.25282773 19.9991863,8.61990398 19.9991863,10 Z M16.5359264,4.66189275 C16.5359264,3.99788429 16.0021157,3.46407356 15.3381073,3.46407356 C14.6740988,3.46407356 14.1402881,3.99788429 14.1402881,4.66189275 C14.1402881,5.32590121 14.6740988,5.85971194 15.3381073,5.85971194 C16.0021157,5.85971194 16.5359264,5.32590121 16.5359264,4.66189275 Z M15.1297909,10 C15.1297909,12.8383107 12.8383107,15.1297909 10,15.1297909 C7.16168932,15.1297909 4.87020913,12.8383107 4.87020913,10 C4.87020913,7.16168932 7.16168932,4.87020913 10,4.87020913 C12.8383107,4.87020913 15.1297909,7.16168932 15.1297909,10 Z M13.3330621,10 C13.3330621,8.1642119 11.8357881,6.66693791 10,6.66693791 C8.1642119,6.66693791 6.66693791,8.1642119 6.66693791,10 C6.66693791,11.8357881 8.1642119,13.3330621 10,13.3330621 C11.8357881,13.3330621 13.3330621,11.8357881 13.3330621,10 Z" id="path-1"></path>
    </defs>
    <g id="Symbols" stroke="none" stroke-width="1" fill="none" fill-rule="evenodd">
        <g id="_Settings/Elements/Icon/Social/Instagram">
            <mask id="mask-2" fill="white">
                <use xlink:href="#path-1"></use>
            </mask>
            <use id="instagram---FontAwesome" fill="#FFFFFF" xlink:href="#path-1"></use>
        </g>
    </g>
</svg>