<?xml version="1.0" encoding="UTF-8"?>
<svg width="25px" height="20px" viewBox="0 0 25 20" version="1.1" xmlns="http://www.w3.org/2000/svg" xmlns:xlink="http://www.w3.org/1999/xlink">
    <!-- Generator: Sketch 46.2 (44496) - http://www.bohemiancoding.com/sketch -->
    <title></title>
    <desc>Created with Sketch.</desc>
    <defs></defs>
    <g id="Symbols" stroke="none" stroke-width="1" fill="none" fill-rule="evenodd">
        <g id="Menu/Slider/Settings/List-View" transform="translate(-69.000000, -20.000000)" fill="#EE2E62">
            <path d="M75.0635538,20.704 L94,20.704 L94,23.328 L75.0635538,23.328 L75.0635538,20.704 Z M75.0635538,31.328 L75.0635538,28.704 L94,28.704 L94,31.328 L75.0635538,31.328 Z M75.0635538,39.328 L75.0635538,36.704 L94,36.704 L94,39.328 L75.0635538,39.328 Z M71.0103761,36 C71.5724196,36 72.0533919,36.2026646 72.4533074,36.608 C72.8532229,37.0133354 73.0531777,37.482664 73.0531777,38.016 C73.0531777,38.549336 72.8478187,39.0133314 72.4370947,39.408 C72.0263706,39.8026686 71.5508025,40 71.0103761,40 C70.4699497,40 69.9997858,39.8026686 69.5998703,39.408 C69.1999548,39.0133314 69,38.549336 69,38.016 C69,37.482664 69.1945506,37.0133354 69.5836576,36.608 C69.9727646,36.2026646 70.4483327,36 71.0103761,36 Z M71.0103761,20 C71.5724196,20 72.0533919,20.1973314 72.4533074,20.592 C72.8532229,20.9866686 73.0531777,21.4613306 73.0531777,22.016 C73.0531777,22.5706694 72.8532229,23.0399981 72.4533074,23.424 C72.0533919,23.8080019 71.5724196,24 71.0103761,24 C70.4483327,24 69.9727646,23.8080019 69.5836576,23.424 C69.1945506,23.0399981 69,22.5706694 69,22.016 C69,21.4613306 69.1945506,20.9866686 69.5836576,20.592 C69.9727646,20.1973314 70.4483327,20 71.0103761,20 Z M71.0103761,28 C71.5724196,28 72.0533919,28.1973314 72.4533074,28.592 C72.8532229,28.9866686 73.0531777,29.4613306 73.0531777,30.016 C73.0531777,30.5706694 72.8532229,31.0399981 72.4533074,31.424 C72.0533919,31.8080019 71.5724196,32 71.0103761,32 C70.4483327,32 69.9727646,31.8080019 69.5836576,31.424 C69.1945506,31.0399981 69,30.5706694 69,30.016 C69,29.4613306 69.1945506,28.9866686 69.5836576,28.592 C69.9727646,28.1973314 70.4483327,28 71.0103761,28 Z" id=""></path>
        </g>
    </g>
</svg>