<svg width="25" height="20" xmlns="http://www.w3.org/2000/svg"><path d="M6.064.704H25v2.624H6.064V.704zm0 10.624V8.704H25v2.624H6.064zm0 8v-2.624H25v2.624H6.064zM2.01 16c.562 0 1.043.203 1.443.608.4.405.6.875.6 1.408 0 .533-.205.997-.616 1.392-.41.395-.886.592-1.427.592-.54 0-1.01-.197-1.41-.592-.4-.395-.6-.859-.6-1.392 0-.533.195-1.003.584-1.408A1.901 1.901 0 012.01 16zm0-16a1.98 1.98 0 011.443.592c.4.395.6.87.6 1.424 0 .555-.2 1.024-.6 1.408-.4.384-.88.576-1.443.576a1.954 1.954 0 01-1.426-.576A1.903 1.903 0 010 2.016C0 1.461.195.986.584.592A1.924 1.924 0 012.01 0zm0 8a1.98 1.98 0 011.443.592c.4.395.6.87.6 1.424 0 .555-.2 1.024-.6 1.408-.4.384-.88.576-1.443.576a1.954 1.954 0 01-1.426-.576A1.903 1.903 0 010 10.016c0-.555.195-1.03.584-1.424A1.924 1.924 0 012.01 8z" fill="#8E8E93" fill-rule="evenodd"/></svg>