<?xml version="1.0" standalone="no"?>
<!DOCTYPE svg PUBLIC "-//W3C//DTD SVG 20010904//EN"
 "http://www.w3.org/TR/2001/REC-SVG-20010904/DTD/svg10.dtd">
<svg version="1.0" xmlns="http://www.w3.org/2000/svg"
 width="740.000000pt" height="740.000000pt" viewBox="0 0 740.000000 740.000000"
 preserveAspectRatio="xMidYMid meet">
<metadata>
Created by potrace 1.11, written by Peter Selinger 2001-2013
</metadata>
<g transform="translate(0.000000,740.000000) scale(0.100000,-0.100000)"
fill="#000000" stroke="none">
<path d="M2855 6020 c6 -249 18 -546 30 -710 11 -156 19 -300 19 -365 1 -81 2
-81 -104 -52 -35 9 -77 17 -93 17 l-29 0 7 -72 c4 -40 9 -80 10 -89 2 -9 6
-40 10 -70 10 -79 50 -309 75 -424 12 -55 24 -112 26 -126 3 -14 29 -120 60
-235 30 -115 56 -216 58 -225 26 -107 164 -526 238 -724 27 -71 50 -134 52
-140 1 -5 9 -26 17 -45 8 -19 39 -94 69 -167 30 -72 56 -130 57 -129 2 2 23
74 48 160 25 87 52 173 60 192 8 19 12 34 10 34 -6 0 90 230 121 293 74 148
159 277 370 564 343 467 514 753 554 922 11 42 22 32 -325 306 -148 118 -279
222 -290 232 -11 10 -42 36 -70 58 -254 204 -641 569 -886 835 l-97 105 3
-145z"/>
<path d="M36 5949 c139 -153 285 -455 350 -729 9 -36 17 -72 19 -80 13 -51 54
-274 60 -319 4 -30 8 -61 10 -70 3 -16 12 -106 20 -191 11 -118 16 -207 20
-347 5 -183 5 -183 -91 -181 -44 1 -68 -2 -73 -11 -13 -20 25 -182 91 -391 21
-66 102 -288 118 -325 5 -11 36 -81 69 -156 92 -211 160 -343 339 -660 150
-267 355 -508 607 -713 461 -377 853 -527 1385 -530 102 0 214 2 250 6 77 8
261 37 270 43 4 2 20 7 37 9 34 6 178 48 237 68 l38 14 -38 29 c-150 115 -364
395 -482 630 -100 202 -144 314 -252 640 -189 578 -241 728 -300 875 -218 547
-462 1004 -682 1277 -32 40 -63 75 -69 79 -14 8 -52 -29 -101 -98 -59 -83 -66
-83 -145 4 -142 156 -554 559 -678 662 -71 60 -177 140 -235 178 -224 148
-544 279 -760 313 l-45 7 31 -33z"/>
<path d="M7219 5878 c-587 -196 -1202 -525 -1745 -934 -93 -70 -171 -130 -174
-134 -17 -24 -119 -97 -128 -91 -15 9 -38 74 -67 189 -31 126 -53 182 -70 182
-19 0 -37 -27 -169 -260 -64 -113 -120 -212 -126 -220 -5 -8 -17 -28 -26 -45
-41 -74 -222 -358 -277 -435 -34 -47 -113 -153 -177 -235 -228 -297 -354 -486
-471 -710 -92 -175 -169 -381 -195 -515 -2 -8 -8 -42 -14 -76 -27 -144 -17
-346 27 -504 99 -361 361 -627 746 -755 99 -33 290 -76 392 -90 96 -12 239 -8
360 11 142 23 334 95 470 177 74 45 216 161 291 240 131 135 230 270 329 447
45 82 309 610 354 710 173 382 275 648 320 835 27 115 18 123 -88 80 -35 -15
-71 -23 -82 -20 -25 8 -26 16 -15 120 5 39 10 77 11 85 2 8 6 44 10 80 4 36 9
68 11 71 1 3 6 32 9 65 4 32 8 61 10 64 2 3 11 46 19 95 9 50 18 101 21 115 4
14 8 36 11 50 14 73 90 365 111 430 13 41 26 82 28 90 9 35 56 164 104 284 92
228 236 492 332 607 50 60 47 60 -142 -3z"/>
</g>
</svg>
