<?xml version="1.0" encoding="utf-8"?>
<!-- Generator: Adobe Illustrator 16.0.0, SVG Export Plug-In . SVG Version: 6.00 Build 0)  -->
<!DOCTYPE svg PUBLIC "-//W3C//DTD SVG 1.1//EN" "http://www.w3.org/Graphics/SVG/1.1/DTD/svg11.dtd">
<svg version="1.1" id="Layer_1" xmlns="http://www.w3.org/2000/svg" xmlns:xlink="http://www.w3.org/1999/xlink" x="0px" y="0px"
	 width="304.976px" height="34.303px" viewBox="0 0 304.976 34.303" enable-background="new 0 0 304.976 34.303"
	 xml:space="preserve">
<g>
	<path fill="#656069" d="M1.926,7.059V4.128h2.549v2.931H1.926z M1.926,24.887V9.849h2.549v15.038H1.926z"/>
	<path fill="#656069" d="M8.354,24.887V9.849h2.294v2.138c1.104-1.652,2.7-2.478,4.786-2.478c0.906,0,1.739,0.163,2.5,0.488
		c0.76,0.326,1.329,0.753,1.706,1.282s0.642,1.156,0.793,1.883c0.094,0.472,0.142,1.298,0.142,2.478v9.247h-2.549v-9.147
		c0-1.039-0.099-1.815-0.297-2.329c-0.198-0.515-0.55-0.925-1.055-1.232c-0.505-0.307-1.097-0.46-1.777-0.46
		c-1.085,0-2.022,0.345-2.811,1.034c-0.788,0.689-1.182,1.997-1.182,3.922v8.213H8.354z"/>
	<path fill="#656069" d="M25.092,24.887V11.831H22.84V9.849h2.251v-1.6c0-1.01,0.09-1.761,0.269-2.251
		c0.246-0.661,0.677-1.196,1.295-1.607c0.619-0.41,1.485-0.616,2.599-0.616c0.717,0,1.51,0.085,2.379,0.255l-0.382,2.223
		C30.723,6.158,30.223,6.11,29.75,6.11c-0.774,0-1.322,0.165-1.643,0.496s-0.481,0.949-0.481,1.855v1.388h2.931v1.982h-2.931v13.056
		H25.092z"/>
	<path fill="#656069" d="M31.591,17.368c0-2.785,0.774-4.848,2.322-6.188c1.293-1.114,2.87-1.671,4.729-1.671
		c2.067,0,3.757,0.677,5.069,2.032c1.312,1.354,1.968,3.226,1.968,5.614c0,1.935-0.291,3.458-0.871,4.566
		c-0.581,1.109-1.426,1.971-2.535,2.584c-1.109,0.614-2.32,0.92-3.632,0.92c-2.105,0-3.807-0.675-5.104-2.025
		C32.24,21.852,31.591,19.907,31.591,17.368z M34.211,17.368c0,1.926,0.42,3.368,1.26,4.326c0.84,0.958,1.897,1.438,3.172,1.438
		c1.265,0,2.317-0.481,3.158-1.444s1.26-2.431,1.26-4.404c0-1.86-0.422-3.269-1.268-4.227c-0.845-0.958-1.895-1.437-3.15-1.437
		c-1.274,0-2.332,0.477-3.172,1.43S34.211,15.442,34.211,17.368z"/>
	<path fill="#656069" d="M63.197,22.579c-0.614,0.708-1.3,1.277-2.06,1.707c-0.76,0.429-1.522,0.644-2.287,0.644
		c-0.84,0-1.657-0.246-2.45-0.736s-1.437-1.246-1.933-2.266c-0.495-1.02-0.743-2.138-0.743-3.356c0-1.501,0.385-3.004,1.154-4.51
		c0.769-1.506,1.725-2.636,2.867-3.392s2.251-1.133,3.328-1.133c0.821,0,1.605,0.215,2.351,0.645
		c0.746,0.429,1.388,1.083,1.926,1.961l0.481-2.195h2.535l-2.039,9.501c-0.283,1.322-0.425,2.053-0.425,2.195
		c0,0.255,0.097,0.474,0.29,0.659c0.194,0.184,0.427,0.276,0.701,0.276c0.5,0,1.156-0.288,1.968-0.864
		c1.076-0.755,1.928-1.768,2.556-3.037c0.627-1.27,0.941-2.58,0.941-3.93c0-1.577-0.403-3.049-1.211-4.418
		c-0.807-1.369-2.011-2.464-3.61-3.285c-1.601-0.821-3.368-1.232-5.303-1.232c-2.209,0-4.227,0.517-6.053,1.55
		c-1.827,1.034-3.243,2.516-4.248,4.446c-1.006,1.931-1.508,4-1.508,6.209c0,2.313,0.502,4.305,1.508,5.976
		c1.005,1.671,2.459,2.905,4.361,3.703c1.902,0.798,4.009,1.197,6.322,1.197c2.473,0,4.545-0.416,6.216-1.246
		s2.922-1.841,3.752-3.03h2.563c-0.481,0.991-1.308,2.001-2.478,3.03s-2.563,1.843-4.177,2.443
		c-1.614,0.599-3.559,0.899-5.834,0.899c-2.096,0-4.029-0.269-5.798-0.807c-1.771-0.538-3.278-1.348-4.524-2.429
		c-1.246-1.081-2.186-2.324-2.818-3.731c-0.793-1.784-1.189-3.71-1.189-5.777c0-2.303,0.472-4.498,1.416-6.584
		c1.152-2.558,2.787-4.517,4.907-5.876c2.119-1.359,4.689-2.039,7.71-2.039c2.341,0,4.444,0.479,6.309,1.437
		c1.864,0.958,3.334,2.386,4.411,4.284c0.916,1.633,1.374,3.408,1.374,5.324c0,2.738-0.963,5.168-2.889,7.292
		c-1.718,1.907-3.597,2.86-5.636,2.86c-0.651,0-1.178-0.099-1.579-0.297c-0.401-0.198-0.696-0.481-0.885-0.85
		C63.343,23.561,63.253,23.154,63.197,22.579z M56.343,18.741c0,1.293,0.307,2.299,0.92,3.016s1.317,1.076,2.11,1.076
		c0.529,0,1.085-0.158,1.671-0.474c0.585-0.316,1.145-0.786,1.678-1.409c0.533-0.623,0.97-1.414,1.31-2.372
		c0.34-0.958,0.51-1.918,0.51-2.881c0-1.284-0.318-2.28-0.956-2.988c-0.637-0.708-1.414-1.062-2.329-1.062
		c-0.604,0-1.173,0.153-1.706,0.46c-0.534,0.307-1.05,0.8-1.551,1.479s-0.901,1.506-1.204,2.478S56.343,17.929,56.343,18.741z"/>
	<path fill="#656069" d="M78.107,24.887V9.849h2.294v2.138c1.104-1.652,2.7-2.478,4.786-2.478c0.906,0,1.739,0.163,2.5,0.488
		c0.76,0.326,1.329,0.753,1.706,1.282s0.642,1.156,0.793,1.883c0.094,0.472,0.142,1.298,0.142,2.478v9.247h-2.549v-9.147
		c0-1.039-0.099-1.815-0.297-2.329c-0.198-0.515-0.55-0.925-1.055-1.232c-0.505-0.307-1.097-0.46-1.777-0.46
		c-1.085,0-2.022,0.345-2.811,1.034c-0.788,0.689-1.182,1.997-1.182,3.922v8.213H78.107z"/>
	<path fill="#656069" d="M104.049,23.032c-0.944,0.802-1.853,1.369-2.726,1.699c-0.874,0.331-1.811,0.496-2.811,0.496
		c-1.652,0-2.922-0.403-3.809-1.211c-0.887-0.807-1.331-1.838-1.331-3.094c0-0.736,0.167-1.409,0.503-2.018
		c0.335-0.609,0.774-1.098,1.316-1.466c0.543-0.368,1.154-0.646,1.834-0.835c0.5-0.132,1.255-0.26,2.266-0.382
		c2.058-0.246,3.573-0.538,4.545-0.878c0.009-0.349,0.014-0.571,0.014-0.666c0-1.039-0.241-1.77-0.722-2.195
		c-0.651-0.576-1.619-0.864-2.903-0.864c-1.199,0-2.084,0.21-2.655,0.63c-0.571,0.42-0.993,1.163-1.267,2.23l-2.492-0.34
		c0.227-1.067,0.6-1.928,1.119-2.584c0.519-0.656,1.27-1.161,2.251-1.515c0.982-0.354,2.119-0.531,3.413-0.531
		c1.284,0,2.327,0.151,3.129,0.453s1.393,0.682,1.77,1.14c0.377,0.458,0.642,1.036,0.793,1.735c0.085,0.434,0.127,1.218,0.127,2.351
		v3.398c0,2.37,0.054,3.868,0.163,4.496c0.109,0.628,0.324,1.23,0.645,1.806h-2.662C104.294,24.358,104.125,23.74,104.049,23.032z
		 M103.836,17.339c-0.925,0.377-2.313,0.699-4.163,0.963c-1.048,0.151-1.789,0.321-2.223,0.51s-0.77,0.465-1.005,0.829
		c-0.236,0.363-0.354,0.767-0.354,1.21c0,0.68,0.257,1.246,0.771,1.699c0.515,0.453,1.268,0.68,2.259,0.68
		c0.982,0,1.855-0.215,2.62-0.644c0.765-0.43,1.326-1.018,1.685-1.763c0.274-0.576,0.411-1.425,0.411-2.549V17.339z"/>
	<path fill="#656069" d="M115.929,22.607l0.368,2.251c-0.717,0.151-1.359,0.227-1.926,0.227c-0.925,0-1.643-0.146-2.152-0.439
		s-0.869-0.677-1.076-1.154c-0.208-0.477-0.312-1.48-0.312-3.009v-8.652h-1.869V9.849h1.869V6.125l2.535-1.529v5.253h2.563v1.982
		h-2.563v8.793c0,0.727,0.045,1.194,0.134,1.402c0.09,0.208,0.236,0.373,0.439,0.496c0.203,0.123,0.493,0.184,0.871,0.184
		C115.094,22.706,115.467,22.673,115.929,22.607z"/>
	<path fill="#656069" d="M128.277,24.887v-2.209c-1.17,1.699-2.761,2.549-4.772,2.549c-0.887,0-1.716-0.17-2.485-0.51
		c-0.769-0.34-1.34-0.767-1.713-1.281c-0.373-0.515-0.635-1.145-0.786-1.891c-0.104-0.5-0.156-1.293-0.156-2.379V9.849h2.549v8.34
		c0,1.331,0.052,2.228,0.156,2.69c0.161,0.67,0.5,1.197,1.02,1.579c0.519,0.383,1.161,0.574,1.926,0.574s1.482-0.196,2.152-0.587
		c0.67-0.392,1.145-0.925,1.423-1.601c0.279-0.675,0.418-1.654,0.418-2.938V9.849h2.549v15.038H128.277z"/>
	<path fill="#656069" d="M134.521,24.887V9.849h2.294v2.28c0.585-1.067,1.125-1.77,1.622-2.11c0.495-0.34,1.041-0.51,1.635-0.51
		c0.859,0,1.732,0.274,2.62,0.821l-0.878,2.365c-0.623-0.368-1.246-0.552-1.869-0.552c-0.557,0-1.057,0.167-1.501,0.503
		c-0.444,0.335-0.76,0.8-0.949,1.395c-0.283,0.906-0.425,1.897-0.425,2.974v7.873H134.521z"/>
	<path fill="#656069" d="M154.501,20.044l2.634,0.326c-0.416,1.539-1.185,2.733-2.308,3.583s-2.558,1.274-4.305,1.274
		c-2.2,0-3.944-0.677-5.232-2.032c-1.289-1.354-1.933-3.254-1.933-5.699c0-2.53,0.651-4.494,1.954-5.891s2.993-2.096,5.069-2.096
		c2.011,0,3.653,0.685,4.928,2.053s1.912,3.294,1.912,5.777c0,0.151-0.005,0.377-0.014,0.68h-11.215
		c0.094,1.652,0.562,2.917,1.402,3.795s1.888,1.317,3.144,1.317c0.935,0,1.732-0.246,2.393-0.736S154.114,21.12,154.501,20.044z
		 M146.133,15.923h8.397c-0.113-1.265-0.434-2.214-0.963-2.846c-0.812-0.982-1.864-1.473-3.158-1.473
		c-1.17,0-2.155,0.392-2.953,1.175C146.659,13.563,146.218,14.611,146.133,15.923z"/>
	<path fill="#656069" d="M163.111,24.887l-4.602-15.038h2.634l2.393,8.68l0.892,3.229c0.038-0.161,0.297-1.194,0.779-3.101
		l2.393-8.808h2.62l2.251,8.723l0.75,2.875l0.864-2.903l2.577-8.694h2.478l-4.701,15.038h-2.648l-2.393-9.006l-0.581-2.563
		l-3.044,11.569H163.111z"/>
	<path fill="#656069" d="M181.292,7.059V4.128h2.549v2.931H181.292z M181.292,24.887V9.849h2.549v15.038H181.292z"/>
	<path fill="#656069" d="M193.286,22.607l0.368,2.251c-0.717,0.151-1.359,0.227-1.926,0.227c-0.925,0-1.643-0.146-2.152-0.439
		s-0.869-0.677-1.076-1.154c-0.208-0.477-0.312-1.48-0.312-3.009v-8.652h-1.869V9.849h1.869V6.125l2.535-1.529v5.253h2.563v1.982
		h-2.563v8.793c0,0.727,0.045,1.194,0.134,1.402c0.09,0.208,0.236,0.373,0.439,0.496c0.203,0.123,0.493,0.184,0.871,0.184
		C192.451,22.706,192.824,22.673,193.286,22.607z"/>
	<path fill="#656069" d="M195.778,24.887V4.128h2.549v7.448c1.189-1.378,2.69-2.067,4.503-2.067c1.114,0,2.082,0.22,2.903,0.658
		c0.821,0.439,1.409,1.046,1.763,1.82c0.354,0.774,0.531,1.897,0.531,3.37v9.53h-2.549v-9.53c0-1.274-0.276-2.202-0.828-2.783
		c-0.553-0.58-1.333-0.871-2.344-0.871c-0.755,0-1.466,0.196-2.131,0.587c-0.666,0.392-1.14,0.923-1.423,1.593
		s-0.425,1.595-0.425,2.775v8.227H195.778z"/>
	<path fill="#656069" d="M221.762,24.887v-2.209c-1.17,1.699-2.761,2.549-4.772,2.549c-0.887,0-1.716-0.17-2.485-0.51
		c-0.769-0.34-1.34-0.767-1.713-1.281c-0.373-0.515-0.635-1.145-0.786-1.891c-0.104-0.5-0.156-1.293-0.156-2.379V9.849h2.549v8.34
		c0,1.331,0.052,2.228,0.156,2.69c0.161,0.67,0.5,1.197,1.02,1.579c0.519,0.383,1.161,0.574,1.926,0.574s1.482-0.196,2.152-0.587
		c0.67-0.392,1.145-0.925,1.423-1.601c0.279-0.675,0.418-1.654,0.418-2.938V9.849h2.549v15.038H221.762z"/>
	<path fill="#656069" d="M227.016,20.398l2.521-0.396c0.142,1.01,0.536,1.784,1.182,2.322c0.647,0.538,1.551,0.807,2.712,0.807
		c1.17,0,2.039-0.238,2.605-0.715c0.566-0.477,0.85-1.036,0.85-1.678c0-0.576-0.25-1.029-0.75-1.359
		c-0.349-0.227-1.218-0.515-2.605-0.864c-1.869-0.472-3.165-0.88-3.887-1.225c-0.722-0.345-1.27-0.821-1.643-1.431
		c-0.373-0.608-0.559-1.281-0.559-2.018c0-0.67,0.153-1.291,0.46-1.862c0.307-0.571,0.724-1.045,1.253-1.423
		c0.396-0.292,0.937-0.541,1.621-0.743c0.685-0.203,1.418-0.305,2.202-0.305c1.18,0,2.216,0.17,3.108,0.51
		c0.892,0.34,1.55,0.8,1.975,1.381c0.425,0.58,0.717,1.357,0.878,2.329l-2.492,0.34c-0.113-0.774-0.441-1.378-0.984-1.813
		c-0.543-0.434-1.31-0.651-2.301-0.651c-1.17,0-2.006,0.193-2.506,0.581s-0.75,0.84-0.75,1.359c0,0.331,0.104,0.628,0.312,0.892
		c0.208,0.274,0.533,0.5,0.977,0.68c0.255,0.094,1.005,0.312,2.251,0.651c1.803,0.481,3.061,0.875,3.774,1.183
		c0.712,0.307,1.272,0.752,1.678,1.338s0.609,1.312,0.609,2.181c0,0.85-0.248,1.649-0.744,2.4c-0.495,0.75-1.21,1.331-2.145,1.741
		c-0.935,0.411-1.992,0.616-3.172,0.616c-1.954,0-3.443-0.406-4.467-1.218C227.953,23.197,227.299,21.993,227.016,20.398z"/>
	<path fill="#656069" d="M243.257,24.887v-2.903h2.903v2.903H243.257z"/>
	<path fill="#656069" d="M260.405,19.378l2.506,0.326c-0.274,1.728-0.975,3.08-2.103,4.057c-1.128,0.978-2.513,1.466-4.156,1.466
		c-2.058,0-3.712-0.673-4.963-2.018c-1.25-1.346-1.876-3.273-1.876-5.785c0-1.624,0.269-3.044,0.807-4.262s1.357-2.131,2.457-2.74
		c1.1-0.608,2.296-0.913,3.59-0.913c1.633,0,2.969,0.413,4.007,1.239c1.039,0.826,1.704,1.999,1.997,3.519l-2.478,0.382
		c-0.236-1.01-0.654-1.77-1.253-2.28c-0.599-0.51-1.324-0.765-2.173-0.765c-1.284,0-2.327,0.46-3.129,1.381
		c-0.802,0.92-1.204,2.376-1.204,4.368c0,2.02,0.387,3.488,1.161,4.404s1.784,1.374,3.03,1.374c1,0,1.836-0.307,2.506-0.92
		S260.226,20.653,260.405,19.378z"/>
	<path fill="#656069" d="M264.144,17.368c0-2.785,0.774-4.848,2.322-6.188c1.293-1.114,2.87-1.671,4.729-1.671
		c2.067,0,3.757,0.677,5.069,2.032c1.312,1.354,1.968,3.226,1.968,5.614c0,1.935-0.291,3.458-0.871,4.566
		c-0.581,1.109-1.426,1.971-2.535,2.584c-1.109,0.614-2.32,0.92-3.632,0.92c-2.105,0-3.807-0.675-5.104-2.025
		C264.792,21.852,264.144,19.907,264.144,17.368z M266.763,17.368c0,1.926,0.42,3.368,1.26,4.326
		c0.84,0.958,1.897,1.438,3.172,1.438c1.265,0,2.317-0.481,3.158-1.444s1.26-2.431,1.26-4.404c0-1.86-0.422-3.269-1.268-4.227
		c-0.845-0.958-1.895-1.437-3.15-1.437c-1.274,0-2.332,0.477-3.172,1.43S266.763,15.442,266.763,17.368z"/>
	<path fill="#656069" d="M281.221,24.887V9.849h2.28v2.11c0.472-0.736,1.1-1.329,1.883-1.777c0.784-0.449,1.676-0.673,2.676-0.673
		c1.114,0,2.027,0.231,2.74,0.694c0.712,0.462,1.215,1.109,1.508,1.94c1.189-1.756,2.738-2.634,4.645-2.634
		c1.492,0,2.639,0.413,3.441,1.239c0.802,0.826,1.204,2.098,1.204,3.816v10.323h-2.535v-9.473c0-1.02-0.083-1.753-0.248-2.202
		c-0.166-0.449-0.465-0.81-0.899-1.083s-0.944-0.411-1.529-0.411c-1.057,0-1.935,0.352-2.634,1.055
		c-0.699,0.704-1.048,1.829-1.048,3.377v8.737h-2.549v-9.771c0-1.133-0.208-1.982-0.623-2.549s-1.095-0.85-2.039-0.85
		c-0.717,0-1.381,0.189-1.989,0.566c-0.609,0.377-1.05,0.93-1.324,1.657s-0.411,1.775-0.411,3.144v7.802H281.221z"/>
</g>
</svg>
