<svg xmlns="http://www.w3.org/2000/svg" width="304.976" height="34.303"><path d="M1.926 7.059V4.128h2.549v2.931H1.926zm0 17.828V9.849h2.549v15.038H1.926zm6.428 0V9.849h2.294v2.138c1.104-1.652 2.7-2.478 4.786-2.478.906 0 1.739.163 2.5.488.76.326 1.329.753 1.706 1.282s.642 1.156.793 1.883c.094.472.142 1.298.142 2.478v9.247h-2.549V15.74c0-1.039-.099-1.815-.297-2.329-.198-.515-.55-.925-1.055-1.232-.505-.307-1.097-.46-1.777-.46-1.085 0-2.022.345-2.811 1.034-.788.689-1.182 1.997-1.182 3.922v8.213h-2.55zm16.738 0V11.831H22.84V9.849h2.251v-1.6c0-1.01.09-1.761.269-2.251.246-.661.677-1.196 1.295-1.607.619-.41 1.485-.616 2.599-.616.717 0 1.51.085 2.379.255l-.382 2.223a8.49 8.49 0 00-1.501-.143c-.774 0-1.322.165-1.643.496s-.481.949-.481 1.855v1.388h2.931v1.982h-2.931v13.056h-2.534zm6.499-7.519c0-2.785.774-4.848 2.322-6.188 1.293-1.114 2.87-1.671 4.729-1.671 2.067 0 3.757.677 5.069 2.032 1.312 1.354 1.968 3.226 1.968 5.614 0 1.935-.291 3.458-.871 4.566a6.166 6.166 0 01-2.535 2.584 7.374 7.374 0 01-3.632.92c-2.105 0-3.807-.675-5.104-2.025-1.297-1.348-1.946-3.293-1.946-5.832zm2.62 0c0 1.926.42 3.368 1.26 4.326.84.958 1.897 1.438 3.172 1.438 1.265 0 2.317-.481 3.158-1.444s1.26-2.431 1.26-4.404c0-1.86-.422-3.269-1.268-4.227-.845-.958-1.895-1.437-3.15-1.437-1.274 0-2.332.477-3.172 1.43s-1.26 2.392-1.26 4.318zm28.986 5.211a7.821 7.821 0 01-2.06 1.707c-.76.429-1.522.644-2.287.644-.84 0-1.657-.246-2.45-.736s-1.437-1.246-1.933-2.266c-.495-1.02-.743-2.138-.743-3.356 0-1.501.385-3.004 1.154-4.51.769-1.506 1.725-2.636 2.867-3.392s2.251-1.133 3.328-1.133a4.64 4.64 0 012.351.645c.746.429 1.388 1.083 1.926 1.961l.481-2.195h2.535l-2.039 9.501c-.283 1.322-.425 2.053-.425 2.195 0 .255.097.474.29.659a.981.981 0 00.701.276c.5 0 1.156-.288 1.968-.864 1.076-.755 1.928-1.768 2.556-3.037.627-1.27.941-2.58.941-3.93a8.541 8.541 0 00-1.211-4.418c-.807-1.369-2.011-2.464-3.61-3.285-1.601-.821-3.368-1.232-5.303-1.232-2.209 0-4.227.517-6.053 1.55-1.827 1.034-3.243 2.516-4.248 4.446a13.24 13.24 0 00-1.508 6.209c0 2.313.502 4.305 1.508 5.976 1.005 1.671 2.459 2.905 4.361 3.703 1.902.798 4.009 1.197 6.322 1.197 2.473 0 4.545-.416 6.216-1.246s2.922-1.841 3.752-3.03h2.563c-.481.991-1.308 2.001-2.478 3.03s-2.563 1.843-4.177 2.443c-1.614.599-3.559.899-5.834.899-2.096 0-4.029-.269-5.798-.807-1.771-.538-3.278-1.348-4.524-2.429-1.246-1.081-2.186-2.324-2.818-3.731-.793-1.784-1.189-3.71-1.189-5.777 0-2.303.472-4.498 1.416-6.584 1.152-2.558 2.787-4.517 4.907-5.876 2.119-1.359 4.689-2.039 7.71-2.039 2.341 0 4.444.479 6.309 1.437 1.864.958 3.334 2.386 4.411 4.284.916 1.633 1.374 3.408 1.374 5.324 0 2.738-.963 5.168-2.889 7.292-1.718 1.907-3.597 2.86-5.636 2.86-.651 0-1.178-.099-1.579-.297a1.908 1.908 0 01-.885-.85c-.124-.236-.214-.643-.27-1.218zm-6.854-3.838c0 1.293.307 2.299.92 3.016s1.317 1.076 2.11 1.076c.529 0 1.085-.158 1.671-.474.585-.316 1.145-.786 1.678-1.409.533-.623.97-1.414 1.31-2.372.34-.958.51-1.918.51-2.881 0-1.284-.318-2.28-.956-2.988-.637-.708-1.414-1.062-2.329-1.062-.604 0-1.173.153-1.706.46-.534.307-1.05.8-1.551 1.479s-.901 1.506-1.204 2.478-.453 1.865-.453 2.677zm21.764 6.146V9.849h2.294v2.138c1.104-1.652 2.7-2.478 4.786-2.478.906 0 1.739.163 2.5.488.76.326 1.329.753 1.706 1.282s.642 1.156.793 1.883c.094.472.142 1.298.142 2.478v9.247h-2.549V15.74c0-1.039-.099-1.815-.297-2.329-.198-.515-.55-.925-1.055-1.232-.505-.307-1.097-.46-1.777-.46-1.085 0-2.022.345-2.811 1.034-.788.689-1.182 1.997-1.182 3.922v8.213h-2.55zm25.942-1.855c-.944.802-1.853 1.369-2.726 1.699a7.87 7.87 0 01-2.811.496c-1.652 0-2.922-.403-3.809-1.211-.887-.807-1.331-1.838-1.331-3.094 0-.736.167-1.409.503-2.018a4.165 4.165 0 011.316-1.466 6.2 6.2 0 011.834-.835c.5-.132 1.255-.26 2.266-.382 2.058-.246 3.573-.538 4.545-.878.009-.349.014-.571.014-.666 0-1.039-.241-1.77-.722-2.195-.651-.576-1.619-.864-2.903-.864-1.199 0-2.084.21-2.655.63-.571.42-.993 1.163-1.267 2.23l-2.492-.34c.227-1.067.6-1.928 1.119-2.584.519-.656 1.27-1.161 2.251-1.515.982-.354 2.119-.531 3.413-.531 1.284 0 2.327.151 3.129.453s1.393.682 1.77 1.14c.377.458.642 1.036.793 1.735.085.434.127 1.218.127 2.351v3.398c0 2.37.054 3.868.163 4.496.109.628.324 1.23.645 1.806h-2.662c-.265-.529-.434-1.147-.51-1.855zm-.213-5.693c-.925.377-2.313.699-4.163.963-1.048.151-1.789.321-2.223.51s-.77.465-1.005.829a2.175 2.175 0 00-.354 1.21c0 .68.257 1.246.771 1.699.515.453 1.268.68 2.259.68.982 0 1.855-.215 2.62-.644.765-.43 1.326-1.018 1.685-1.763.274-.576.411-1.425.411-2.549v-.935zm12.093 5.268l.368 2.251c-.717.151-1.359.227-1.926.227-.925 0-1.643-.146-2.152-.439s-.869-.677-1.076-1.154c-.208-.477-.312-1.48-.312-3.009v-8.652h-1.869V9.849h1.869V6.125l2.535-1.529v5.253h2.563v1.982h-2.563v8.793c0 .727.045 1.194.134 1.402.09.208.236.373.439.496s.493.184.871.184c.284 0 .657-.033 1.119-.099zm12.348 2.28v-2.209c-1.17 1.699-2.761 2.549-4.772 2.549-.887 0-1.716-.17-2.485-.51-.769-.34-1.34-.767-1.713-1.281-.373-.515-.635-1.145-.786-1.891-.104-.5-.156-1.293-.156-2.379V9.849h2.549v8.34c0 1.331.052 2.228.156 2.69.161.67.5 1.197 1.02 1.579.519.383 1.161.574 1.926.574s1.482-.196 2.152-.587c.67-.392 1.145-.925 1.423-1.601.279-.675.418-1.654.418-2.938V9.849h2.549v15.038h-2.281zm6.244 0V9.849h2.294v2.28c.585-1.067 1.125-1.77 1.622-2.11a2.828 2.828 0 011.635-.51c.859 0 1.732.274 2.62.821l-.878 2.365c-.623-.368-1.246-.552-1.869-.552-.557 0-1.057.167-1.501.503-.444.335-.76.8-.949 1.395-.283.906-.425 1.897-.425 2.974v7.873h-2.549zm19.98-4.843l2.634.326c-.416 1.539-1.185 2.733-2.308 3.583s-2.558 1.274-4.305 1.274c-2.2 0-3.944-.677-5.232-2.032-1.289-1.354-1.933-3.254-1.933-5.699 0-2.53.651-4.494 1.954-5.891s2.993-2.096 5.069-2.096c2.011 0 3.653.685 4.928 2.053s1.912 3.294 1.912 5.777c0 .151-.005.377-.014.68h-11.215c.094 1.652.562 2.917 1.402 3.795s1.888 1.317 3.144 1.317c.935 0 1.732-.246 2.393-.736s1.184-1.275 1.571-2.351zm-8.368-4.121h8.397c-.113-1.265-.434-2.214-.963-2.846-.812-.982-1.864-1.473-3.158-1.473-1.17 0-2.155.392-2.953 1.175-.797.784-1.238 1.832-1.323 3.144zm16.978 8.964l-4.602-15.038h2.634l2.393 8.68.892 3.229c.038-.161.297-1.194.779-3.101l2.393-8.808h2.62l2.251 8.723.75 2.875.864-2.903 2.577-8.694h2.478l-4.701 15.038h-2.648l-2.393-9.006-.581-2.563-3.044 11.569h-2.662zm18.181-17.828V4.128h2.549v2.931h-2.549zm0 17.828V9.849h2.549v15.038h-2.549zm11.994-2.28l.368 2.251c-.717.151-1.359.227-1.926.227-.925 0-1.643-.146-2.152-.439s-.869-.677-1.076-1.154c-.208-.477-.312-1.48-.312-3.009v-8.652h-1.869V9.849h1.869V6.125l2.535-1.529v5.253h2.563v1.982h-2.563v8.793c0 .727.045 1.194.134 1.402.09.208.236.373.439.496s.493.184.871.184c.284 0 .657-.033 1.119-.099zm2.492 2.28V4.128h2.549v7.448c1.189-1.378 2.69-2.067 4.503-2.067 1.114 0 2.082.22 2.903.658.821.439 1.409 1.046 1.763 1.82.354.774.531 1.897.531 3.37v9.53h-2.549v-9.53c0-1.274-.276-2.202-.828-2.783-.553-.58-1.333-.871-2.344-.871-.755 0-1.466.196-2.131.587-.666.392-1.14.923-1.423 1.593s-.425 1.595-.425 2.775v8.227h-2.549zm25.984 0v-2.209c-1.17 1.699-2.761 2.549-4.772 2.549-.887 0-1.716-.17-2.485-.51-.769-.34-1.34-.767-1.713-1.281-.373-.515-.635-1.145-.786-1.891-.104-.5-.156-1.293-.156-2.379V9.849h2.549v8.34c0 1.331.052 2.228.156 2.69.161.67.5 1.197 1.02 1.579.519.383 1.161.574 1.926.574s1.482-.196 2.152-.587c.67-.392 1.145-.925 1.423-1.601.279-.675.418-1.654.418-2.938V9.849h2.549v15.038h-2.281zm5.254-4.489l2.521-.396c.142 1.01.536 1.784 1.182 2.322.647.538 1.551.807 2.712.807 1.17 0 2.039-.238 2.605-.715.566-.477.85-1.036.85-1.678 0-.576-.25-1.029-.75-1.359-.349-.227-1.218-.515-2.605-.864-1.869-.472-3.165-.88-3.887-1.225-.722-.345-1.27-.821-1.643-1.431a3.784 3.784 0 01-.559-2.018c0-.67.153-1.291.46-1.862a4.129 4.129 0 011.253-1.423c.396-.292.937-.541 1.621-.743a7.71 7.71 0 012.202-.305c1.18 0 2.216.17 3.108.51.892.34 1.55.8 1.975 1.381.425.58.717 1.357.878 2.329l-2.492.34c-.113-.774-.441-1.378-.984-1.813-.543-.434-1.31-.651-2.301-.651-1.17 0-2.006.193-2.506.581s-.75.84-.75 1.359c0 .331.104.628.312.892.208.274.533.5.977.68.255.094 1.005.312 2.251.651 1.803.481 3.061.875 3.774 1.183.712.307 1.272.752 1.678 1.338s.609 1.312.609 2.181c0 .85-.248 1.649-.744 2.4-.495.75-1.21 1.331-2.145 1.741-.935.411-1.992.616-3.172.616-1.954 0-3.443-.406-4.467-1.218-1.026-.811-1.68-2.015-1.963-3.61zm16.241 4.489v-2.903h2.903v2.903h-2.903zm17.148-5.509l2.506.326c-.274 1.728-.975 3.08-2.103 4.057-1.128.978-2.513 1.466-4.156 1.466-2.058 0-3.712-.673-4.963-2.018-1.25-1.346-1.876-3.273-1.876-5.785 0-1.624.269-3.044.807-4.262s1.357-2.131 2.457-2.74a7.299 7.299 0 013.59-.913c1.633 0 2.969.413 4.007 1.239 1.039.826 1.704 1.999 1.997 3.519l-2.478.382c-.236-1.01-.654-1.77-1.253-2.28-.599-.51-1.324-.765-2.173-.765-1.284 0-2.327.46-3.129 1.381-.802.92-1.204 2.376-1.204 4.368 0 2.02.387 3.488 1.161 4.404s1.784 1.374 3.03 1.374c1 0 1.836-.307 2.506-.92s1.095-1.558 1.274-2.833zm3.739-2.01c0-2.785.774-4.848 2.322-6.188 1.293-1.114 2.87-1.671 4.729-1.671 2.067 0 3.757.677 5.069 2.032 1.312 1.354 1.968 3.226 1.968 5.614 0 1.935-.291 3.458-.871 4.566a6.166 6.166 0 01-2.535 2.584 7.374 7.374 0 01-3.632.92c-2.105 0-3.807-.675-5.104-2.025-1.298-1.348-1.946-3.293-1.946-5.832zm2.619 0c0 1.926.42 3.368 1.26 4.326.84.958 1.897 1.438 3.172 1.438 1.265 0 2.317-.481 3.158-1.444s1.26-2.431 1.26-4.404c0-1.86-.422-3.269-1.268-4.227-.845-.958-1.895-1.437-3.15-1.437-1.274 0-2.332.477-3.172 1.43s-1.26 2.392-1.26 4.318zm14.458 7.519V9.849h2.28v2.11a5.363 5.363 0 011.883-1.777c.784-.449 1.676-.673 2.676-.673 1.114 0 2.027.231 2.74.694.712.462 1.215 1.109 1.508 1.94 1.189-1.756 2.738-2.634 4.645-2.634 1.492 0 2.639.413 3.441 1.239.802.826 1.204 2.098 1.204 3.816v10.323h-2.535v-9.473c0-1.02-.083-1.753-.248-2.202-.166-.449-.465-.81-.899-1.083s-.944-.411-1.529-.411c-1.057 0-1.935.352-2.634 1.055-.699.704-1.048 1.829-1.048 3.377v8.737h-2.549v-9.771c0-1.133-.208-1.982-.623-2.549s-1.095-.85-2.039-.85c-.717 0-1.381.189-1.989.566-.609.377-1.05.93-1.324 1.657s-.411 1.775-.411 3.144v7.802h-2.549z" fill="#656069"/></svg>