<svg xmlns="http://www.w3.org/2000/svg" viewBox="0 0 1920 368"><path d="M864.3 171.4c-2.9 0-2.5-.9.7-1.7 1.6-.4 2.5-.2 2 .5-.6.7-1.6 1.2-2.7 1.2zm232.2-33.7c1.7.1 3.4-.4 4.7-1.5.6-.9-.4-1.1-3.1-.4-5.5 1.4-5.9 2-1.6 1.9zm91.4-17.6c0 .7.9 1.4 2 1.3 1.1 0 2.2-.5 2.9-1.4.5-.7-.4-1.3-2-1.3s-2.9.6-2.9 1.4zM852 172.8c1.6-.2 2-.3.8-.8-.9-.3-1.9-.2-2.7.4-.4.3.4.6 1.9.4zm257.5-38.2c1.6-.2 2-.3.8-.8-.9-.3-1.9-.2-2.7.4-.4.3.4.6 1.9.4zm-370.4 49.9c-1.9 0-3.5.5-3.5 1.2s1.6.8 3.5.4c1.9-.3 3.5-.9 3.5-1.2 0-.3-1.6-.4-3.5-.4zm377.2-51.3c2.1-.2 4.2-.6 6.3-1.2l3.5-1.1h-3.5c-2.1.1-4.2.5-6.2 1.2-2.9 1.2-2.9 1.2-.1 1.1zm-319 29.1c.6-.1.7-.7.3-1.3-1.1-1.7-7.7-1.6-7.7.1.1.7-1.7 1.5-3.8 1.9-2.1.3-.7.4 3.2 0l8-.7zM729.4 187c3-.1 4.1-.6 2.4-.7-1.8-.3-3.7-.2-5.5.1-1.4.4 0 .6 3.1.6zm419.6-58.2c0 .4.2.7.4.9.3.2.6.4 1 .3.8-.1 1.1-.6.6-1.3s-1.1-1.3-1.5-1.3c-.2.1-.5.6-.5 1.4zm6-2.8c.1 1.5.6 2.7 1.1 2.6 1.6-.2 2.5-1.7 1.8-3.4-1.2-2.8-3.2-2.2-2.9.8zm9.5-29.8l-8.4 1.8c-2.5.4-4.7 1.4-4.7 1.9s3.1.3 6.8-.5c3.6-.7 7.4-1.5 8.4-1.5.8 0 1.6-.6 1.7-1.4-.1-.7-1.7-.8-3.8-.3zm-404.3 88.2c.8.5 1.8.3 2.5-.3 1.7-1 3.7-1.6 5.7-1.9 4-.6 4-.6-.7-.7-4.7-.2-9.1 1.5-7.5 2.9zm433.3-69.1c0-.3-1.2-.5-2.8-.4-1.5 0-2.8.4-2.8 1.3s1.2.8 2.8.4c1.6-.3 2.8-1.1 2.8-1.3zm-57.7 13.6c1.9-.1 3.8-.5 5.6-1.2 2.8-1.2 2.8-1.2-.2-1.1-1.9.1-3.8.5-5.6 1.2-2.6 1.1-2.6 1.1.2 1.1zm-8.5 4.3c.3 0 .9-.9 1.3-2s.2-2-.6-2-1.3.9-1.3 2 .3 2 .6 2zm18.7-7.9c-1.1.4-.3.7 1.8.6 1.9-.3 2.7-.4 1.7-.7-1.2-.3-2.4-.3-3.5.1zm-17.2-18.5c1.6-.2 2-.3.8-.8-.9-.3-1.9-.2-2.6.4-.5.2.3.5 1.8.4zm7-1.5c1.6-.2 2-.3.8-.8-.9-.3-1.9-.2-2.7.4-.4.2.4.5 1.9.4zm-378.2 46.9c-1.5.4-2.8 1-2.8 1.3 0 .3 1.4.4 2.8.4 1.5-.2 2.8-.4 2.8-1.2-.1-.9-1.3-.9-2.8-.5zm-275 62.9c-.9-.3-1.9-.2-2.7.4-.5.2.4.5 1.8.4 1.7-.2 2.1-.3.9-.8zm17.3-21.9c-1.7.2-3.3.7-4.7 1.5-2.2 1.2-2.2 1.4-.2 1.3 1.3-.2 11.3-1.6 22.2-3.6s25.5-4.4 32.4-5.3c6.9-1 17.6-2.7 23.6-3.9 12.9-2.5 20.4-3.6 64.7-9.7 46-6.5 55-7.7 66.1-8.9 7.6-1.1 9.6-1.6 10.2-3.5.6-1.8-.3-2.3-1.7-2.3-1.4.1-1.9.8-1.3 2 .5 1.2.3 2-.7 2-.4 0-.8-.2-1.1-.5-.2-.3-.3-.7-.2-1.1.3-1.2-2.2-1.5-10-1-12 .8-17.8 2.2-17.2 4.3.5 2.1-2 2-3.2.1-.7-1-4-1.1-10.9-.2L654 166c-18.6 2-56.8 7.6-93.2 13.7l-36.2 5.9c-8.4 1.1-16.8 2.7-25 4.8-2.8.8-2.8.8.2 1.7 3 .9 2.7.9.1 1.1zm268.4-40.3c-1.1-1.1-2.7-1.7-4.4-1.6-1.8.4-1.7.8-.4 2.1 1.2 1 2.8 1.5 4.4 1.6 2.4-.1 2.4-.3.4-2.1zm-87.6 39.3c-2.5.7-.3.8 5.6.2 3.5-.2 6.9-.7 10.3-1.5 1.1-.8-11.7.2-15.9 1.3zm-357 43.4c.3-4.1-1.3-8.2-4.5-11.1-8.1-8.9-12.4-6-7.5 5 5.8 13.1 12.1 16.1 12 6.1zM1920 12.5c-5 .4-10 1.4-14.7 3-9.2 2.4-23 5.6-30.6 7.2-7.6 1.6-23.5 5.5-35.4 8.6-19.7 5.6-39.7 9.9-59.9 13.1-7 .2-4.5-2.1 6-5.1l18.4-5.4c12-3.5 6.2-3.8-8.5-.4l-29.1 6.6c-9.2 2-17.6 4.1-18.8 4.5-8 .7-8.5.9-7.2 1.8 1.3.8 1.2 1.3-1 1.9-2.2.6-3.1.1-3.4-.7-4.5 2.3-6 2.8-7.7 1.9-1.7-.9-2.8-1-3.1-.6-2.2.8-4.5 1.2-6.8 1.4-11.7 1.6-21.2 4-19.5 5 2.8 1.6-2.2 2.8-8.1 2.1-3.8-.5-5.7-.1-7 1.5-.8 1.1-2 1.8-3.4 2.1-.9.1-.6-.6.5-1.3 2.9-1.9.8-1.6-11.1 1.6-5.7 1.5-9.2 2.8-7.6 2.8-12.2 4.6-25.5 9-27.6 9.9-2.1-.3-1.4-1.2-1.4-2.3 0-1.1-.8-1.9-1.9-2-1 2.1-1.2 3.2-1.8 4-1.3-2.3-1.9-2.6-2.7-2.6-.7 0-1.4.8-1.4 1.7s-2.7 2.5-5.9 3.4c-7.2 2.1-21.8 3.1-22.3 1.7-5.7.9-5.7.9-2.8 1.8 2.9.9 2.4 1-.4 1.1-1.5.2-2.9-.3-4-1.3-.6-.9-1.9-.4-3.6 1.4h-2.6c.5-.4.9-.8.9-1.1 0-.3-.6-.6-1.4-.5-.8.1-1.4.7-1.4 1.4v.3c-1.3.1-1.6.5-2.2 1.3-1 1.4-3.6 1.7-8.3 1.6-2.6-.2-5.2-.1-7.8.4-2.3.5-4.6.7-7 .5-3.5-.1-6.3.2-6.3.9s-2.5 1.1-5.6 1.3c-3.4.2-6.8.8-10.1 1.7-4.2 1.2-8.5 2.1-12.8 2.9-4.8.7-11.7 2.2-15.8 3.1-5.6 1.3-7.9 1.1-9.4.1-1.9.7-2.1 1.1-2.5 1.3-2.1-.2-2.9-1.9-2.9-3.6 0-1.8-.8-3-1.8-2.8-1 .2-1.7-.2-1.8-1-.1-.7 1.3-1.3 2.9-1.4 1.6 0 2.7-.7 2.1-2.1 3.6.1 5.3.4 7.1.2-2.2-.7-3.7-1.3-4.8-2.3 2.4-.4 4.3-.9 5.9-1.9 2.6-1.2 5.6-1.7 8.5-1.2 2.8.5 5.7 0 8.1-1.5 1.8-1.3 4.2-1.9 6.4-1.5 2.4.6 2.8.4 2.1-1.3-.7-1.6 0-2.1 3.3-2.2 2.2 0 4.4-.7 6.1-1.9 2.3-1.3 4.9-1.9 7.6-1.6 5.7-1.3 6.6-2 7.8-2 1.1-.1 2 .6 2.1 1.6 2.3-1.2 4.1-1.6 5.8-1.4 7.1-1.4 10-1.7 12.8-1.5 2.9.2 5.8-.2 8.5-1.2 1.9-1 4.1-1.4 6.3-1.2 2.8 0 5.6-.5 8.3-1.5 2.7 1.4 2.9 1.5 4.4.2 1.7-1.1 3.8-1.7 5.9-1.7 4.6-.5 9.2-1.5 13.7-2.9 5.2-1.5 16.1-4.1 24.4-5.8 8.2-1.7 19.9-4.3 26-5.8 6.1-1.5 15.1-3.5 19.9-4.5 3.3-.5 6.5-1.4 9.4-2.9 1.1-1.8-12.7-1-24.4 1.3l-25.4 5.1c-19.5 3.9-43.3 7.5-44.6 6.7-1.3-.8-1.2-4.2 1.3-4.8 1.4-.2 4.8-1.2 8-1.8 2.8-.4 5.4-1.5 7.6-3.1 1.9-1.8 1.4-1.9-4.1-1-2.4.3-4.8.9-6.9 2-15.1 2.2-25.3 4.3-35.2 7.5-2.1-1.3-2.6-1.4-4.5-.6-5.5 2.3-16 1.6-12.1-.8.7-.4 14.3-3.5 29.7-6.9 29.7-6.3 36.4-7.6 51.3-10.1 4.8-.7 13.4-2.4 18.8-3.6 5.4-1.1 12.6-2.5 16-3 18.9-2.7 49.6-8.7 50.8-9.9 1.2-1.2-5.9-.9-32 3.4l-38.2 6.2c-17.9 2.8-39.7 6.5-85.6 14.3-14.4 2.5-17.5 3.5-22.2 7.8-3.1 2.7-16 5.2-16 3.1.2-.9.8-1.7 1.7-2.1-3.4.9-3.7 1.6-3.6 2.3.2 1.4-.8 2.2-2.5 2.3-2 .2-3.9.7-5.6 1.6-4.7-1.2-5.1-1.3-5.5.2s-3 1.9-6.1 2.3c-9.1 1-14.5 2.3-15.4 3.5-5.1 1.3-6.7 1.9-8 3.1-1.7 1.5-3.6 2.9-5.5 4.1-3.6 2.3-3.7 2.3-4.6-.3-2.8 3.1-3.6 3.5-11.8 5-4.9.8-9.6 2.2-14.2 3.9-3.6 1.4-7.4 2.2-11.2 2.2-2.5-.2-5.1.1-7.5.8-2.7.9-5.4 1.5-8.3 1.8-5 .8-10 2-14.9 3.6-2.8 1.2-5.8 1.9-8.8 2.1-.3-.3 1.9-1.4 5-2.3 3.1-.9 5.3-2.2 4.9-2.9-4.9.2-6.1.1-6.1-1.5 0-1.1-1-2-2.2-2-1.2.2-1.8-.5-1.3-1.3s-.2-1.3-1.3-1.3-2.1 1.2-2.1 2.7c.4.6 1.2 1 2 1 1.1-.2 2.1.5 2.1 1.1 0 1.9-3.4 4.1-6.3 4-3 .3-6.1.8-9 1.7-4.7 1.2-9.6 2-14.4 2.6-7.6.8-8 .7-8-2.1v-2.9l-2.6 3.1c-2.1 2.5-3 2.8-4.7 1.5-1.7-1.3-3-1.2-6.8.4-2.8 1.2-3.7 2-2.2 2 3.6 0 1.7 2.2-2.8 3.3-12.7 3.1-14 3.3-13.3 1.5.3-.9 1.1-1.6 2.1-1.8.7-.1 1-.6.5-1.3-6.5 1.3-7.2 2.2-6 2.9 2.2 1.3 1.4 1.9-4 3-3.6.5-4.3.6-3.7-1.1.6-1.7-.8-1.9-7.4-1.9-4.5 0-7.4-.3-6.4-.6 3.8-1.5 1.5-3.2-3.3-2.4-6.7.9-8.4 2.3-5.5 3.7 2.9 1.4 1.8 3.1-3.5 3.1-3.1 0-4.5-.5-4.2-1.8.3-1.2-.6-1.5-3.5-.8-1.7.3-3.3 1-4.6 2-2.1 2-5.3 2.6-8 1.4-3.1 3.3-6.5 4.2-17.4 4.7-5.1.2-10.2 1.2-15 2.9-2.6 1.2-5.4 2-8.3 2.6-3.5.1-7 4-6.2 6.8.2 1.4 1.2 2.5 1.9 2.5.6 0 .9-.9.4-1.9-.3-.7 1.8-.3 6.2 1.1l-4.4 1.9c-6.2 2.2-12.6 3.5-19.1 4-5.8 1-8.1 1.4-10.5 1.5l-7 .5 5.6-1.8c3.1-1 6.3-1.7 9.6-2 1.8.1 3.5-.7 4.6-2.1.4-1.1 1.3-1.7 2.1-1.3.7.5.9 1.5.3 2.2 1.5-.2 1.8-1.3 1.3-2.3-.5-1.2 0-1.9 1.4-2 1.4-.1 1.9-.8 1.4-2-1.5-3.6-6.1-2.2-6.9 2.1s-3.8 5.2-5.1 2.2c-.6-1.4-2.2-1.6-6.1-1-5.7.8-9.2 2.9-8.1 4.5 1.1 1.7-7.8 2.4-9.8.6-7.6 2.5-16.8 4.6-36.4 7.4-19.6 2.8-33.2 5.6-34 6.9-1.8-1-5.4-.8-14.2.8-6.7 1.2-15.5 2.5-19.3 2.7-3.9.2-12.3 1.4-18.4 2.3s-16.8 2.4-23.7 3.3c-23 3.2-24.2 3.4-24.3 4.5-.2 1.1 1.8 1.2 3.8 1.2l.4 1.4c-2.4.9-5 1.2-7.6 1.1-4.2-.4-4.2-.4-.8-1.8 6.5-2.8.6-2.8-18.7 0-10.7 1.5-22.6 3.2-26.5 3.2-9.4.5-88.3 10.7-89.8 11.7-.7.7-.9 1.7-.4 2.6 1.1 2.7-.7 5.1-2.8 3.5-3.8-.9-7.8-1.2-11.7-.7-6.1.4-9.8.1-10-.7s-4.2-.9-12.2-.1l-13.9 1.4c-1 .1-1.8.9-1.8 1.9-5.3 0-8-.5-10.8-.4 2 1.7 1.8 2.2.7 3.1-3.2 1.8-7 2.3-10.5 1.5-1.9-.6-1.9-.9-.3-2 1.6-1.1-1.2-1.1-8.8-.3-9.7.9-20.3 3.4-15 3.5 2 0 .9 1.9-1.4 2.2-3.9.9-6.1 1.2-8.4 1.4-4.8.7-7.1.2-8.6-1.2-2.5-2.3-8.7-2.5-10.1-.3 2-.3 2.4 0 2 1.1-1 2.8-8 4.1-18.2 3.4-6.6-.5-9.4-.2-9.4.9 0 .8-.7 1.5-1.5 1.5-.8.1-1.2-.9-.8-2 .4-1.1-.3-1.9-3-1.8 2 1.6 1.7 3-2.4 5.2-5.3 2.8-3.8 5.2 2.9 4.2.8-.1.1.7-1.1 1.6-1.2.8-2.1 2-2.4 3.4.2 1.4-2.3 2.1-6.7 2-.6 1.1-1.9 2.2-3.9 3.2-3.5-.2-4.2-.8-5-.8-.8-.1-.1-.9 2.3-1.8 3.9-1.7 4-1.8 1-2.6-2.2-.6-2.9-1.5-2.3-3.3.9-2.7-4.1-6.2-5.5-3.9-7 .3-8.9.7-8.7 1.2.2 1.6-1.9 5.5-3.2 5.6-1.3 0-1.2-1.1-1.2-2.5 0-2.9-2.3-4.7-3.1-2.4-5.6-.9-7-.8-9.6 1.4-6.7-1.7-9.1-1.9-10 .4-4.8 1.1-5.6 1-6.1.5s-.2-1.5 1.1-2.1c1.3-.7 1.6-1.3-.2-1.3-1.2-.1-2.2.6-2.4 1.7.1.9-1.7 1.9-3.8 2-2.9.4-3.3.1-1.8-1 1.6-1 .7-1.3-3.5-1.2-4.1.1-4.9.4-3.5 1.3s1.6 1.6-1 3.9c-3.3-1.2-3.9-1.3-7.7-.5-6.9 1.6-8.4 1.5-9-.2 3-.4 3.8-.8 3.8-1.7 0-.9-1.2-1.3-3.5-.7-2.3.6-6.3 1.3-9.8 1.8s-5.7 1.4-4.7 1.9c-10.2 0-11.4.2-11.3 2 .1 1.8-2.5 2.8-5.9 2.4-.5.1-1 .8-1 1.9 0 1.1-1.4 2-9.1 1.3-5.7-.4-9.1-.1-9.1.8 0 .8-3.3 1.2-8.3 1.2-2.8-.4-5.7-.2-8.4.7-12.6-.6-24-.7-22.2.3-10.2.4-17.2 1-24.1 2.2-8.6 1.2-18.7 2.6-22.5 3.2-6.3.9-6.6.9-4.5 3.2 3 3.1 1.4 6.4-3.8 7.9-5.3 1.5-7.9.8-6.9-1.8.5-1.3 1.9-1.7 4-1.3 3.7.8 5.2-1.8 2.5-4.2-2.7-2.5-19.7-.3-22.4 2.2-1.9 1.1-4.1 1.5-6.3 1.2-5.5 0-11 .4-16.4 1.3-17.1 2.4-17.2 2.4-19.5 1.2-2.3-1.2-16.1.3-14.5 1.7 1.6 1.4-9.9 4.4-14.9 4.5-2.2.1-3.6-.4-3.2-1.1.4-.7-1.8-1.1-14.7.8-4.4.6-7.7 1.5-7.5 2 .3.5-1 1.9-2.8 3.3-3.8 2.8-4.7 1.9-1-1.4 2.2-2.1 1.7-2.3-6.6-3.1-6-.6-9.1-.4-9.4.5-2.6.2-5.2 1.7-7.7 3.9-4.3 4.2-8.7 5.9-11.6 4-3.5-.5-7-.3-10.5.5l-27.1 5.2c-23.7 4-22.7 3.8-84.9 16.1-15.7 3.1-21.4 4.2-23.4 4.4-.6.1-.9.5-.5 1.1.4.6-1.9.9-5.2 1.4-9.1.6-48.1 11.4-49.1 13.4-3.5 0-4.3.3-4.1 1.3.2 1-.5 2-1.5 2.3-1.3.5-1.5.2-.9-.9 1.2-2-3.9-1.1-16.7 2.9l-20.6 6.4c-6.8 2.1-15.6 5.3-19.7 7-7.5 3.3-17.8 11.8-15.3 12.3 6.1-1.1 12.1-2.6 18-4.5 10.7-3.1 17.2-4.5 18-3.6 2 1.9-.3 3.3-8.1 5.3-13.8 4.1-27.1 9.3-40 15.5-4.6 2.2-11.3 5.3-15.3 6.8-3.3 1.3-6.4 3-9.2 5v26.3h1920V12.5zM657.4 194.6c-1.8.2 0 .4 3.8.3 3.8-.1 5.2-.4 3.1-.4-2.2-.3-4.6-.3-6.9.1zM436.3 201c1.9-.3 2.7-.4 1.7-.7-1.1-.3-2.4-.3-3.5.1-.9.3-.1.6 1.8.6zM388 231.5c-.9-.3-1.9-.2-2.7.4-.5.2.4.5 1.8.4 1.7-.2 2.1-.3.9-.8zm320.2-43c-.5.2.4.5 1.8.4 1.6-.2 2-.3.8-.8-.8-.3-1.8-.2-2.6.4zm24.5-31.5c1.1-.7 1.4-1.3.7-1.3-1.2.2-2.4.7-3.5 1.4-1.4.7-1.3 1.2-.7 1.3 1.3-.2 2.5-.7 3.5-1.4zm-4.1 14.5c9.2-.5 18.3-2.1 27.1-4.7.9-.8-.1-.9-2.1-.5s-7.8 1.1-13.1 1.8c-10.3 1.2-18.3 3.3-11.9 3.4zm18.8-16.3c2.3-.1 3-.4 1.7-.7-1.4-.3-2.8-.3-4.2.1-1 .4.2.6 2.5.6zm10.4 10.9c0 .7 2.4.8 5.3.3 3-.5 6-.9 9.1-1 2.1-.1 3.8-.5 3.8-1.3s-3-.9-6.6-.5l-9.1 1c-1.4.2-2.5.9-2.5 1.5zm-36.2-4.9c2.5-1.6.3-1.6-3.5.1-1.8.8-2.1 1.2-.7 1.2 1.5-.1 3-.6 4.2-1.3zm-96 38.3c-.7.8 1 .9 4 .5 4.8-.7 4.8-.7 1.2-1.2-1.8-.4-3.6-.1-5.2.7zm-54.8 8.1c-.5.7-.3 1.3.5 1.3.9-.1 1.8-.6 2.3-1.3.5-.7.2-1.3-.5-1.3-1 .1-1.8.6-2.3 1.3zm-8.7.9c-.4.2.4.6 1.8.4 1.6-.2 2-.3.8-.8-.9-.3-1.9-.1-2.6.4zm-10.1 1.1c-3.7.1-7.4.5-11.1 1.2-4.6.8-5.2 1.2-2.1 1.1 3.7-.2 7.4-.6 11.1-1.2 5.7-.8 6.1-1.2 2.1-1.1zm615.9-87.9c1.6-.2 2-.3.8-.8-.9-.3-1.9-.2-2.7.4-.4.2.4.6 1.9.4zM1574.4 4.3c2.3 0 4.2-.6 4.2-1.6s.9-1.1 2.1-.8 2.1.1 2.1-.7c0-.8-1.6-1.1-4.4-.5-2.1.4-4.2.7-6.3.9-1 .1-1.9.6-1.9 1.3 0 .8 2 1.7 4.2 1.4zm-5.5.3c0-.7-1-1.3-2.1-1.2-1.1 0-2.1.3-2.1.6s1 .8 2.1 1.2c1.2.3 2.1 0 2.1-.6zm72.6 34c-1.8 1.1-1.7 1.3.3 1.3 1.2 0 2.4-.5 3.2-1.4 1.1-1.7-.8-1.6-3.5.1zm-168.2 20.3c1.9-.3 2.7-.4 1.7-.7-1.1-.3-2.4-.3-3.5.1s-.3.6 1.8.6zm59.3-46.9c1.2-.1 1.7-.2 1.2-.8-.5-.5-2.1-.2-3.8.5s-2.6 1.4-2 2c1.4.7 3 .9 4.6.7 3.2-.1 3.3-.5.8-1.2-1.6-.6-1.9-1.1-.8-1.2zm-57.4 15.6c1.6-.2 2-.3.8-.8-.9-.3-1.9-.2-2.7.4-.5 0 .5.5 1.9.4zm164.4 39.9c-.5.8-.2 1.4.5 1.3.9-.1 1.8-.6 2.3-1.4.5-.7.2-1.3-.5-1.3-1 .1-1.8.6-2.3 1.4zm-81.9-59.6c-1.6.6-1.5.7.2.7 1.8 0 3.6-.3 5.4-.8 4-1.1 1.3-3.1-4-3-2.5.1-2.9.4-1.6 1.1s1.6 1.4 0 2zm-18.4 4.7c.2-.3.4-.6.4-1-.1-.8 1.2-1 2.8-.4s2.8.2 2.8-.7 1.1-1.2 2.6-.7c1.5.4 2.9 0 3.3-1.1.4-1.1-.2-1.6-5-.6-3.2.5-6.2 1.2-6.7 1.3-1.5.1-2.6 3.8-1.2 3.7.4 0 .8-.2 1-.5zm112.8 51.6c-1.1.4-2.1 1-2.1 1.3 0 .3 1 .5 2.1.5 1.1-.2 2.1-.6 2.1-1.3 0-.7-1-1-2.1-.5zM1501 88.7c-.7 0-1.3.6-1.3 1.3 0 .7 1 1.3 2.2 1.3 1.2-.2 1.8-.6 1.3-1.3-.5-.7-1.3-1.2-2.2-1.3zm7.2-8.6c-.7-.4-1.6.2-2 1.3s.1 2.1 1.3 2c2.1-.1 2.6-2.2.7-3.3zm240.6-68.2c-.9-.3-1.9-.2-2.6.4-.5.3.3.4 1.8.4 1.6-.3 2-.3.8-.8zM0 330.8c5.6-1.4 29.8-14.1 27.3-14.6-2.6-.5-10.9 1.9-21.5 7.1-2.4 1.1-4.3 2.2-5.8 3.3v4.2zM1520.6 86.4c-.8.5-1.4 1.1-1.4 1.4 0 .3.7.6 1.4.5.8-.1 1.4-.7 1.4-1.4-.1-.7-.7-1-1.4-.5zm25.4-13.6c-.6.2.3.4 1.8.4 1.6-.2 2-.3.8-.8-.8-.3-1.8-.1-2.6.4zm57.1 2.8c-.5.2.3.5 1.8.4 1.6-.2 2-.3.9-.8-.9-.3-1.9-.2-2.7.4zm-89.4 12.9c0 .7.9.9 2.1.4 1.2-.4 2.1-1 2.1-1.3 0-.3-1-.5-2.1-.4s-2.1.6-2.1 1.3zm99.4-25c-2.3.3-8.3 1.2-13.2 1.9-19.6 3.1-51.2 10.3-44.3 10.4 4.2-.4 8.4-1.1 12.5-2l26.8-5.3c6.6-1.1 13.1-2.6 19.5-4.5 2.3-1.1 2-1.2-1.3-.5zm-355.6 36.9c.1.8.6 1 1.4.5.8-.5 1.4-1.1 1.4-1.4 0-.3-.6-.6-1.4-.5-.8 0-1.4.6-1.4 1.4zm213-72.3c-1.1-.3-2.4-.3-3.5.1-.9.4-.2.6 1.8.6 1.9-.3 2.7-.4 1.7-.7zm-187.6 65.8c-.5.2.4.6 1.8.4 1.6-.2 2-.3.8-.8-.9-.2-1.9-.1-2.6.4zm-85.8-4.5c-9.3.7-18.5 2.6-27.4 5.5-.2.3 1.4.6 3.6.5 6.7-.3 26.3-5.2 23.8-6zm55.8 11c-1.7-.1-3.4.4-4.7 1.5-.3.9.7 1 3.3.4 5.3-1.4 5.8-2 1.4-1.9zm43.9-9.4c-.5.2.3.5 1.8.4 1.6-.2 2-.3.8-.8-.8-.2-1.8-.1-2.6.4zm64.1-13.5c-2.8-.1-5.7.3-8.4 1.2-2 1.2-1.5 1.3 2.1.7 4.3-.6 4.5-.6 2.8 1.5-1.1 1.3-1.2 1.8-.4 1.3 1.9-.5 4-.4 5.8.2 3.3.8 4.5.6 4.8-.7.4-1.3-.3-1.9-3.8-1.9-4.2-.1-4.3-.1-1-1.2 3.5-1.2 2.9-1.2-1.9-1.1zm-155.1 9.9c-.2-1.7-.3-1.9-2.1-.4-.9.6-1.6 1.4-2.1 2.2 0 .2 1 .4 2.1.4 1.3-.1 2.2-1.1 2.1-2.2zm128.9-4.4c-2.1.9-1.6 1.1 2.4.7 2.1-.1 4.2-.5 6.2-1.4 1.3-1.3-5.3-.7-8.6.7zm12.4-30.7c-4 1.2-8.1 2-12.3 2.6-4.4.6-8 1.6-8 2.2 0 .6-.9.8-1.9.3-8.1.9-16.1 2.4-24 4.5-73.3 17-88.2 20.6-88.1 21.3.5.7 1.1 1.3 1.8 1.8 1.3 1 6.3.3 18.4-2.6l26.4-6.3c25.1-5.8 46.6-11.7 45.6-12.6-1-.8-.1-.6 1.2-.2 8-.7 15.9-2.2 23.6-4.3 11.7-2.8 23.2-5.3 25.5-5.6l4.2-.6-4-1c-2.8-.6-5.7-.4-8.4.5zm-70.5 42.8c-.9.4-.1.7 1.8.6 1.9-.3 2.7-.4 1.7-.7-1.2-.3-2.4-.3-3.5.1zm133.7-53.4s-1.2-.8-2.8-1.1c-1.6-.3-2.8-.1-2.8.4s1.3 1 2.8 1.1c1.5-.2 2.8-.4 2.8-.4zm14.5 31.5c2.1 0 3.8-.5 3.8-1.4-.2-1.6-2.9-1.6-5.5.1-1.7 1.1-1.3 1.4 1.7 1.3zm-191 32.6c1.9-.2 3.7-.6 5.5-1.2 2.8-.9 2.9-1.1.7-1.1-1.9.1-3.8.5-5.5 1.2-1.7.7-2 1.2-.7 1.1zm222.6-35.9c0-.7-1-1.3-2.1-1.3-1.2 0-2.1.6-2.1 1.4 0 .7 1 1.3 2.1 1.3 1.2-.1 2.1-.7 2.1-1.4zm-39.1-31.5c0-1.2-.6-1.7-1.4-1.2-.8.5-1.3 1.2-1.4 2.1 0 .7.7 1.2 1.4 1.2.7-.1 1.4-.9 1.4-2.1zm-44.5 38.5c2.5-.1 4.1.4 3.7 1.1-.4.7.3 1.9 1.4 2.8 1.1.9 2.6 1.2 4.8-.7 1.4-1.1 2.4-2.6 2.7-4.3-.2-1.1.8-1.6 2-1.2 1 .4 2.2.1 3-.7.6-1-.8-1.1-4.5-.5-3.7.7-7.9 1.1-10.9 1.5-6.8 1-8.2 2.1-2.2 2zM1215.7 109c-.8.1-1.4.2-1.4.6 0 .4.6.8 1.4 1.4.8.5 1.4.2 1.4-.6 0-.4-.1-.7-.4-1-.2-.2-.6-.4-1-.4zm166.2-62.2c-.5-.4-1.5.2-2.5 1-.9.7-1.1 1.4.8.7 1.3-.6 2.1-1.3 1.7-1.7zm5.4-.4c2.7-.1 2.6-.4-.4-1.3-3-1-5.1-.9-3.4.6 1.1.5 2.4.8 3.8.7z" fill="#fff"/></svg>