<?xml version="1.0" encoding="utf-8"?>
<!-- Generator: Adobe Illustrator 21.1.0, SVG Export Plug-In . SVG Version: 6.00 Build 0)  -->
<svg version="1.1" id="Layer_1" xmlns="http://www.w3.org/2000/svg" xmlns:xlink="http://www.w3.org/1999/xlink" x="0px" y="0px"
	 viewBox="0 0 1920 368" style="enable-background:new 0 0 1920 368;" xml:space="preserve">
<style type="text/css">
	.st0{fill:#FFFFFF;}
</style>
<title>Combined Shape</title>
<desc>Created with Sketch.</desc>
<path class="st0" d="M864.3,171.4c-2.9,0-2.5-0.9,0.7-1.7c1.6-0.4,2.5-0.2,2,0.5C866.4,170.9,865.4,171.4,864.3,171.4z
	 M1096.5,137.7c1.7,0.1,3.4-0.4,4.7-1.5c0.6-0.9-0.4-1.1-3.1-0.4C1092.6,137.2,1092.2,137.8,1096.5,137.7z M1187.9,120.1
	c0,0.7,0.9,1.4,2,1.3c1.1,0,2.2-0.5,2.9-1.4c0.5-0.7-0.4-1.3-2-1.3C1189.2,118.7,1187.9,119.3,1187.9,120.1z M852,172.8
	c1.6-0.2,2-0.3,0.8-0.8c-0.9-0.3-1.9-0.2-2.7,0.4C849.7,172.7,850.5,173,852,172.8z M1109.5,134.6c1.6-0.2,2-0.3,0.8-0.8
	c-0.9-0.3-1.9-0.2-2.7,0.4C1107.2,134.5,1108,134.8,1109.5,134.6z M739.1,184.5c-1.9,0-3.5,0.5-3.5,1.2c0,0.7,1.6,0.8,3.5,0.4
	c1.9-0.3,3.5-0.9,3.5-1.2C742.6,184.6,741,184.5,739.1,184.5z M1116.3,133.2c2.1-0.2,4.2-0.6,6.3-1.2l3.5-1.1l-3.5,0
	c-2.1,0.1-4.2,0.5-6.2,1.2C1113.5,133.3,1113.5,133.3,1116.3,133.2z M797.3,162.3c0.6-0.1,0.7-0.7,0.3-1.3c-1.1-1.7-7.7-1.6-7.7,0.1
	c0.1,0.7-1.7,1.5-3.8,1.9c-2.1,0.3-0.7,0.4,3.2,0L797.3,162.3z M729.4,187c3-0.1,4.1-0.6,2.4-0.7c-1.8-0.3-3.7-0.2-5.5,0.1
	C724.9,186.8,726.3,187,729.4,187z M1149,128.8c0,0.4,0.2,0.7,0.4,0.9c0.3,0.2,0.6,0.4,1,0.3c0.8-0.1,1.1-0.6,0.6-1.3
	s-1.1-1.3-1.5-1.3C1149.3,127.5,1149,128,1149,128.8z M1155,126c0.1,1.5,0.6,2.7,1.1,2.6c1.6-0.2,2.5-1.7,1.8-3.4
	C1156.7,122.4,1154.7,123,1155,126z M1164.5,96.2l-8.4,1.8c-2.5,0.4-4.7,1.4-4.7,1.9s3.1,0.3,6.8-0.5c3.6-0.7,7.4-1.5,8.4-1.5
	c0.8,0,1.6-0.6,1.7-1.4C1168.2,95.8,1166.6,95.7,1164.5,96.2z M760.2,184.4c0.8,0.5,1.8,0.3,2.5-0.3c1.7-1,3.7-1.6,5.7-1.9
	c4-0.6,4-0.6-0.7-0.7C763,181.3,758.6,183,760.2,184.4z M1193.5,115.3c0-0.3-1.2-0.5-2.8-0.4c-1.5,0-2.8,0.4-2.8,1.3
	c0,0.9,1.2,0.8,2.8,0.4C1192.3,116.3,1193.5,115.5,1193.5,115.3z M1135.8,128.9c1.9-0.1,3.8-0.5,5.6-1.2c2.8-1.2,2.8-1.2-0.2-1.1
	c-1.9,0.1-3.8,0.5-5.6,1.2C1133,128.9,1133,128.9,1135.8,128.9z M1127.3,133.2c0.3,0,0.9-0.9,1.3-2c0.4-1.1,0.2-2-0.6-2
	s-1.3,0.9-1.3,2C1126.7,132.3,1127,133.2,1127.3,133.2z M1146,125.3c-1.1,0.4-0.3,0.7,1.8,0.6c1.9-0.3,2.7-0.4,1.7-0.7
	C1148.3,124.9,1147.1,124.9,1146,125.3z M1128.8,106.8c1.6-0.2,2-0.3,0.8-0.8c-0.9-0.3-1.9-0.2-2.6,0.4
	C1126.5,106.6,1127.3,106.9,1128.8,106.8z M1135.8,105.3c1.6-0.2,2-0.3,0.8-0.8c-0.9-0.3-1.9-0.2-2.7,0.4
	C1133.5,105.1,1134.3,105.4,1135.8,105.3z M757.6,152.2c-1.5,0.4-2.8,1-2.8,1.3c0,0.3,1.4,0.4,2.8,0.4c1.5-0.2,2.8-0.4,2.8-1.2
	C760.3,151.8,759.1,151.8,757.6,152.2z M482.6,215.1c-0.9-0.3-1.9-0.2-2.7,0.4c-0.5,0.2,0.4,0.5,1.8,0.4
	C483.4,215.7,483.8,215.6,482.6,215.1z M499.9,193.2c-1.7,0.2-3.3,0.7-4.7,1.5c-2.2,1.2-2.2,1.4-0.2,1.3c1.3-0.2,11.3-1.6,22.2-3.6
	s25.5-4.4,32.4-5.3c6.9-1,17.6-2.7,23.6-3.9c12.9-2.5,20.4-3.6,64.7-9.7c46-6.5,55-7.7,66.1-8.9c7.6-1.1,9.6-1.6,10.2-3.5
	c0.6-1.8-0.3-2.3-1.7-2.3c-1.4,0.1-1.9,0.8-1.3,2c0.5,1.2,0.3,2-0.7,2c-0.4,0-0.8-0.2-1.1-0.5c-0.2-0.3-0.3-0.7-0.2-1.1
	c0.3-1.2-2.2-1.5-10-1c-12,0.8-17.8,2.2-17.2,4.3c0.5,2.1-2,2-3.2,0.1c-0.7-1-4-1.1-10.9-0.2L654,166c-18.6,2-56.8,7.6-93.2,13.7
	l-36.2,5.9c-8.4,1.1-16.8,2.7-25,4.8c-2.8,0.8-2.8,0.8,0.2,1.7C502.8,193,502.5,193,499.9,193.2z M768.3,152.9
	c-1.1-1.1-2.7-1.7-4.4-1.6c-1.8,0.4-1.7,0.8-0.4,2.1c1.2,1,2.8,1.5,4.4,1.6C770.3,154.9,770.3,154.7,768.3,152.9z M680.7,192.2
	c-2.5,0.7-0.3,0.8,5.6,0.2c3.5-0.2,6.9-0.7,10.3-1.5C697.7,190.1,684.9,191.1,680.7,192.2z M323.7,235.6c0.3-4.1-1.3-8.2-4.5-11.1
	c-8.1-8.9-12.4-6-7.5,5C317.5,242.6,323.8,245.6,323.7,235.6z M1920,12.5c-5,0.4-10,1.4-14.7,3c-9.2,2.4-23,5.6-30.6,7.2
	c-7.6,1.6-23.5,5.5-35.4,8.6c-19.7,5.6-39.7,9.9-59.9,13.1c-7,0.2-4.5-2.1,6-5.1l18.4-5.4c12-3.5,6.2-3.8-8.5-0.4l-29.1,6.6
	c-9.2,2-17.6,4.1-18.8,4.5c-8,0.7-8.5,0.9-7.2,1.8c1.3,0.8,1.2,1.3-1,1.9c-2.2,0.6-3.1,0.1-3.4-0.7c-4.5,2.3-6,2.8-7.7,1.9
	c-1.7-0.9-2.8-1-3.1-0.6c-2.2,0.8-4.5,1.2-6.8,1.4c-11.7,1.6-21.2,4-19.5,5c2.8,1.6-2.2,2.8-8.1,2.1c-3.8-0.5-5.7-0.1-7,1.5
	c-0.8,1.1-2,1.8-3.4,2.1c-0.9,0.1-0.6-0.6,0.5-1.3c2.9-1.9,0.8-1.6-11.1,1.6c-5.7,1.5-9.2,2.8-7.6,2.8c-12.2,4.6-25.5,9-27.6,9.9
	c-2.1-0.3-1.4-1.2-1.4-2.3c0-1.1-0.8-1.9-1.9-2c-1,2.1-1.2,3.2-1.8,4c-1.3-2.3-1.9-2.6-2.7-2.6c-0.7,0-1.4,0.8-1.4,1.7
	s-2.7,2.5-5.9,3.4c-7.2,2.1-21.8,3.1-22.3,1.7c-5.7,0.9-5.7,0.9-2.8,1.8c2.9,0.9,2.4,1-0.4,1.1c-1.5,0.2-2.9-0.3-4-1.3
	c-0.6-0.9-1.9-0.4-3.6,1.4c-1.1,0-1.9,0-2.6,0c0.5-0.4,0.9-0.8,0.9-1.1c0-0.3-0.6-0.6-1.4-0.5c-0.8,0.1-1.4,0.7-1.4,1.4
	c0,0.1,0,0.2,0,0.3c-1.3,0.1-1.6,0.5-2.2,1.3c-1,1.4-3.6,1.7-8.3,1.6c-2.6-0.2-5.2-0.1-7.8,0.4c-2.3,0.5-4.6,0.7-7,0.5
	c-3.5-0.1-6.3,0.2-6.3,0.9s-2.5,1.1-5.6,1.3c-3.4,0.2-6.8,0.8-10.1,1.7c-4.2,1.2-8.5,2.1-12.8,2.9c-4.8,0.7-11.7,2.2-15.8,3.1
	c-5.6,1.3-7.9,1.1-9.4,0.1c-1.9,0.7-2.1,1.1-2.5,1.3c-2.1-0.2-2.9-1.9-2.9-3.6c0-1.8-0.8-3-1.8-2.8c-1,0.2-1.7-0.2-1.8-1
	c-0.1-0.7,1.3-1.3,2.9-1.4c1.6,0,2.7-0.7,2.1-2.1c3.6,0.1,5.3,0.4,7.1,0.2c-2.2-0.7-3.7-1.3-4.8-2.3c2.4-0.4,4.3-0.9,5.9-1.9
	c2.6-1.2,5.6-1.7,8.5-1.2c2.8,0.5,5.7,0,8.1-1.5c1.8-1.3,4.2-1.9,6.4-1.5c2.4,0.6,2.8,0.4,2.1-1.3c-0.7-1.6,0-2.1,3.3-2.2
	c2.2,0,4.4-0.7,6.1-1.9c2.3-1.3,4.9-1.9,7.6-1.6c5.7-1.3,6.6-2,7.8-2c1.1-0.1,2,0.6,2.1,1.6c2.3-1.2,4.1-1.6,5.8-1.4
	c7.1-1.4,10-1.7,12.8-1.5c2.9,0.2,5.8-0.2,8.5-1.2c1.9-1,4.1-1.4,6.3-1.2c2.8,0,5.6-0.5,8.3-1.5c2.7,1.4,2.9,1.5,4.4,0.2
	c1.7-1.1,3.8-1.7,5.9-1.7c4.6-0.5,9.2-1.5,13.7-2.9c5.2-1.5,16.1-4.1,24.4-5.8c8.2-1.7,19.9-4.3,26-5.8c6.1-1.5,15.1-3.5,19.9-4.5
	c3.3-0.5,6.5-1.4,9.4-2.9c1.1-1.8-12.7-1-24.4,1.3l-25.4,5.1c-19.5,3.9-43.3,7.5-44.6,6.7c-1.3-0.8-1.2-4.2,1.3-4.8
	c1.4-0.2,4.8-1.2,8-1.8c2.8-0.4,5.4-1.5,7.6-3.1c1.9-1.8,1.4-1.9-4.1-1c-2.4,0.3-4.8,0.9-6.9,2c-15.1,2.2-25.3,4.3-35.2,7.5
	c-2.1-1.3-2.6-1.4-4.5-0.6c-5.5,2.3-16,1.6-12.1-0.8c0.7-0.4,14.3-3.5,29.7-6.9c29.7-6.3,36.4-7.6,51.3-10.1
	c4.8-0.7,13.4-2.4,18.8-3.6c5.4-1.1,12.6-2.5,16-3c18.9-2.7,49.6-8.7,50.8-9.9c1.2-1.2-5.9-0.9-32,3.4l-38.2,6.2
	c-17.9,2.8-39.7,6.5-85.6,14.3c-14.4,2.5-17.5,3.5-22.2,7.8c-3.1,2.7-16,5.2-16,3.1c0.2-0.9,0.8-1.7,1.7-2.1
	c-3.4,0.9-3.7,1.6-3.6,2.3c0.2,1.4-0.8,2.2-2.5,2.3c-2,0.2-3.9,0.7-5.6,1.6c-4.7-1.2-5.1-1.3-5.5,0.2s-3,1.9-6.1,2.3
	c-9.1,1-14.5,2.3-15.4,3.5c-5.1,1.3-6.7,1.9-8,3.1c-1.7,1.5-3.6,2.9-5.5,4.1c-3.6,2.3-3.7,2.3-4.6-0.3c-2.8,3.1-3.6,3.5-11.8,5
	c-4.9,0.8-9.6,2.2-14.2,3.9c-3.6,1.4-7.4,2.2-11.2,2.2c-2.5-0.2-5.1,0.1-7.5,0.8c-2.7,0.9-5.4,1.5-8.3,1.8c-5,0.8-10,2-14.9,3.6
	c-2.8,1.2-5.8,1.9-8.8,2.1c-0.3-0.3,1.9-1.4,5-2.3c3.1-0.9,5.3-2.2,4.9-2.9c-4.9,0.2-6.1,0.1-6.1-1.5c0-1.1-1-2-2.2-2
	c-1.2,0.2-1.8-0.5-1.3-1.3c0.5-0.8-0.2-1.3-1.3-1.3c-1.1,0-2.1,1.2-2.1,2.7c0.4,0.6,1.2,1,2,1c1.1-0.2,2.1,0.5,2.1,1.1
	c0,1.9-3.4,4.1-6.3,4c-3,0.3-6.1,0.8-9,1.7c-4.7,1.2-9.6,2-14.4,2.6c-7.6,0.8-8,0.7-8-2.1l0-2.9l-2.6,3.1c-2.1,2.5-3,2.8-4.7,1.5
	c-1.7-1.3-3-1.2-6.8,0.4c-2.8,1.2-3.7,2-2.2,2c3.6,0,1.7,2.2-2.8,3.3c-12.7,3.1-14,3.3-13.3,1.5c0.3-0.9,1.1-1.6,2.1-1.8
	c0.7-0.1,1-0.6,0.5-1.3c-6.5,1.3-7.2,2.2-6,2.9c2.2,1.3,1.4,1.9-4,3c-3.6,0.5-4.3,0.6-3.7-1.1c0.6-1.7-0.8-1.9-7.4-1.9
	c-4.5,0-7.4-0.3-6.4-0.6c3.8-1.5,1.5-3.2-3.3-2.4c-6.7,0.9-8.4,2.3-5.5,3.7c2.9,1.4,1.8,3.1-3.5,3.1c-3.1,0-4.5-0.5-4.2-1.8
	c0.3-1.2-0.6-1.5-3.5-0.8c-1.7,0.3-3.3,1-4.6,2c-2.1,2-5.3,2.6-8,1.4c-3.1,3.3-6.5,4.2-17.4,4.7c-5.1,0.2-10.2,1.2-15,2.9
	c-2.6,1.2-5.4,2-8.3,2.6c-3.5,0.1-7,4-6.2,6.8c0.2,1.4,1.2,2.5,1.9,2.5c0.6,0,0.9-0.9,0.4-1.9c-0.3-0.7,1.8-0.3,6.2,1.1l-4.4,1.9
	c-6.2,2.2-12.6,3.5-19.1,4c-5.8,1-8.1,1.4-10.5,1.5l-7,0.5l5.6-1.8c3.1-1,6.3-1.7,9.6-2c1.8,0.1,3.5-0.7,4.6-2.1
	c0.4-1.1,1.3-1.7,2.1-1.3c0.7,0.5,0.9,1.5,0.3,2.2c1.5-0.2,1.8-1.3,1.3-2.3c-0.5-1.2,0-1.9,1.4-2c1.4-0.1,1.9-0.8,1.4-2
	c-1.5-3.6-6.1-2.2-6.9,2.1s-3.8,5.2-5.1,2.2c-0.6-1.4-2.2-1.6-6.1-1c-5.7,0.8-9.2,2.9-8.1,4.5c1.1,1.7-7.8,2.4-9.8,0.6
	c-7.6,2.5-16.8,4.6-36.4,7.4c-19.6,2.8-33.2,5.6-34,6.9c-1.8-1-5.4-0.8-14.2,0.8c-6.7,1.2-15.5,2.5-19.3,2.7
	c-3.9,0.2-12.3,1.4-18.4,2.3s-16.8,2.4-23.7,3.3c-23,3.2-24.2,3.4-24.3,4.5c-0.2,1.1,1.8,1.2,3.8,1.2l0.4,1.4
	c-2.4,0.9-5,1.2-7.6,1.1c-4.2-0.4-4.2-0.4-0.8-1.8c6.5-2.8,0.6-2.8-18.7,0c-10.7,1.5-22.6,3.2-26.5,3.2
	c-9.4,0.5-88.3,10.7-89.8,11.7c-0.7,0.7-0.9,1.7-0.4,2.6c1.1,2.7-0.7,5.1-2.8,3.5c-3.8-0.9-7.8-1.2-11.7-0.7
	c-6.1,0.4-9.8,0.1-10-0.7s-4.2-0.9-12.2-0.1l-13.9,1.4c-1,0.1-1.8,0.9-1.8,1.9c-5.3,0-8-0.5-10.8-0.4c2,1.7,1.8,2.2,0.7,3.1
	c-3.2,1.8-7,2.3-10.5,1.5c-1.9-0.6-1.9-0.9-0.3-2c1.6-1.1-1.2-1.1-8.8-0.3c-9.7,0.9-20.3,3.4-15,3.5c2,0,0.9,1.9-1.4,2.2
	c-3.9,0.9-6.1,1.2-8.4,1.4c-4.8,0.7-7.1,0.2-8.6-1.2c-2.5-2.3-8.7-2.5-10.1-0.3c2-0.3,2.4,0,2,1.1c-1,2.8-8,4.1-18.2,3.4
	c-6.6-0.5-9.4-0.2-9.4,0.9c0,0.8-0.7,1.5-1.5,1.5c-0.8,0.1-1.2-0.9-0.8-2c0.4-1.1-0.3-1.9-3-1.8c2,1.6,1.7,3-2.4,5.2
	c-5.3,2.8-3.8,5.2,2.9,4.2c0.8-0.1,0.1,0.7-1.1,1.6c-1.2,0.8-2.1,2-2.4,3.4c0.2,1.4-2.3,2.1-6.7,2c-0.6,1.1-1.9,2.2-3.9,3.2
	c-3.5-0.2-4.2-0.8-5-0.8c-0.8-0.1-0.1-0.9,2.3-1.8c3.9-1.7,4-1.8,1-2.6c-2.2-0.6-2.9-1.5-2.3-3.3c0.9-2.7-4.1-6.2-5.5-3.9
	c-7,0.3-8.9,0.7-8.7,1.2c0.2,1.6-1.9,5.5-3.2,5.6c-1.3,0-1.2-1.1-1.2-2.5c0-2.9-2.3-4.7-3.1-2.4c-5.6-0.9-7-0.8-9.6,1.4
	c-6.7-1.7-9.1-1.9-10,0.4c-4.8,1.1-5.6,1-6.1,0.5c-0.5-0.5-0.2-1.5,1.1-2.1c1.3-0.7,1.6-1.3-0.2-1.3c-1.2-0.1-2.2,0.6-2.4,1.7
	c0.1,0.9-1.7,1.9-3.8,2c-2.9,0.4-3.3,0.1-1.8-1c1.6-1,0.7-1.3-3.5-1.2c-4.1,0.1-4.9,0.4-3.5,1.3s1.6,1.6-1,3.9
	c-3.3-1.2-3.9-1.3-7.7-0.5c-6.9,1.6-8.4,1.5-9-0.2c3-0.4,3.8-0.8,3.8-1.7c0-0.9-1.2-1.3-3.5-0.7c-2.3,0.6-6.3,1.3-9.8,1.8
	s-5.7,1.4-4.7,1.9c-10.2,0-11.4,0.2-11.3,2c0.1,1.8-2.5,2.8-5.9,2.4c-0.5,0.1-1,0.8-1,1.9c0,1.1-1.4,2-9.1,1.3
	c-5.7-0.4-9.1-0.1-9.1,0.8c0,0.8-3.3,1.2-8.3,1.2c-2.8-0.4-5.7-0.2-8.4,0.7c-12.6-0.6-24-0.7-22.2,0.3c-10.2,0.4-17.2,1-24.1,2.2
	c-8.6,1.2-18.7,2.6-22.5,3.2c-6.3,0.9-6.6,0.9-4.5,3.2c3,3.1,1.4,6.4-3.8,7.9c-5.3,1.5-7.9,0.8-6.9-1.8c0.5-1.3,1.9-1.7,4-1.3
	c3.7,0.8,5.2-1.8,2.5-4.2c-2.7-2.5-19.7-0.3-22.4,2.2c-1.9,1.1-4.1,1.5-6.3,1.2c-5.5,0-11,0.4-16.4,1.3c-17.1,2.4-17.2,2.4-19.5,1.2
	c-2.3-1.2-16.1,0.3-14.5,1.7c1.6,1.4-9.9,4.4-14.9,4.5c-2.2,0.1-3.6-0.4-3.2-1.1c0.4-0.7-1.8-1.1-14.7,0.8c-4.4,0.6-7.7,1.5-7.5,2
	c0.3,0.5-1,1.9-2.8,3.3c-3.8,2.8-4.7,1.9-1-1.4c2.2-2.1,1.7-2.3-6.6-3.1c-6-0.6-9.1-0.4-9.4,0.5c-2.6,0.2-5.2,1.7-7.7,3.9
	c-4.3,4.2-8.7,5.9-11.6,4c-3.5-0.5-7-0.3-10.5,0.5l-27.1,5.2c-23.7,4-22.7,3.8-84.9,16.1c-15.7,3.1-21.4,4.2-23.4,4.4
	c-0.6,0.1-0.9,0.5-0.5,1.1c0.4,0.6-1.9,0.9-5.2,1.4c-9.1,0.6-48.1,11.4-49.1,13.4c-3.5,0-4.3,0.3-4.1,1.3c0.2,1-0.5,2-1.5,2.3
	c-1.3,0.5-1.5,0.2-0.9-0.9c1.2-2-3.9-1.1-16.7,2.9l-20.6,6.4c-6.8,2.1-15.6,5.3-19.7,7c-7.5,3.3-17.8,11.8-15.3,12.3
	c6.1-1.1,12.1-2.6,18-4.5c10.7-3.1,17.2-4.5,18-3.6c2,1.9-0.3,3.3-8.1,5.3c-13.8,4.1-27.1,9.3-40,15.5c-4.6,2.2-11.3,5.3-15.3,6.8
	c-3.3,1.3-6.4,3-9.2,5v26.3h1920V12.5z M657.4,194.6c-1.8,0.2,0,0.4,3.8,0.3c3.8-0.1,5.2-0.4,3.1-0.4
	C662.1,194.2,659.7,194.2,657.4,194.6z M436.3,201c1.9-0.3,2.7-0.4,1.7-0.7c-1.1-0.3-2.4-0.3-3.5,0.1
	C433.6,200.7,434.4,201,436.3,201z M388,231.5c-0.9-0.3-1.9-0.2-2.7,0.4c-0.5,0.2,0.4,0.5,1.8,0.4C388.8,232.1,389.2,232,388,231.5z
	 M708.2,188.5c-0.5,0.2,0.4,0.5,1.8,0.4c1.6-0.2,2-0.3,0.8-0.8C710,187.8,709,187.9,708.2,188.5z M732.7,157
	c1.1-0.7,1.4-1.3,0.7-1.3c-1.2,0.2-2.4,0.7-3.5,1.4c-1.4,0.7-1.3,1.2-0.7,1.3C730.5,158.2,731.7,157.7,732.7,157z M728.6,171.5
	c9.2-0.5,18.3-2.1,27.1-4.7c0.9-0.8-0.1-0.9-2.1-0.5c-2,0.4-7.8,1.1-13.1,1.8C730.2,169.3,722.2,171.4,728.6,171.5z M747.4,155.2
	c2.3-0.1,3-0.4,1.7-0.7c-1.4-0.3-2.8-0.3-4.2,0.1C743.9,155,745.1,155.2,747.4,155.2z M757.8,166.1c0,0.7,2.4,0.8,5.3,0.3
	c3-0.5,6-0.9,9.1-1c2.1-0.1,3.8-0.5,3.8-1.3c0-0.8-3-0.9-6.6-0.5l-9.1,1C758.9,164.8,757.8,165.5,757.8,166.1z M721.6,161.2
	c2.5-1.6,0.3-1.6-3.5,0.1c-1.8,0.8-2.1,1.2-0.7,1.2C718.9,162.4,720.4,161.9,721.6,161.2z M625.6,199.5c-0.7,0.8,1,0.9,4,0.5
	c4.8-0.7,4.8-0.7,1.2-1.2C629,198.4,627.2,198.7,625.6,199.5z M570.8,207.6c-0.5,0.7-0.3,1.3,0.5,1.3c0.9-0.1,1.8-0.6,2.3-1.3
	c0.5-0.7,0.2-1.3-0.5-1.3C572.1,206.4,571.3,206.9,570.8,207.6z M562.1,208.5c-0.4,0.2,0.4,0.6,1.8,0.4c1.6-0.2,2-0.3,0.8-0.8
	C563.8,207.8,562.8,208,562.1,208.5z M552,209.6c-3.7,0.1-7.4,0.5-11.1,1.2c-4.6,0.8-5.2,1.2-2.1,1.1c3.7-0.2,7.4-0.6,11.1-1.2
	C555.6,209.9,556,209.5,552,209.6z M1167.9,121.7c1.6-0.2,2-0.3,0.8-0.8c-0.9-0.3-1.9-0.2-2.7,0.4
	C1165.6,121.5,1166.4,121.9,1167.9,121.7z M1574.4,4.3c2.3,0,4.2-0.6,4.2-1.6c0-1,0.9-1.1,2.1-0.8s2.1,0.1,2.1-0.7
	c0-0.8-1.6-1.1-4.4-0.5c-2.1,0.4-4.2,0.7-6.3,0.9c-1,0.1-1.9,0.6-1.9,1.3C1570.2,3.7,1572.2,4.6,1574.4,4.3z M1568.9,4.6
	c0-0.7-1-1.3-2.1-1.2c-1.1,0-2.1,0.3-2.1,0.6c0,0.3,1,0.8,2.1,1.2C1568,5.5,1568.9,5.2,1568.9,4.6z M1641.5,38.6
	c-1.8,1.1-1.7,1.3,0.3,1.3c1.2,0,2.4-0.5,3.2-1.4C1646.1,36.8,1644.2,36.9,1641.5,38.6z M1473.3,58.9c1.9-0.3,2.7-0.4,1.7-0.7
	c-1.1-0.3-2.4-0.3-3.5,0.1C1470.4,58.7,1471.2,58.9,1473.3,58.9z M1532.6,12c1.2-0.1,1.7-0.2,1.2-0.8c-0.5-0.5-2.1-0.2-3.8,0.5
	s-2.6,1.4-2,2c1.4,0.7,3,0.9,4.6,0.7c3.2-0.1,3.3-0.5,0.8-1.2C1531.8,12.6,1531.5,12.1,1532.6,12z M1475.2,27.6
	c1.6-0.2,2-0.3,0.8-0.8c-0.9-0.3-1.9-0.2-2.7,0.4C1472.8,27.2,1473.8,27.7,1475.2,27.6z M1639.6,67.5c-0.5,0.8-0.2,1.4,0.5,1.3
	c0.9-0.1,1.8-0.6,2.3-1.4c0.5-0.7,0.2-1.3-0.5-1.3C1640.9,66.2,1640.1,66.7,1639.6,67.5z M1557.7,7.9c-1.6,0.6-1.5,0.7,0.2,0.7
	c1.8,0,3.6-0.3,5.4-0.8c4-1.1,1.3-3.1-4-3c-2.5,0.1-2.9,0.4-1.6,1.1S1559.3,7.3,1557.7,7.9z M1539.3,12.6c0.2-0.3,0.4-0.6,0.4-1
	c-0.1-0.8,1.2-1,2.8-0.4s2.8,0.2,2.8-0.7s1.1-1.2,2.6-0.7c1.5,0.4,2.9,0,3.3-1.1c0.4-1.1-0.2-1.6-5-0.6c-3.2,0.5-6.2,1.2-6.7,1.3
	c-1.5,0.1-2.6,3.8-1.2,3.7C1538.7,13.1,1539.1,12.9,1539.3,12.6z M1652.1,64.2c-1.1,0.4-2.1,1-2.1,1.3c0,0.3,1,0.5,2.1,0.5
	c1.1-0.2,2.1-0.6,2.1-1.3C1654.2,64,1653.2,63.7,1652.1,64.2z M1501,88.7c-0.7,0-1.3,0.6-1.3,1.3c0,0.7,1,1.3,2.2,1.3
	c1.2-0.2,1.8-0.6,1.3-1.3C1502.7,89.3,1501.9,88.8,1501,88.7z M1508.2,80.1c-0.7-0.4-1.6,0.2-2,1.3s0.1,2.1,1.3,2
	C1509.6,83.3,1510.1,81.2,1508.2,80.1z M1748.8,11.9c-0.9-0.3-1.9-0.2-2.6,0.4c-0.5,0.3,0.3,0.4,1.8,0.4
	C1749.6,12.4,1750,12.4,1748.8,11.9z M0,330.8c5.6-1.4,29.8-14.1,27.3-14.6c-2.6-0.5-10.9,1.9-21.5,7.1c-2.4,1.1-4.3,2.2-5.8,3.3
	V330.8z M1520.6,86.4c-0.8,0.5-1.4,1.1-1.4,1.4c0,0.3,0.7,0.6,1.4,0.5c0.8-0.1,1.4-0.7,1.4-1.4C1521.9,86.2,1521.3,85.9,1520.6,86.4
	z M1546,72.8c-0.6,0.2,0.3,0.4,1.8,0.4c1.6-0.2,2-0.3,0.8-0.8C1547.8,72.1,1546.8,72.3,1546,72.8z M1603.1,75.6
	c-0.5,0.2,0.3,0.5,1.8,0.4c1.6-0.2,2-0.3,0.9-0.8C1604.9,74.9,1603.9,75,1603.1,75.6z M1513.7,88.5c0,0.7,0.9,0.9,2.1,0.4
	c1.2-0.4,2.1-1,2.1-1.3c0-0.3-1-0.5-2.1-0.4S1513.7,87.8,1513.7,88.5z M1613.1,63.5c-2.3,0.3-8.3,1.2-13.2,1.9
	c-19.6,3.1-51.2,10.3-44.3,10.4c4.2-0.4,8.4-1.1,12.5-2l26.8-5.3c6.6-1.1,13.1-2.6,19.5-4.5C1616.7,62.9,1616.4,62.8,1613.1,63.5z
	 M1257.5,100.4c0.1,0.8,0.6,1,1.4,0.5c0.8-0.5,1.4-1.1,1.4-1.4c0-0.3-0.6-0.6-1.4-0.5C1258.1,99,1257.5,99.6,1257.5,100.4z
	 M1470.5,28.1c-1.1-0.3-2.4-0.3-3.5,0.1c-0.9,0.4-0.2,0.6,1.8,0.6C1470.7,28.5,1471.5,28.4,1470.5,28.1z M1282.9,93.9
	c-0.5,0.2,0.4,0.6,1.8,0.4c1.6-0.2,2-0.3,0.8-0.8C1284.6,93.3,1283.6,93.4,1282.9,93.9z M1197.1,89.4c-9.3,0.7-18.5,2.6-27.4,5.5
	c-0.2,0.3,1.4,0.6,3.6,0.5C1180,95.1,1199.6,90.2,1197.1,89.4z M1252.9,100.4c-1.7-0.1-3.4,0.4-4.7,1.5c-0.3,0.9,0.7,1,3.3,0.4
	C1256.8,100.9,1257.3,100.3,1252.9,100.4z M1296.8,91c-0.5,0.2,0.3,0.5,1.8,0.4c1.6-0.2,2-0.3,0.8-0.8
	C1298.6,90.4,1297.6,90.5,1296.8,91z M1360.9,77.5c-2.8-0.1-5.7,0.3-8.4,1.2c-2,1.2-1.5,1.3,2.1,0.7c4.3-0.6,4.5-0.6,2.8,1.5
	c-1.1,1.3-1.2,1.8-0.4,1.3c1.9-0.5,4-0.4,5.8,0.2c3.3,0.8,4.5,0.6,4.8-0.7c0.4-1.3-0.3-1.9-3.8-1.9c-4.2-0.1-4.3-0.1-1-1.2
	C1366.3,77.4,1365.7,77.4,1360.9,77.5z M1205.8,87.4c-0.2-1.7-0.3-1.9-2.1-0.4c-0.9,0.6-1.6,1.4-2.1,2.2c0,0.2,1,0.4,2.1,0.4
	C1205,89.5,1205.9,88.5,1205.8,87.4z M1334.7,83c-2.1,0.9-1.6,1.1,2.4,0.7c2.1-0.1,4.2-0.5,6.2-1.4C1344.6,81,1338,81.6,1334.7,83z
	 M1347.1,52.3c-4,1.2-8.1,2-12.3,2.6c-4.4,0.6-8,1.6-8,2.2c0,0.6-0.9,0.8-1.9,0.3c-8.1,0.9-16.1,2.4-24,4.5
	c-73.3,17-88.2,20.6-88.1,21.3c0.5,0.7,1.1,1.3,1.8,1.8c1.3,1,6.3,0.3,18.4-2.6l26.4-6.3c25.1-5.8,46.6-11.7,45.6-12.6
	c-1-0.8-0.1-0.6,1.2-0.2c8-0.7,15.9-2.2,23.6-4.3c11.7-2.8,23.2-5.3,25.5-5.6l4.2-0.6l-4-1C1352.7,51.2,1349.8,51.4,1347.1,52.3z
	 M1276.6,95.1c-0.9,0.4-0.1,0.7,1.8,0.6c1.9-0.3,2.7-0.4,1.7-0.7C1278.9,94.7,1277.7,94.7,1276.6,95.1z M1410.3,41.7
	c0,0-1.2-0.8-2.8-1.1c-1.6-0.3-2.8-0.1-2.8,0.4s1.3,1,2.8,1.1C1409,41.9,1410.3,41.7,1410.3,41.7z M1424.8,73.2
	c2.1,0,3.8-0.5,3.8-1.4c-0.2-1.6-2.9-1.6-5.5,0.1C1421.4,73,1421.8,73.3,1424.8,73.2z M1233.8,105.8c1.9-0.2,3.7-0.6,5.5-1.2
	c2.8-0.9,2.9-1.1,0.7-1.1c-1.9,0.1-3.8,0.5-5.5,1.2C1232.8,105.4,1232.5,105.9,1233.8,105.8z M1456.4,69.9c0-0.7-1-1.3-2.1-1.3
	c-1.2,0-2.1,0.6-2.1,1.4c0,0.7,1,1.3,2.1,1.3C1455.5,71.2,1456.4,70.6,1456.4,69.9z M1417.3,38.4c0-1.2-0.6-1.7-1.4-1.2
	c-0.8,0.5-1.3,1.2-1.4,2.1c0,0.7,0.7,1.2,1.4,1.2C1416.6,40.4,1417.3,39.6,1417.3,38.4z M1372.8,76.9c2.5-0.1,4.1,0.4,3.7,1.1
	c-0.4,0.7,0.3,1.9,1.4,2.8c1.1,0.9,2.6,1.2,4.8-0.7c1.4-1.1,2.4-2.6,2.7-4.3c-0.2-1.1,0.8-1.6,2-1.2c1,0.4,2.2,0.1,3-0.7
	c0.6-1-0.8-1.1-4.5-0.5c-3.7,0.7-7.9,1.1-10.9,1.5C1368.2,75.9,1366.8,77,1372.8,76.9z M1215.7,109c-0.8,0.1-1.4,0.2-1.4,0.6
	c0,0.4,0.6,0.8,1.4,1.4c0.8,0.5,1.4,0.2,1.4-0.6c0-0.4-0.1-0.7-0.4-1C1216.5,109.2,1216.1,109,1215.7,109z M1381.9,46.8
	c-0.5-0.4-1.5,0.2-2.5,1c-0.9,0.7-1.1,1.4,0.8,0.7C1381.5,47.9,1382.3,47.2,1381.9,46.8z M1387.3,46.4c2.7-0.1,2.6-0.4-0.4-1.3
	c-3-1-5.1-0.9-3.4,0.6C1384.6,46.2,1385.9,46.5,1387.3,46.4z"/>
</svg>
