<?xml version="1.0" encoding="utf-8"?>
<!-- Generator: Adobe Illustrator 16.0.0, SVG Export Plug-In . SVG Version: 6.00 Build 0)  -->
<!DOCTYPE svg PUBLIC "-//W3C//DTD SVG 1.1//EN" "http://www.w3.org/Graphics/SVG/1.1/DTD/svg11.dtd">
<svg version="1.1" id="Layer_1" xmlns="http://www.w3.org/2000/svg" xmlns:xlink="http://www.w3.org/1999/xlink" x="0px" y="0px"
	 width="50.67px" height="48.542px" viewBox="0 0 50.67 48.542" enable-background="new 0 0 50.67 48.542" xml:space="preserve">
<g id="XMLID_37282_">
	<path id="XMLID_37288_" fill="#656069" d="M20.486,17.014c0.058,0.261,0.244,0.47,0.496,0.561c0.252,0.087,0.536,0.04,0.738-0.123
		l2.037-1.611v9.948h-2.554c-0.204,0-0.403,0.083-0.547,0.226c-0.144,0.144-0.226,0.344-0.226,0.548v2.499
		c0,0.206,0.082,0.405,0.224,0.546c0.144,0.145,0.343,0.229,0.549,0.229h10.479c0.209,0,0.405-0.082,0.545-0.226
		c0.148-0.146,0.229-0.341,0.229-0.549v-2.499c0-0.207-0.081-0.401-0.225-0.543c-0.145-0.148-0.341-0.23-0.55-0.23h-2.539v-15.03
		c0-0.209-0.082-0.403-0.223-0.543c-0.145-0.149-0.341-0.23-0.551-0.23h-3.291c-0.159,0-0.312,0.048-0.44,0.137l-4.491,3.108
		c-0.26,0.18-0.384,0.494-0.316,0.803L20.486,17.014z M25.105,10.844h3.178v15.805h3.314v2.327H21.291v-2.327h3.326V14.063
		l-3.323,2.627l-0.61-2.786L25.105,10.844z"/>
	<path id="XMLID_37283_" fill="#656069" d="M0.04,39.981c0.095,0.281,0.348,0.479,0.644,0.503l6.555,0.532l0.202,6.084
		c0.011,0.289,0.188,0.546,0.454,0.658c0.093,0.04,0.191,0.059,0.289,0.059c0.182,0,0.36-0.064,0.498-0.189l12.201-11.002
		l0.586,1.605c0.285,0.783,0.863,1.249,1.549,1.249c0.507,0,1.006-0.267,1.398-0.749l2.167-2.652
		c0.182-0.221,0.441-0.348,0.718-0.348c0.161,0,0.401,0.043,0.626,0.246l2.535,2.305c0.397,0.359,0.839,0.55,1.278,0.55
		c0.299,0,0.627-0.095,0.909-0.319l8.825,9.783c0.144,0.159,0.346,0.246,0.553,0.246c0.074,0,0.151-0.012,0.226-0.035
		c0.277-0.089,0.478-0.332,0.513-0.621l0.696-5.953l6.533-0.605c0.28-0.025,0.522-0.207,0.624-0.469
		c0.103-0.262,0.048-0.559-0.142-0.768L39.633,28.062c0.011-0.026,0.021-0.055,0.036-0.08c0.127-0.219,0.338-0.373,0.595-0.432
		l3.334-0.779c0.708-0.166,1.21-0.584,1.377-1.151c0.168-0.567-0.022-1.19-0.525-1.716l-2.372-2.47
		c-0.181-0.19-0.274-0.435-0.263-0.687c0.011-0.254,0.126-0.487,0.325-0.658l2.593-2.24c0.548-0.475,0.796-1.08,0.684-1.659
		c-0.115-0.58-0.576-1.044-1.264-1.274l-3.247-1.086c-0.25-0.083-0.446-0.257-0.554-0.486s-0.113-0.49-0.015-0.734l1.251-3.186
		c0.25-0.635,0.215-1.236-0.096-1.694c-0.355-0.521-0.975-0.765-1.78-0.634l-3.38,0.546c-0.542,0.088-1.013-0.282-1.073-0.816
		l-0.37-3.403c-0.122-1.122-0.872-1.625-1.563-1.625c-0.392,0-0.801,0.15-1.18,0.437l-2.737,2.055
		c-0.425,0.317-1.036,0.212-1.331-0.226L26.169,1.22c-0.386-0.568-0.903-0.882-1.46-0.882c-0.636,0-1.191,0.403-1.522,1.105
		l-1.472,3.092c-0.225,0.476-0.81,0.673-1.279,0.419l-3.012-1.629c-0.77-0.415-1.579-0.338-2.071,0.174
		c-0.228,0.238-0.496,0.676-0.467,1.408l0.138,3.422c0.01,0.26-0.08,0.502-0.256,0.685c-0.174,0.181-0.414,0.28-0.685,0.28
		l-3.46-0.041c-0.714,0-1.288,0.289-1.579,0.796c-0.294,0.509-0.256,1.158,0.104,1.783l1.711,2.968
		c0.129,0.227,0.162,0.485,0.09,0.729c-0.071,0.243-0.239,0.442-0.475,0.563l-3.051,1.555c-0.647,0.329-1.033,0.856-1.063,1.447
		c-0.023,0.59,0.312,1.15,0.924,1.539l2.894,1.832c0.221,0.14,0.371,0.354,0.42,0.603c0.049,0.249-0.007,0.504-0.159,0.719
		l-1.981,2.794c-0.418,0.593-0.514,1.24-0.265,1.775C8.443,28.89,9,29.23,9.724,29.288l1.379,0.113L0.245,39.192
		C0.024,39.391-0.056,39.701,0.04,39.981z M39.856,34.093c0.048-0.049,0.091-0.102,0.13-0.155c0.125-0.087,0.241-0.187,0.336-0.312
		c0.316-0.423,0.393-1,0.211-1.625l-0.306-1.061l8.155,9.045l-5.659,0.523c-0.349,0.032-0.629,0.305-0.668,0.653l-0.575,4.921
		l-8.121-9.001l0.633-3.085c0.023-0.111,0.067-0.213,0.125-0.305c0.199-0.105,0.429-0.135,0.656-0.076l3.314,0.861l0,0
		C38.797,34.661,39.44,34.521,39.856,34.093z M9.842,27.839c-0.229-0.018-0.32-0.086-0.331-0.098c-0.001-0.006-0.002-0.016,0-0.033
		l0,0c0.005-0.049,0.035-0.148,0.136-0.289l1.981-2.793c0.095-0.137,0.175-0.279,0.239-0.426c0.197-0.443,0.253-0.934,0.157-1.416
		c-0.127-0.644-0.507-1.193-1.069-1.549L8.06,19.403c-0.093-0.061-0.153-0.115-0.19-0.158c0-0.001-0.002-0.002-0.002-0.002
		c-0.037-0.043-0.051-0.072-0.051-0.08c0.004-0.021,0.062-0.117,0.268-0.222l1.567-0.799l1.482-0.756
		c0.594-0.302,1.023-0.815,1.209-1.444c0.18-0.602,0.111-1.232-0.186-1.79c-0.014-0.026-0.024-0.054-0.04-0.079l-1.709-2.967
		c-0.087-0.149-0.105-0.251-0.108-0.299c-0.001-0.016,0-0.025,0.001-0.029c0.004-0.004,0.016-0.012,0.033-0.021
		c0.044-0.021,0.138-0.051,0.306-0.051l0.882,0.011l2.573,0.031c0.66,0,1.271-0.259,1.722-0.729
		c0.228-0.234,0.396-0.507,0.509-0.803c0.01-0.028,0.014-0.059,0.022-0.088c0.091-0.271,0.139-0.56,0.127-0.858l-0.136-3.421
		c-0.009-0.23,0.046-0.33,0.091-0.345c0.035,0,0.137,0.01,0.301,0.099l2.475,1.337l0.54,0.292c0.036,0.02,0.074,0.033,0.11,0.051
		c0.323,0.154,0.677,0.24,1.03,0.24c0.618,0,1.187-0.238,1.617-0.646c0.212-0.201,0.394-0.439,0.525-0.718L24.5,2.066
		c0.028-0.06,0.057-0.104,0.082-0.143c0.046-0.068,0.087-0.104,0.107-0.12c0.008-0.006,0.016-0.011,0.019-0.012
		c0.007,0.001,0.029,0.012,0.056,0.028c0.013,0.009,0.028,0.02,0.044,0.034c0.044,0.037,0.095,0.091,0.154,0.177l1.294,1.926
		l0.616,0.916c0.149,0.222,0.332,0.409,0.536,0.566c0.409,0.313,0.91,0.493,1.435,0.493c0.155,0,0.308-0.02,0.456-0.049
		c0.352-0.068,0.686-0.212,0.979-0.434l1.12-0.841l1.619-1.215c0.151-0.113,0.246-0.138,0.29-0.144
		c0.009-0.001,0.02-0.002,0.024-0.002c0.017,0.013,0.085,0.102,0.111,0.33l0.37,3.403c0.056,0.503,0.263,0.954,0.573,1.311
		c0.116,0.133,0.246,0.25,0.389,0.354c0.491,0.361,1.121,0.537,1.786,0.429l3.383-0.547c0.188-0.031,0.332,0.009,0.344,0.016
		c0.003,0.004,0.006,0.015,0.006,0.026c0.009,0.046,0.007,0.148-0.059,0.318l-1.253,3.187c-0.03,0.076-0.057,0.153-0.079,0.23
		c0,0.001,0,0.002,0,0.002c-0.005,0.019-0.009,0.036-0.013,0.054c-0.114,0.438-0.102,0.892,0.036,1.32
		c0.03,0.092,0.065,0.185,0.106,0.275c0.053,0.111,0.12,0.213,0.188,0.313c0.29,0.436,0.711,0.766,1.22,0.938l2.425,0.811
		l0.825,0.276c0.146,0.048,0.224,0.102,0.263,0.137c0.02,0.018,0.033,0.032,0.036,0.037c0,0.014-0.02,0.067-0.078,0.143
		c-0.033,0.04-0.07,0.084-0.131,0.136l-1.625,1.405l-0.966,0.835c-0.503,0.436-0.798,1.034-0.829,1.689
		c-0.03,0.656,0.206,1.282,0.667,1.764l2.373,2.471c0.158,0.165,0.182,0.276,0.182,0.292l0,0c-0.002,0.003-0.009,0.011-0.016,0.017
		c-0.002,0.003-0.002,0.004-0.007,0.008l0,0c-0.037,0.033-0.125,0.088-0.292,0.127l-3.334,0.779c-0.647,0.15-1.188,0.547-1.52,1.113
		c-0.074,0.125-0.133,0.256-0.182,0.39c-0.002,0.005-0.003,0.009-0.005,0.014c-0.049,0.136-0.084,0.273-0.105,0.414l-0.001,0.002
		c-0.306,0.498-0.446,0.9-0.307,1.37l0.951,3.287v0.001L35.5,31.877c-0.134-0.034-0.271-0.053-0.406-0.065
		c-0.069-0.005-0.137-0.012-0.205-0.012l0,0c-0.128,0-0.249,0.012-0.369,0.031c-0.026,0.004-0.053,0.008-0.079,0.012
		c-0.104,0.021-0.208,0.049-0.308,0.082c-0.042,0.014-0.084,0.03-0.126,0.047c-0.063,0.025-0.124,0.055-0.185,0.086
		c-0.081,0.039-0.156,0.084-0.231,0.134c-0.024,0.017-0.05,0.034-0.073,0.052c-0.115,0.082-0.224,0.174-0.323,0.275
		c0,0.001,0,0.002-0.002,0.002c-0.515,0.352-0.87,0.877-0.998,1.498l-0.591,2.883c-0.031,0.154-0.009,0.312,0.054,0.453l0,0v-0.001
		c-0.023-0.011-0.052-0.026-0.081-0.046c-0.007-0.004-0.012-0.006-0.018-0.01c-0.035-0.024-0.074-0.054-0.118-0.094l-2.536-2.303
		c-0.188-0.17-0.4-0.301-0.626-0.402c-0.306-0.14-0.636-0.221-0.978-0.221c-0.41,0-0.806,0.109-1.157,0.307
		c-0.119,0.066-0.234,0.144-0.34,0.231c-0.125,0.102-0.242,0.216-0.346,0.343l-2.168,2.651c-0.029,0.036-0.058,0.064-0.083,0.09
		c-0.032,0.031-0.062,0.057-0.087,0.074c-0.003,0.002-0.005,0.005-0.007,0.007c-0.005,0.002-0.005,0.002-0.008,0.004
		c-0.042,0.027-0.072,0.039-0.084,0.041l0,0c-0.006-0.003-0.016-0.01-0.028-0.02c0-0.002,0-0.002-0.001-0.002
		c-0.038-0.035-0.101-0.116-0.158-0.272l-0.79-2.163c0.2-0.204,0.271-0.504,0.171-0.774l-0.055-0.148
		c-0.229-0.629-0.689-1.12-1.295-1.383c-0.205-0.089-0.421-0.146-0.638-0.175l0,0c-0.121-0.043-0.248-0.078-0.378-0.102
		c-0.005,0-0.007-0.002-0.011-0.002c-0.132-0.024-0.268-0.037-0.406-0.037c-0.162,0-0.321,0.016-0.479,0.049h-0.003
		c-0.157,0.033-0.312,0.081-0.461,0.145c0,0-0.002,0-0.002,0.001l-3.026,1.286c0.003-0.029,0.003-0.056,0.009-0.089l0.455-3.396
		c0,0,0,0,0-0.002c0.088-0.664-0.092-1.313-0.507-1.827c-0.386-0.478-0.931-0.771-1.541-0.854V28.26
		c-0.084-0.029-0.166-0.056-0.253-0.075c-0.121-0.032-0.242-0.058-0.37-0.068l-1.153-0.094L9.842,27.839z M12.848,29.827
		l0.754-0.093c0.068,0.049,0.135,0.104,0.188,0.171c0.159,0.196,0.227,0.449,0.191,0.71l-0.453,3.394
		c-0.079,0.596,0.054,1.129,0.378,1.497c0.23,0.263,0.544,0.425,0.898,0.478c0.45,0.234,1.017,0.232,1.597-0.014l3.148-1.34
		c0.12-0.051,0.245-0.076,0.367-0.077c0.168,0.105,0.305,0.263,0.378,0.464l0.038,0.104L8.873,45.454l-0.171-5.148
		c-0.013-0.378-0.307-0.686-0.683-0.717l-5.5-0.446L12.848,29.827z"/>
</g>
</svg>
