<svg xmlns="http://www.w3.org/2000/svg" width="50.67" height="48.542"><g fill="#656069"><path d="M20.486 17.014a.773.773 0 001.234.438l2.037-1.611v9.948h-2.554a.782.782 0 00-.547.226.78.78 0 00-.226.548v2.499a.773.773 0 00.773.775h10.479a.758.758 0 00.545-.226.765.765 0 00.229-.549v-2.499a.759.759 0 00-.225-.543.765.765 0 00-.55-.23h-2.539V10.76a.763.763 0 00-.223-.543.762.762 0 00-.551-.23h-3.291a.77.77 0 00-.44.137l-4.491 3.108a.77.77 0 00-.316.803l.656 2.979zm4.619-6.17h3.178v15.805h3.314v2.327H21.291v-2.327h3.326V14.063l-3.323 2.627-.61-2.786 4.421-3.06z"/><path d="M.04 39.981a.743.743 0 00.644.503l6.555.532.202 6.084a.744.744 0 001.241.528l12.201-11.002.586 1.605c.285.783.863 1.249 1.549 1.249.507 0 1.006-.267 1.398-.749l2.167-2.652a.928.928 0 01.718-.348c.161 0 .401.043.626.246l2.535 2.305c.397.359.839.55 1.278.55.299 0 .627-.095.909-.319l8.825 9.783a.747.747 0 00.779.211.748.748 0 00.513-.621l.696-5.953 6.533-.605a.74.74 0 00.482-1.237L39.633 28.062c.011-.026.021-.055.036-.08a.914.914 0 01.595-.432l3.334-.779c.708-.166 1.21-.584 1.377-1.151.168-.567-.022-1.19-.525-1.716l-2.372-2.47a.933.933 0 01-.263-.687.913.913 0 01.325-.658l2.593-2.24c.548-.475.796-1.08.684-1.659-.115-.58-.576-1.044-1.264-1.274l-3.247-1.086a.91.91 0 01-.569-1.22l1.251-3.186c.25-.635.215-1.236-.096-1.694-.355-.521-.975-.765-1.78-.634l-3.38.546a.917.917 0 01-1.073-.816l-.37-3.403c-.122-1.122-.872-1.625-1.563-1.625-.392 0-.801.15-1.18.437L29.409 4.29a.937.937 0 01-1.331-.226L26.169 1.22c-.386-.568-.903-.882-1.46-.882-.636 0-1.191.403-1.522 1.105l-1.472 3.092a.929.929 0 01-1.279.419l-3.012-1.629c-.77-.415-1.579-.338-2.071.174-.228.238-.496.676-.467 1.408l.138 3.422c.01.26-.08.502-.256.685a.932.932 0 01-.685.28l-3.46-.041c-.714 0-1.288.289-1.579.796-.294.509-.256 1.158.104 1.783l1.711 2.968a.93.93 0 01.09.729.921.921 0 01-.475.563l-3.051 1.555c-.647.329-1.033.856-1.063 1.447-.023.59.312 1.15.924 1.539l2.894 1.832c.221.14.371.354.42.603a.926.926 0 01-.159.719l-1.981 2.794c-.418.593-.514 1.24-.265 1.775.25.534.807.874 1.531.932l1.379.113L.245 39.192a.738.738 0 00-.205.789zm39.816-5.888c.048-.049.091-.102.13-.155.125-.087.241-.187.336-.312.316-.423.393-1 .211-1.625l-.306-1.061 8.155 9.045-5.659.523a.74.74 0 00-.668.653l-.575 4.921-8.121-9.001.633-3.085a.922.922 0 01.125-.305.906.906 0 01.656-.076l3.314.861c.71.185 1.353.045 1.769-.383zM9.842 27.839c-.229-.018-.32-.086-.331-.098a.114.114 0 010-.033c.005-.049.035-.148.136-.289l1.981-2.793c.095-.137.175-.279.239-.426.197-.443.253-.934.157-1.416a2.361 2.361 0 00-1.069-1.549L8.06 19.403a.906.906 0 01-.19-.158l-.002-.002c-.037-.043-.051-.072-.051-.08.004-.021.062-.117.268-.222l1.567-.799 1.482-.756a2.36 2.36 0 001.023-3.234c-.014-.026-.024-.054-.04-.079l-1.709-2.967a.7.7 0 01-.108-.299.106.106 0 01.001-.029.173.173 0 01.033-.021.725.725 0 01.306-.051l.882.011 2.573.031c.66 0 1.271-.259 1.722-.729.228-.234.396-.507.509-.803.01-.028.014-.059.022-.088.091-.271.139-.56.127-.858l-.136-3.421c-.009-.23.046-.33.091-.345.035 0 .137.01.301.099l2.475 1.337.54.292c.036.02.074.033.11.051a2.337 2.337 0 002.647-.406c.212-.201.394-.439.525-.718L24.5 2.066c.028-.06.057-.104.082-.143a.531.531 0 01.126-.132.268.268 0 01.056.028.865.865 0 01.198.211l1.294 1.926.616.916c.149.222.332.409.536.566.409.313.91.493 1.435.493.155 0 .308-.02.456-.049.352-.068.686-.212.979-.434l1.12-.841 1.619-1.215c.151-.113.246-.138.29-.144a.324.324 0 01.024-.002c.017.013.085.102.111.33l.37 3.403c.056.503.263.954.573 1.311.116.133.246.25.389.354a2.356 2.356 0 001.786.429l3.383-.547a.745.745 0 01.344.016.052.052 0 01.006.026c.009.046.007.148-.059.318l-1.253 3.187a2.5 2.5 0 00-.079.23v.002a2.352 2.352 0 00.129 1.649c.053.111.12.213.188.313.29.436.711.766 1.22.938l2.425.811.825.276a.731.731 0 01.263.137c.02.018.033.032.036.037 0 .014-.02.067-.078.143a.994.994 0 01-.131.136l-1.625 1.405-.966.835a2.366 2.366 0 00-.162 3.453l2.373 2.471c.158.165.182.276.182.292a.111.111 0 01-.016.017c-.002.003-.002.004-.007.008a.68.68 0 01-.292.127l-3.334.779a2.365 2.365 0 00-1.702 1.503l-.005.014a2.149 2.149 0 00-.105.414l-.001.002c-.306.498-.446.9-.307 1.37l.951 3.287v.001l-3.263-.846a2.58 2.58 0 00-.406-.065c-.069-.005-.137-.012-.205-.012-.128 0-.249.012-.369.031l-.079.012a2.685 2.685 0 00-.434.129 2.209 2.209 0 00-.185.086 1.9 1.9 0 00-.231.134c-.024.017-.05.034-.073.052a2.42 2.42 0 00-.323.275c0 .001 0 .002-.002.002a2.38 2.38 0 00-.998 1.498l-.591 2.883a.749.749 0 00.054.453v-.001a.592.592 0 01-.081-.046l-.018-.01a1.092 1.092 0 01-.118-.094l-2.536-2.303c-.188-.17-.4-.301-.626-.402a2.346 2.346 0 00-.978-.221c-.41 0-.806.109-1.157.307a2.438 2.438 0 00-.686.574L23.29 37.81c-.029.036-.058.064-.083.09a.704.704 0 01-.087.074l-.007.007-.008.004a.286.286 0 01-.084.041.172.172 0 01-.028-.02l-.001-.002a.698.698 0 01-.158-.272l-.79-2.163a.74.74 0 00.171-.774l-.055-.148a2.376 2.376 0 00-1.933-1.558 2.474 2.474 0 00-.378-.102l-.011-.002a2.27 2.27 0 00-.885.012h-.003a2.44 2.44 0 00-.461.145l-.002.001-3.026 1.286c.003-.029.003-.056.009-.089l.455-3.396v-.002a2.364 2.364 0 00-2.048-2.681v-.001a2.225 2.225 0 00-.253-.075 2.064 2.064 0 00-.37-.068l-1.153-.094-2.259-.184zm3.006 1.988l.754-.093a.924.924 0 01.188.171.917.917 0 01.191.71l-.453 3.394c-.079.596.054 1.129.378 1.497.23.263.544.425.898.478.45.234 1.017.232 1.597-.014l3.148-1.34a.959.959 0 01.367-.077.914.914 0 01.378.464l.038.104L8.873 45.454l-.171-5.148a.745.745 0 00-.683-.717l-5.5-.446 10.329-9.316z"/></g></svg>