<?xml version="1.0" encoding="UTF-8" standalone="no"?>
<svg width="28px" height="40px" viewBox="0 0 28 40" version="1.1" xmlns="http://www.w3.org/2000/svg" xmlns:xlink="http://www.w3.org/1999/xlink">
    <!-- Generator: Sketch 46.2 (44496) - http://www.bohemiancoding.com/sketch -->
    <title>Combined Shape</title>
    <desc>Created with Sketch.</desc>
    <defs></defs>
    <g id="Desktop" stroke="none" stroke-width="1" fill="none" fill-rule="evenodd">
        <g id="Desktop-(1440/1200)" transform="translate(-1376.000000, -1450.000000)" fill="#FFFFFF">
            <g id="Group-3" transform="translate(1360.000000, 1440.000000)">
                <path d="M30,10 C22.27,10 16,16.27 16,24 C16,34.5 30,50 30,50 C30,50 44,34.5 44,24 C44,16.27 37.73,10 30,10 L30,10 Z M30,32.3255814 C25.3608081,32.3255814 21.6,28.5772677 21.6,23.9534884 C21.6,19.3297091 25.3608081,15.5813953 30,15.5813953 C34.6391919,15.5813953 38.4,19.3297091 38.4,23.9534884 C38.4,28.5772677 34.6391919,32.3255814 30,32.3255814 Z M30,29.5348837 C33.0927946,29.5348837 35.6,27.0360079 35.6,23.9534884 C35.6,20.8709688 33.0927946,18.372093 30,18.372093 C26.9072054,18.372093 24.4,20.8709688 24.4,23.9534884 C24.4,27.0360079 26.9072054,29.5348837 30,29.5348837 Z" id="Combined-Shape"></path>
            </g>
        </g>
    </g>
</svg>