<?xml version="1.0" encoding="UTF-8"?>
<svg width="18px" height="18px" viewBox="0 0 18 18" version="1.1" xmlns="http://www.w3.org/2000/svg" xmlns:xlink="http://www.w3.org/1999/xlink">
    <!-- Generator: Sketch 46.2 (44496) - http://www.bohemiancoding.com/sketch -->
    <title>link - FontAwesome</title>
    <desc>Created with Sketch.</desc>
    <defs></defs>
    <g id="Mobile" stroke="none" stroke-width="1" fill="none" fill-rule="evenodd">
        <g id="Profile---Share" transform="translate(-268.000000, -310.000000)" fill="#FFFFFF">
            <path d="M283.882353,323.235294 C283.882353,322.948529 283.772059,322.683824 283.573529,322.485294 L281.279412,320.191176 C281.080882,319.992647 280.805147,319.882353 280.529412,319.882353 C280.209559,319.882353 279.955882,320.003676 279.735294,320.235294 C280.099265,320.599265 280.529412,320.908088 280.529412,321.470588 C280.529412,322.055147 280.055147,322.529412 279.470588,322.529412 C278.908088,322.529412 278.599265,322.099265 278.235294,321.735294 C278.003676,321.955882 277.871324,322.209559 277.871324,322.540441 C277.871324,322.816176 277.981618,323.091912 278.180147,323.290441 L280.452206,325.573529 C280.650735,325.772059 280.926471,325.871324 281.202206,325.871324 C281.477941,325.871324 281.753676,325.772059 281.952206,325.584559 L283.573529,323.974265 C283.772059,323.775735 283.882353,323.511029 283.882353,323.235294 Z M276.128676,315.459559 C276.128676,315.183824 276.018382,314.908088 275.819853,314.709559 L273.547794,312.426471 C273.349265,312.227941 273.073529,312.117647 272.797794,312.117647 C272.522059,312.117647 272.246324,312.227941 272.047794,312.415441 L270.426471,314.025735 C270.227941,314.224265 270.117647,314.488971 270.117647,314.764706 C270.117647,315.051471 270.227941,315.316176 270.426471,315.514706 L272.720588,317.808824 C272.919118,318.007353 273.194853,318.106618 273.470588,318.106618 C273.790441,318.106618 274.044118,317.996324 274.264706,317.764706 C273.900735,317.400735 273.470588,317.091912 273.470588,316.529412 C273.470588,315.944853 273.944853,315.470588 274.529412,315.470588 C275.091912,315.470588 275.400735,315.900735 275.764706,316.264706 C275.996324,316.044118 276.128676,315.790441 276.128676,315.459559 Z M286,323.235294 C286,324.073529 285.658088,324.889706 285.0625,325.474265 L283.441176,327.084559 C282.845588,327.680147 282.040441,328 281.202206,328 C280.352941,328 279.547794,327.669118 278.952206,327.0625 L276.680147,324.779412 C276.084559,324.183824 275.764706,323.378676 275.764706,322.540441 C275.764706,321.669118 276.117647,320.841912 276.735294,320.235294 L275.764706,319.264706 C275.158088,319.882353 274.341912,320.235294 273.470588,320.235294 C272.632353,320.235294 271.816176,319.904412 271.220588,319.308824 L268.926471,317.014706 C268.319853,316.408088 268,315.613971 268,314.764706 C268,313.926471 268.341912,313.110294 268.9375,312.525735 L270.558824,310.915441 C271.154412,310.319853 271.959559,310 272.797794,310 C273.647059,310 274.452206,310.330882 275.047794,310.9375 L277.319853,313.220588 C277.915441,313.816176 278.235294,314.621324 278.235294,315.459559 C278.235294,316.330882 277.882353,317.158088 277.264706,317.764706 L278.235294,318.735294 C278.841912,318.117647 279.658088,317.764706 280.529412,317.764706 C281.367647,317.764706 282.183824,318.095588 282.779412,318.691176 L285.073529,320.985294 C285.680147,321.591912 286,322.386029 286,323.235294 Z" id="link---FontAwesome"></path>
        </g>
    </g>
</svg>